<svg width="203" height="222" viewBox="0 0 203 222" fill="none" xmlns="http://www.w3.org/2000/svg">
<line x1="1.38416" y1="35.6543" x2="118.494" y2="0.521247" stroke="white"/>
<line x1="201.169" y1="58.2944" x2="118.355" y2="1.41228" stroke="white"/>
<line x1="5.21024" y1="160.789" x2="1.00203" y2="35.3841" stroke="white"/>
<line x1="81.5218" y1="221.392" x2="5.42556" y2="161.184" stroke="white"/>
<line x1="201.169" y1="177.078" x2="121.185" y2="122.139" stroke="white"/>
<line x1="81.3577" y1="220.946" x2="77.1495" y2="95.5417" stroke="white"/>
<line x1="118.002" y1="120" x2="118.002" y2="1.00018" stroke="white"/>
<line x1="118.808" y1="120.253" x2="5.88053" y2="161.242" stroke="white"/>
<line x1="201.625" y1="177.134" x2="83.9711" y2="220.741" stroke="white"/>
<line x1="202.002" y1="58.0002" x2="202.002" y2="177" stroke="white"/>
<line x1="77.1907" y1="95.3259" x2="118.179" y2="0.801213" stroke="white"/>
<line x1="5.75043" y1="160.274" x2="201.492" y2="176.167" stroke="white"/>
<line x1="1.8354" y1="35.739" x2="77.9571" y2="95.1307" stroke="white"/>
<line x1="77.5129" y1="95.0438" x2="201.315" y2="59.9108" stroke="white"/>
<path d="M103.502 174.5C68.4282 174.5 40.002 146.29 40.002 111.5C40.002 76.7099 68.4282 48.5001 103.502 48.5001C138.576 48.5001 167.002 76.7099 167.002 111.5C167.002 146.29 138.576 174.5 103.502 174.5Z" stroke="white"/>
</svg>
