<svg width="478" height="84" viewBox="0 0 478 84" fill="none" xmlns="http://www.w3.org/2000/svg">
<g opacity="0.8" filter="url(#filter0_f_343_21)">
<rect x="15" y="15" width="216" height="30" rx="10" fill="white"/>
</g>
<path d="M46.4 35.24C45.5733 35.24 44.8267 35.0467 44.16 34.66C43.5067 34.26 42.9867 33.6867 42.6 32.94C42.2267 32.18 42.04 31.2733 42.04 30.22C42.04 29.14 42.24 28.2267 42.64 27.48C43.0533 26.72 43.5933 26.1467 44.26 25.76C44.9267 25.36 45.6467 25.16 46.42 25.16C47.0867 25.16 47.64 25.28 48.08 25.52C48.52 25.76 48.9067 26.0333 49.24 26.34L48.72 26.96C48.4133 26.6667 48.0733 26.4267 47.7 26.24C47.3267 26.04 46.9067 25.94 46.44 25.94C45.7867 25.94 45.1933 26.12 44.66 26.48C44.14 26.84 43.7267 27.34 43.42 27.98C43.1133 28.62 42.96 29.3667 42.96 30.22C42.96 31.06 43.1 31.8 43.38 32.44C43.6733 33.0667 44.08 33.56 44.6 33.92C45.1333 34.28 45.7467 34.46 46.44 34.46C46.9467 34.46 47.4133 34.3533 47.84 34.14C48.28 33.9133 48.6667 33.6533 49 33.36L49.46 33.98C49.0467 34.34 48.5867 34.64 48.08 34.88C47.5733 35.12 47.0133 35.24 46.4 35.24ZM58.1844 35.24C57.971 35.24 57.771 35.16 57.5844 35C57.411 34.84 57.3244 34.62 57.3244 34.34C57.3244 34.0467 57.411 33.82 57.5844 33.66C57.771 33.5 57.971 33.42 58.1844 33.42C58.411 33.42 58.6044 33.5 58.7644 33.66C58.9377 33.82 59.0244 34.0467 59.0244 34.34C59.0244 34.62 58.9377 34.84 58.7644 35C58.6044 35.16 58.411 35.24 58.1844 35.24ZM78.2033 35V25.4H79.0833V30.2C79.0833 30.72 79.0699 31.2933 79.0433 31.92C79.0299 32.5467 79.0099 33.18 78.9833 33.82H79.0633C79.2499 33.5133 79.4766 33.1667 79.7433 32.78C80.0099 32.38 80.2366 32.0333 80.4233 31.74L84.7433 25.4H85.6033V35H84.7233V30.2C84.7233 29.68 84.7366 29.1067 84.7633 28.48C84.7899 27.84 84.8099 27.2067 84.8233 26.58H84.7433C84.5566 26.8733 84.3299 27.22 84.0633 27.62C83.7966 28.0067 83.5699 28.3533 83.3833 28.66L79.0633 35H78.2033ZM95.6375 35.24C95.4242 35.24 95.2242 35.16 95.0375 35C94.8642 34.84 94.7775 34.62 94.7775 34.34C94.7775 34.0467 94.8642 33.82 95.0375 33.66C95.2242 33.5 95.4242 33.42 95.6375 33.42C95.8642 33.42 96.0575 33.5 96.2175 33.66C96.3908 33.82 96.4775 34.0467 96.4775 34.34C96.4775 34.62 96.3908 34.84 96.2175 35C96.0575 35.16 95.8642 35.24 95.6375 35.24ZM106.013 35.24C105.799 35.24 105.599 35.16 105.413 35C105.239 34.84 105.153 34.62 105.153 34.34C105.153 34.0467 105.239 33.82 105.413 33.66C105.599 33.5 105.799 33.42 106.013 33.42C106.239 33.42 106.433 33.5 106.593 33.66C106.766 33.82 106.853 34.0467 106.853 34.34C106.853 34.62 106.766 34.84 106.593 35C106.433 35.16 106.239 35.24 106.013 35.24ZM116.028 35V25.4H121.648V26.16H116.908V35H116.028ZM128.384 35.24C128.17 35.24 127.97 35.16 127.784 35C127.61 34.84 127.524 34.62 127.524 34.34C127.524 34.0467 127.61 33.82 127.784 33.66C127.97 33.5 128.17 33.42 128.384 33.42C128.61 33.42 128.804 33.5 128.964 33.66C129.137 33.82 129.224 34.0467 129.224 34.34C129.224 34.62 129.137 34.84 128.964 35C128.804 35.16 128.61 35.24 128.384 35.24ZM138.399 35V25.4H139.279V29.56H144.839V25.4H145.719V35H144.839V30.36H139.279V35H138.399ZM155.755 35.24C155.541 35.24 155.341 35.16 155.155 35C154.981 34.84 154.895 34.62 154.895 34.34C154.895 34.0467 154.981 33.82 155.155 33.66C155.341 33.5 155.541 33.42 155.755 33.42C155.981 33.42 156.175 33.5 156.335 33.66C156.508 33.82 156.595 34.0467 156.595 34.34C156.595 34.62 156.508 34.84 156.335 35C156.175 35.16 155.981 35.24 155.755 35.24ZM167.87 35.24C167.11 35.24 166.456 35.0267 165.91 34.6C165.363 34.1733 165.09 33.5067 165.09 32.6C165.09 31.5333 165.59 30.7267 166.59 30.18C167.59 29.62 169.156 29.22 171.29 28.98C171.303 28.4867 171.25 28.0133 171.13 27.56C171.01 27.0933 170.783 26.7067 170.45 26.4C170.13 26.0933 169.65 25.94 169.01 25.94C168.37 25.94 167.783 26.0667 167.25 26.32C166.716 26.5733 166.283 26.82 165.95 27.06L165.55 26.4C165.776 26.24 166.07 26.0667 166.43 25.88C166.79 25.68 167.196 25.5133 167.65 25.38C168.116 25.2333 168.61 25.16 169.13 25.16C169.89 25.16 170.49 25.3267 170.93 25.66C171.37 25.9933 171.683 26.44 171.87 27C172.07 27.5467 172.17 28.1667 172.17 28.86V35H171.41L171.33 33.76H171.27C170.776 34.1467 170.243 34.4933 169.67 34.8C169.096 35.0933 168.496 35.24 167.87 35.24ZM168.03 34.48C168.576 34.48 169.103 34.3467 169.61 34.08C170.13 33.8133 170.69 33.4267 171.29 32.92V29.66C169.97 29.82 168.923 30.0267 168.15 30.28C167.376 30.5333 166.823 30.8533 166.49 31.24C166.156 31.6133 165.99 32.0533 165.99 32.56C165.99 33.2533 166.19 33.7467 166.59 34.04C167.003 34.3333 167.483 34.48 168.03 34.48ZM200.722 35.24C200.455 35.24 200.222 35.1933 200.022 35.1L200.222 34.26C200.288 34.2733 200.348 34.2933 200.402 34.32C200.468 34.3333 200.548 34.34 200.642 34.34C201.415 34.34 201.888 33.54 202.062 31.94C202.195 30.8467 202.328 29.76 202.462 28.68C202.595 27.5867 202.722 26.4933 202.842 25.4H208.022V35H207.142V26.16H203.562C203.442 27.16 203.322 28.1533 203.202 29.14C203.082 30.1267 202.968 31.12 202.862 32.12C202.608 34.2 201.895 35.24 200.722 35.24Z" fill="white"/>
<defs>
<filter id="filter0_f_343_21" x="0" y="0" width="246" height="60" filterUnits="userSpaceOnUse" color-interpolation-filters="sRGB">
<feFlood flood-opacity="0" result="BackgroundImageFix"/>
<feBlend mode="normal" in="SourceGraphic" in2="BackgroundImageFix" result="shape"/>
<feGaussianBlur stdDeviation="7.5" result="effect1_foregroundBlur_343_21"/>
</filter>
</defs>
</svg>
