<svg width="503" height="503" viewBox="0 0 503 503" fill="none" xmlns="http://www.w3.org/2000/svg">
<path d="M247 426.5C150.071 426.5 71.5 348.371 71.5 252C71.5 155.629 150.071 77.5 247 77.5C343.929 77.5 422.5 155.629 422.5 252C422.5 348.371 343.929 426.5 247 426.5Z" stroke="white"/>
<path d="M246.5 441.5C141.011 441.5 55.5 356.432 55.5 251.5C55.5 146.568 141.011 61.5 246.5 61.5C351.989 61.5 437.5 146.568 437.5 251.5C437.5 356.432 351.989 441.5 246.5 441.5Z" stroke="white"/>
<path d="M252 314.5C216.926 314.5 188.5 286.29 188.5 251.5C188.5 216.71 216.926 188.5 252 188.5C287.074 188.5 315.5 216.71 315.5 251.5C315.5 286.29 287.074 314.5 252 314.5Z" stroke="white"/>
<path d="M247 305.5C198.43 305.5 154.476 300.186 122.679 291.605C106.778 287.313 93.9452 282.212 85.0999 276.568C76.231 270.909 71.5 264.791 71.5 258.5C71.5 252.209 76.231 246.091 85.0999 240.432C93.9452 234.788 106.778 229.687 122.679 225.395C154.476 216.814 198.43 211.5 247 211.5C295.57 211.5 339.524 216.814 371.321 225.395C387.222 229.687 400.055 234.788 408.9 240.432C417.769 246.091 422.5 252.209 422.5 258.5C422.5 264.791 417.769 270.909 408.9 276.568C400.055 282.212 387.222 287.313 371.321 291.605C339.524 300.186 295.57 305.5 247 305.5Z" stroke="white"/>
<path d="M252.5 263.5C239.138 263.5 227.058 262.048 218.335 259.709C213.969 258.539 210.473 257.155 208.079 255.638C205.661 254.106 204.5 252.526 204.5 251C204.5 249.474 205.661 247.894 208.079 246.362C210.473 244.845 213.969 243.461 218.335 242.291C227.058 239.952 239.138 238.5 252.5 238.5C265.862 238.5 277.942 239.952 286.665 242.291C291.031 243.461 294.527 244.845 296.921 246.362C299.339 247.894 300.5 249.474 300.5 251C300.5 252.526 299.339 254.106 296.921 255.638C294.527 257.155 291.031 258.539 286.665 259.709C277.942 262.048 265.862 263.5 252.5 263.5Z" stroke="white"/>
<line x1="251.5" y1="-0.00198803" x2="253.5" y2="502.998" stroke="white"/>
<line x1="251.67" y1="251.185" x2="194.67" y2="303.185" stroke="white" stroke-width="0.5"/>
<line y1="251" x2="503.004" y2="251" stroke="white"/>
<line x1="235.5" y1="51.0227" x2="235.5" y2="29" stroke="white"/>
<line x1="269.5" y1="51.0227" x2="269.5" y2="29" stroke="white"/>
<line x1="470.022" y1="266" x2="448" y2="266" stroke="white"/>
<line x1="470.034" y1="231.5" x2="448.011" y2="231.5" stroke="white"/>
<line x1="235.5" y1="474.023" x2="235.5" y2="452" stroke="white"/>
<line x1="270" y1="474.034" x2="270" y2="452.011" stroke="white"/>
<line x1="45.0225" y1="270" x2="22.9997" y2="270" stroke="white"/>
<line x1="45.0342" y1="235.5" x2="23.0115" y2="235.5" stroke="white"/>
<g filter="url(#filter0_f_335_18)">
<ellipse cx="253" cy="257.5" rx="40.5" ry="41" transform="rotate(90 253 257.5)" fill="white"/>
</g>
<defs>
<filter id="filter0_f_335_18" x="155" y="160" width="196" height="195" filterUnits="userSpaceOnUse" color-interpolation-filters="sRGB">
<feFlood flood-opacity="0" result="BackgroundImageFix"/>
<feBlend mode="normal" in="SourceGraphic" in2="BackgroundImageFix" result="shape"/>
<feGaussianBlur stdDeviation="28.5" result="effect1_foregroundBlur_335_18"/>
</filter>
</defs>
</svg>
