<svg width="575" height="284" viewBox="0 0 575 284" fill="none" xmlns="http://www.w3.org/2000/svg">
<path d="M321.331 230.696C242.726 260.932 167.736 278.302 110.046 281.953C81.1974 283.779 56.7043 282.172 38.2572 277.047C19.7986 271.919 7.49535 263.3 2.83363 251.181C-1.82809 239.061 1.52755 224.419 11.7911 208.243C22.0483 192.076 39.1507 174.47 61.7859 156.492C107.051 120.54 174.351 83.177 252.956 52.941C331.561 22.7049 406.551 5.33501 464.241 1.68401C493.089 -0.141679 517.582 1.46513 536.03 6.5902C554.488 11.7184 566.791 20.3373 571.453 32.4564C576.115 44.5755 572.759 59.2178 562.496 75.3942C552.238 91.5606 535.136 109.167 512.501 127.145C467.235 163.097 399.936 200.46 321.331 230.696Z" stroke="white"/>
</svg>
