<svg width="500" height="1080" viewBox="0 0 500 1080" fill="none" xmlns="http://www.w3.org/2000/svg">
<line y1="209.5" x2="499" y2="209.5" stroke="white"/>
<line y1="198.5" x2="499" y2="198.5" stroke="white"/>
<line y1="379.5" x2="499" y2="379.5" stroke="white"/>
<line y1="465.5" x2="499" y2="465.5" stroke="white"/>
<line x1="6.5" y1="180" x2="6.49999" y2="433" stroke="white"/>
<line x1="108.5" y1="180" x2="108.5" y2="433" stroke="white"/>
<line x1="143.497" y1="507.003" x2="143.497" y2="179.997" stroke="white"/>
<line x1="435" y1="433.014" x2="435" y2="-0.0144348" stroke="white"/>
<path d="M495.711 277.69C495.919 279.336 494.794 281.261 492.062 283.443C489.361 285.6 485.232 287.891 479.796 290.274C468.931 295.038 452.954 300.12 433.031 305.215C393.193 315.405 337.654 325.632 275.859 333.476C214.064 341.32 157.731 345.295 116.61 345.383C96.0463 345.426 79.3063 344.497 67.5954 342.6C61.7361 341.651 57.1659 340.463 54.0121 339.05C50.8215 337.62 49.2505 336.037 49.0416 334.391C48.8327 332.746 49.9584 330.821 52.6905 328.639C55.3911 326.482 59.5197 324.191 64.956 321.807C75.8213 317.044 91.7984 311.962 111.721 306.866C151.559 296.677 207.098 286.45 268.893 278.606C330.689 270.761 387.022 266.787 428.142 266.699C448.706 266.656 465.446 267.584 477.157 269.482C483.016 270.431 487.586 271.618 490.74 273.032C493.931 274.462 495.502 276.045 495.711 277.69Z" stroke="white"/>
<line x1="192.5" y1="466.001" x2="189.5" y2="1509" stroke="white"/>
</svg>
