<svg width="614" height="111" viewBox="0 0 614 111" fill="none" xmlns="http://www.w3.org/2000/svg">
<path d="M6.72 89.608C6.112 89.608 5.52 89.496 4.944 89.272C4.368 89.016 3.856 88.664 3.408 88.216C2.96 87.736 2.592 87.176 2.304 86.536C2.048 85.896 1.92 85.16 1.92 84.328C1.92 83.528 2.048 82.808 2.304 82.168C2.592 81.496 2.96 80.936 3.408 80.488C3.856 80.04 4.368 79.688 4.944 79.432C5.52 79.176 6.112 79.048 6.72 79.048C7.328 79.048 7.92 79.176 8.496 79.432C9.104 79.688 9.632 80.04 10.08 80.488C10.528 80.936 10.88 81.496 11.136 82.168C11.424 82.808 11.568 83.528 11.568 84.328C11.568 85.16 11.424 85.896 11.136 86.536C10.88 87.176 10.528 87.736 10.08 88.216C9.632 88.664 9.104 89.016 8.496 89.272C7.92 89.496 7.328 89.608 6.72 89.608ZM34.62 89.608C34.012 89.608 33.42 89.496 32.844 89.272C32.268 89.016 31.756 88.664 31.308 88.216C30.86 87.736 30.492 87.176 30.204 86.536C29.948 85.896 29.82 85.16 29.82 84.328C29.82 83.528 29.948 82.808 30.204 82.168C30.492 81.496 30.86 80.936 31.308 80.488C31.756 80.04 32.268 79.688 32.844 79.432C33.42 79.176 34.012 79.048 34.62 79.048C35.228 79.048 35.82 79.176 36.396 79.432C37.004 79.688 37.532 80.04 37.98 80.488C38.428 80.936 38.78 81.496 39.036 82.168C39.324 82.808 39.468 83.528 39.468 84.328C39.468 85.16 39.324 85.896 39.036 86.536C38.78 87.176 38.428 87.736 37.98 88.216C37.532 88.664 37.004 89.016 36.396 89.272C35.82 89.496 35.228 89.608 34.62 89.608ZM62.52 89.608C61.912 89.608 61.32 89.496 60.744 89.272C60.168 89.016 59.656 88.664 59.208 88.216C58.76 87.736 58.392 87.176 58.104 86.536C57.848 85.896 57.72 85.16 57.72 84.328C57.72 83.528 57.848 82.808 58.104 82.168C58.392 81.496 58.76 80.936 59.208 80.488C59.656 80.04 60.168 79.688 60.744 79.432C61.32 79.176 61.912 79.048 62.52 79.048C63.128 79.048 63.72 79.176 64.296 79.432C64.904 79.688 65.432 80.04 65.88 80.488C66.328 80.936 66.68 81.496 66.936 82.168C67.224 82.808 67.368 83.528 67.368 84.328C67.368 85.16 67.224 85.896 66.936 86.536C66.68 87.176 66.328 87.736 65.88 88.216C65.432 88.664 64.904 89.016 64.296 89.272C63.72 89.496 63.128 89.608 62.52 89.608ZM114.429 89.608C113.821 89.608 113.229 89.496 112.653 89.272C112.077 89.016 111.565 88.664 111.117 88.216C110.669 87.736 110.301 87.176 110.013 86.536C109.757 85.896 109.629 85.16 109.629 84.328C109.629 83.528 109.757 82.808 110.013 82.168C110.301 81.496 110.669 80.936 111.117 80.488C111.565 80.04 112.077 79.688 112.653 79.432C113.229 79.176 113.821 79.048 114.429 79.048C115.037 79.048 115.629 79.176 116.205 79.432C116.813 79.688 117.341 80.04 117.789 80.488C118.237 80.936 118.589 81.496 118.845 82.168C119.133 82.808 119.277 83.528 119.277 84.328C119.277 85.16 119.133 85.896 118.845 86.536C118.589 87.176 118.237 87.736 117.789 88.216C117.341 88.664 116.813 89.016 116.205 89.272C115.629 89.496 115.037 89.608 114.429 89.608ZM142.329 89.608C141.721 89.608 141.129 89.496 140.553 89.272C139.977 89.016 139.465 88.664 139.017 88.216C138.569 87.736 138.201 87.176 137.913 86.536C137.657 85.896 137.529 85.16 137.529 84.328C137.529 83.528 137.657 82.808 137.913 82.168C138.201 81.496 138.569 80.936 139.017 80.488C139.465 80.04 139.977 79.688 140.553 79.432C141.129 79.176 141.721 79.048 142.329 79.048C142.937 79.048 143.529 79.176 144.105 79.432C144.713 79.688 145.241 80.04 145.689 80.488C146.137 80.936 146.489 81.496 146.745 82.168C147.033 82.808 147.177 83.528 147.177 84.328C147.177 85.16 147.033 85.896 146.745 86.536C146.489 87.176 146.137 87.736 145.689 88.216C145.241 88.664 144.713 89.016 144.105 89.272C143.529 89.496 142.937 89.608 142.329 89.608ZM189.151 82.072V80.248H208.879V82.072H189.151ZM226.519 82.072V80.248H246.247V82.072H226.519ZM268.976 89.608C268.368 89.608 267.776 89.496 267.2 89.272C266.624 89.016 266.112 88.664 265.664 88.216C265.216 87.736 264.848 87.176 264.56 86.536C264.304 85.896 264.176 85.16 264.176 84.328C264.176 83.528 264.304 82.808 264.56 82.168C264.848 81.496 265.216 80.936 265.664 80.488C266.112 80.04 266.624 79.688 267.2 79.432C267.776 79.176 268.368 79.048 268.976 79.048C269.584 79.048 270.176 79.176 270.752 79.432C271.36 79.688 271.888 80.04 272.336 80.488C272.784 80.936 273.136 81.496 273.392 82.168C273.68 82.808 273.824 83.528 273.824 84.328C273.824 85.16 273.68 85.896 273.392 86.536C273.136 87.176 272.784 87.736 272.336 88.216C271.888 88.664 271.36 89.016 270.752 89.272C270.176 89.496 269.584 89.608 268.976 89.608ZM315.798 82.072V80.248H335.526V82.072H315.798ZM358.254 89.608C357.646 89.608 357.054 89.496 356.478 89.272C355.902 89.016 355.39 88.664 354.942 88.216C354.494 87.736 354.126 87.176 353.838 86.536C353.582 85.896 353.454 85.16 353.454 84.328C353.454 83.528 353.582 82.808 353.838 82.168C354.126 81.496 354.494 80.936 354.942 80.488C355.39 80.04 355.902 79.688 356.478 79.432C357.054 79.176 357.646 79.048 358.254 79.048C358.862 79.048 359.454 79.176 360.03 79.432C360.638 79.688 361.166 80.04 361.614 80.488C362.062 80.936 362.414 81.496 362.67 82.168C362.958 82.808 363.102 83.528 363.102 84.328C363.102 85.16 362.958 85.896 362.67 86.536C362.414 87.176 362.062 87.736 361.614 88.216C361.166 88.664 360.638 89.016 360.03 89.272C359.454 89.496 358.862 89.608 358.254 89.608ZM410.164 89.608C409.556 89.608 408.964 89.496 408.388 89.272C407.812 89.016 407.3 88.664 406.852 88.216C406.404 87.736 406.036 87.176 405.748 86.536C405.492 85.896 405.364 85.16 405.364 84.328C405.364 83.528 405.492 82.808 405.748 82.168C406.036 81.496 406.404 80.936 406.852 80.488C407.3 80.04 407.812 79.688 408.388 79.432C408.964 79.176 409.556 79.048 410.164 79.048C410.772 79.048 411.364 79.176 411.94 79.432C412.548 79.688 413.076 80.04 413.524 80.488C413.972 80.936 414.324 81.496 414.58 82.168C414.868 82.808 415.012 83.528 415.012 84.328C415.012 85.16 414.868 85.896 414.58 86.536C414.324 87.176 413.972 87.736 413.524 88.216C413.076 88.664 412.548 89.016 411.94 89.272C411.364 89.496 410.772 89.608 410.164 89.608ZM432.976 82.072V80.248H452.704V82.072H432.976ZM499.442 89.608C498.834 89.608 498.242 89.496 497.666 89.272C497.09 89.016 496.578 88.664 496.13 88.216C495.682 87.736 495.314 87.176 495.026 86.536C494.77 85.896 494.642 85.16 494.642 84.328C494.642 83.528 494.77 82.808 495.026 82.168C495.314 81.496 495.682 80.936 496.13 80.488C496.578 80.04 497.09 79.688 497.666 79.432C498.242 79.176 498.834 79.048 499.442 79.048C500.05 79.048 500.642 79.176 501.218 79.432C501.826 79.688 502.354 80.04 502.802 80.488C503.25 80.936 503.602 81.496 503.858 82.168C504.146 82.808 504.29 83.528 504.29 84.328C504.29 85.16 504.146 85.896 503.858 86.536C503.602 87.176 503.25 87.736 502.802 88.216C502.354 88.664 501.826 89.016 501.218 89.272C500.642 89.496 500.05 89.608 499.442 89.608ZM522.254 82.072V80.248H541.982V82.072H522.254ZM564.711 89.608C564.103 89.608 563.511 89.496 562.935 89.272C562.359 89.016 561.847 88.664 561.399 88.216C560.951 87.736 560.583 87.176 560.295 86.536C560.039 85.896 559.911 85.16 559.911 84.328C559.911 83.528 560.039 82.808 560.295 82.168C560.583 81.496 560.951 80.936 561.399 80.488C561.847 80.04 562.359 79.688 562.935 79.432C563.511 79.176 564.103 79.048 564.711 79.048C565.319 79.048 565.911 79.176 566.487 79.432C567.095 79.688 567.623 80.04 568.071 80.488C568.519 80.936 568.871 81.496 569.127 82.168C569.415 82.808 569.559 83.528 569.559 84.328C569.559 85.16 569.415 85.896 569.127 86.536C568.871 87.176 568.519 87.736 568.071 88.216C567.623 88.664 567.095 89.016 566.487 89.272C565.911 89.496 565.319 89.608 564.711 89.608ZM592.611 89.608C592.003 89.608 591.411 89.496 590.835 89.272C590.259 89.016 589.747 88.664 589.299 88.216C588.851 87.736 588.483 87.176 588.195 86.536C587.939 85.896 587.811 85.16 587.811 84.328C587.811 83.528 587.939 82.808 588.195 82.168C588.483 81.496 588.851 80.936 589.299 80.488C589.747 80.04 590.259 79.688 590.835 79.432C591.411 79.176 592.003 79.048 592.611 79.048C593.219 79.048 593.811 79.176 594.387 79.432C594.995 79.688 595.523 80.04 595.971 80.488C596.419 80.936 596.771 81.496 597.027 82.168C597.315 82.808 597.459 83.528 597.459 84.328C597.459 85.16 597.315 85.896 597.027 86.536C596.771 87.176 596.419 87.736 595.971 88.216C595.523 88.664 594.995 89.016 594.387 89.272C593.811 89.496 593.219 89.608 592.611 89.608Z" fill="white"/>
<line x1="5.5" y1="2.18557e-08" x2="5.5" y2="50" stroke="white"/>
</svg>
