<svg width="244" height="223" viewBox="0 0 244 223" fill="none" xmlns="http://www.w3.org/2000/svg">
<path d="M14.34 210.24C13.58 210.24 12.8733 210.047 12.22 209.66C11.5667 209.26 11.04 208.687 10.64 207.94C10.24 207.18 10.04 206.273 10.04 205.22C10.04 204.14 10.24 203.227 10.64 202.48C11.04 201.72 11.5667 201.147 12.22 200.76C12.8733 200.36 13.58 200.16 14.34 200.16C15.1133 200.16 15.8267 200.36 16.48 200.76C17.1333 201.147 17.66 201.72 18.06 202.48C18.46 203.227 18.66 204.14 18.66 205.22C18.66 206.273 18.46 207.18 18.06 207.94C17.66 208.687 17.1333 209.26 16.48 209.66C15.8267 210.047 15.1133 210.24 14.34 210.24ZM14.34 209.46C14.9933 209.46 15.5733 209.28 16.08 208.92C16.5867 208.56 16.9867 208.067 17.28 207.44C17.5867 206.8 17.74 206.06 17.74 205.22C17.74 204.367 17.5867 203.62 17.28 202.98C16.9867 202.34 16.5867 201.84 16.08 201.48C15.5733 201.12 14.9933 200.94 14.34 200.94C13.7 200.94 13.12 201.12 12.6 201.48C12.0933 201.84 11.6933 202.34 11.4 202.98C11.1067 203.62 10.96 204.367 10.96 205.22C10.96 206.06 11.1067 206.8 11.4 207.44C11.6933 208.067 12.0933 208.56 12.6 208.92C13.12 209.28 13.7 209.46 14.34 209.46ZM31.3031 210.24C30.8498 210.24 30.3698 210.133 29.8631 209.92C29.3565 209.693 28.8765 209.393 28.4231 209.02H28.3831L28.2831 210H27.5431V195.62H28.4231V199.78L28.3831 201.66C28.8765 201.247 29.4031 200.893 29.9631 200.6C30.5365 200.307 31.1165 200.16 31.7031 200.16C32.9831 200.16 33.9431 200.607 34.5831 201.5C35.2231 202.38 35.5431 203.567 35.5431 205.06C35.5431 206.14 35.3431 207.067 34.9431 207.84C34.5565 208.613 34.0431 209.207 33.4031 209.62C32.7631 210.033 32.0631 210.24 31.3031 210.24ZM31.2631 209.46C31.9165 209.46 32.4898 209.273 32.9831 208.9C33.4898 208.527 33.8831 208.013 34.1631 207.36C34.4565 206.693 34.6031 205.927 34.6031 205.06C34.6031 204.273 34.5031 203.573 34.3031 202.96C34.1031 202.333 33.7765 201.84 33.3231 201.48C32.8831 201.12 32.2965 200.94 31.5631 200.94C31.0831 200.94 30.5831 201.08 30.0631 201.36C29.5431 201.627 28.9965 202.013 28.4231 202.52V208.22C28.9565 208.673 29.4698 208.993 29.9631 209.18C30.4565 209.367 30.8898 209.46 31.2631 209.46ZM43.123 214.58C42.8963 214.58 42.6696 214.553 42.443 214.5C42.2163 214.447 42.0296 214.393 41.883 214.34L42.103 213.62C42.223 213.66 42.3696 213.7 42.543 213.74C42.7296 213.793 42.9163 213.82 43.103 213.82C43.6496 213.82 43.9963 213.62 44.143 213.22C44.303 212.833 44.383 212.333 44.383 211.72V200.4H45.283V211.78C45.283 213.647 44.563 214.58 43.123 214.58ZM44.823 198.08C44.6096 198.08 44.4296 198.007 44.283 197.86C44.1363 197.713 44.063 197.513 44.063 197.26C44.063 197.033 44.1363 196.847 44.283 196.7C44.4296 196.553 44.6096 196.48 44.823 196.48C45.0496 196.48 45.2296 196.553 45.363 196.7C45.5096 196.847 45.583 197.033 45.583 197.26C45.583 197.513 45.5096 197.713 45.363 197.86C45.2296 198.007 45.0496 198.08 44.823 198.08ZM58.5933 210.24C57.7799 210.24 57.0333 210.04 56.3533 209.64C55.6866 209.24 55.1533 208.667 54.7533 207.92C54.3533 207.16 54.1533 206.26 54.1533 205.22C54.1533 204.167 54.3533 203.267 54.7533 202.52C55.1533 201.76 55.6733 201.18 56.3133 200.78C56.9533 200.367 57.6266 200.16 58.3333 200.16C59.4799 200.16 60.3799 200.547 61.0333 201.32C61.6866 202.093 62.0133 203.187 62.0133 204.6C62.0133 204.72 62.0066 204.84 61.9933 204.96C61.9933 205.08 61.9799 205.2 61.9533 205.32H55.0533C55.0666 206.12 55.2199 206.833 55.5133 207.46C55.8199 208.087 56.2399 208.58 56.7733 208.94C57.3199 209.3 57.9533 209.48 58.6733 209.48C59.1933 209.48 59.6599 209.4 60.0733 209.24C60.4999 209.08 60.8933 208.873 61.2533 208.62L61.6133 209.3C61.2399 209.527 60.8199 209.74 60.3533 209.94C59.8866 210.14 59.2999 210.24 58.5933 210.24ZM55.0533 204.6H61.1733C61.1733 203.373 60.9199 202.453 60.4133 201.84C59.9066 201.227 59.2199 200.92 58.3533 200.92C57.8066 200.92 57.2933 201.067 56.8133 201.36C56.3466 201.653 55.9533 202.073 55.6333 202.62C55.3133 203.167 55.1199 203.827 55.0533 204.6ZM74.1813 210.24C73.3546 210.24 72.6079 210.047 71.9413 209.66C71.2879 209.26 70.7679 208.687 70.3813 207.94C70.0079 207.18 69.8213 206.273 69.8213 205.22C69.8213 204.14 70.0213 203.227 70.4213 202.48C70.8346 201.72 71.3746 201.147 72.0413 200.76C72.7079 200.36 73.4279 200.16 74.2013 200.16C74.8679 200.16 75.4213 200.28 75.8613 200.52C76.3013 200.76 76.6879 201.033 77.0213 201.34L76.5013 201.96C76.1946 201.667 75.8546 201.427 75.4813 201.24C75.1079 201.04 74.6879 200.94 74.2213 200.94C73.5679 200.94 72.9746 201.12 72.4413 201.48C71.9213 201.84 71.5079 202.34 71.2013 202.98C70.8946 203.62 70.7413 204.367 70.7413 205.22C70.7413 206.06 70.8813 206.8 71.1613 207.44C71.4546 208.067 71.8613 208.56 72.3813 208.92C72.9146 209.28 73.5279 209.46 74.2213 209.46C74.7279 209.46 75.1946 209.353 75.6213 209.14C76.0613 208.913 76.4479 208.653 76.7813 208.36L77.2413 208.98C76.8279 209.34 76.3679 209.64 75.8613 209.88C75.3546 210.12 74.7946 210.24 74.1813 210.24ZM88.0303 210.24C87.097 210.24 86.4636 209.973 86.1303 209.44C85.797 208.893 85.6303 208.193 85.6303 207.34V201.16H84.1303V200.48L85.6503 200.4L85.7703 197.62H86.5303V200.4H89.3103V201.16H86.5303V207.42C86.5303 208.033 86.637 208.527 86.8503 208.9C87.0636 209.273 87.497 209.46 88.1503 209.46C88.337 209.46 88.537 209.433 88.7503 209.38C88.977 209.313 89.177 209.24 89.3503 209.16L89.5903 209.88C89.3103 209.973 89.0236 210.053 88.7303 210.12C88.4503 210.2 88.217 210.24 88.0303 210.24ZM97.5408 210.24C97.4341 210.24 97.3341 210.227 97.2408 210.2L97.1408 209.46C97.3274 209.46 97.4741 209.4 97.5808 209.28C97.7008 209.16 97.7608 208.953 97.7608 208.66V197.22H98.7808C99.4341 198.593 100.074 199.967 100.701 201.34C101.341 202.713 101.967 204.093 102.581 205.48L104.041 208.76H104.121C104.081 207.893 104.047 207.127 104.021 206.46C104.007 205.793 104.001 205.147 104.001 204.52C104.001 203.893 104.001 203.207 104.001 202.46V198.56C104.001 197.507 104.354 196.98 105.061 196.98C105.181 196.98 105.287 196.993 105.381 197.02L105.481 197.76C105.281 197.76 105.127 197.82 105.021 197.94C104.914 198.047 104.861 198.253 104.861 198.56V210H103.821C103.181 208.613 102.547 207.233 101.921 205.86C101.294 204.487 100.667 203.1 100.041 201.7L98.5608 198.44H98.4808C98.5341 199.307 98.5674 200.08 98.5808 200.76C98.5941 201.427 98.6008 202.073 98.6008 202.7C98.6008 203.327 98.6008 204.013 98.6008 204.76V208.66C98.6008 209.713 98.2474 210.24 97.5408 210.24ZM109.621 204.4C109.087 204.4 108.594 204.273 108.141 204.02C107.701 203.767 107.347 203.407 107.081 202.94C106.814 202.46 106.681 201.893 106.681 201.24C106.681 200.227 106.967 199.453 107.541 198.92C108.114 198.373 108.807 198.1 109.621 198.1C110.434 198.1 111.127 198.373 111.701 198.92C112.274 199.453 112.561 200.227 112.561 201.24C112.561 201.893 112.427 202.46 112.161 202.94C111.894 203.407 111.541 203.767 111.101 204.02C110.661 204.273 110.167 204.4 109.621 204.4ZM109.621 203.72C110.261 203.72 110.774 203.493 111.161 203.04C111.547 202.573 111.741 201.973 111.741 201.24C111.741 200.493 111.547 199.9 111.161 199.46C110.774 199.007 110.261 198.78 109.621 198.78C108.981 198.78 108.467 199.007 108.081 199.46C107.694 199.9 107.501 200.493 107.501 201.24C107.501 201.973 107.694 202.573 108.081 203.04C108.467 203.493 108.981 203.72 109.621 203.72ZM107.161 206.76V206.08H112.081V206.76H107.161ZM122.033 206.42C121.94 205.753 121.973 205.167 122.133 204.66C122.307 204.14 122.54 203.673 122.833 203.26C123.14 202.833 123.447 202.427 123.753 202.04C124.073 201.64 124.34 201.24 124.553 200.84C124.78 200.427 124.893 199.973 124.893 199.48C124.893 198.853 124.713 198.307 124.353 197.84C123.993 197.373 123.42 197.14 122.633 197.14C121.607 197.14 120.747 197.567 120.053 198.42L119.513 197.92C119.9 197.48 120.353 197.113 120.873 196.82C121.407 196.513 122.02 196.36 122.713 196.36C123.687 196.36 124.447 196.653 124.993 197.24C125.54 197.827 125.813 198.553 125.813 199.42C125.813 199.967 125.7 200.467 125.473 200.92C125.247 201.36 124.973 201.78 124.653 202.18C124.333 202.58 124.02 202.993 123.713 203.42C123.407 203.833 123.16 204.287 122.973 204.78C122.8 205.26 122.753 205.807 122.833 206.42H122.033ZM122.493 210.24C122.28 210.24 122.087 210.16 121.913 210C121.74 209.84 121.653 209.62 121.653 209.34C121.653 209.047 121.74 208.82 121.913 208.66C122.087 208.5 122.28 208.42 122.493 208.42C122.72 208.42 122.92 208.5 123.093 208.66C123.267 208.82 123.353 209.047 123.353 209.34C123.353 209.62 123.267 209.84 123.093 210C122.92 210.16 122.72 210.24 122.493 210.24ZM136.08 206.42C135.987 205.753 136.02 205.167 136.18 204.66C136.354 204.14 136.587 203.673 136.88 203.26C137.187 202.833 137.494 202.427 137.8 202.04C138.12 201.64 138.387 201.24 138.6 200.84C138.827 200.427 138.94 199.973 138.94 199.48C138.94 198.853 138.76 198.307 138.4 197.84C138.04 197.373 137.467 197.14 136.68 197.14C135.654 197.14 134.794 197.567 134.1 198.42L133.56 197.92C133.947 197.48 134.4 197.113 134.92 196.82C135.454 196.513 136.067 196.36 136.76 196.36C137.734 196.36 138.494 196.653 139.04 197.24C139.587 197.827 139.86 198.553 139.86 199.42C139.86 199.967 139.747 200.467 139.52 200.92C139.294 201.36 139.02 201.78 138.7 202.18C138.38 202.58 138.067 202.993 137.76 203.42C137.454 203.833 137.207 204.287 137.02 204.78C136.847 205.26 136.8 205.807 136.88 206.42H136.08ZM136.54 210.24C136.327 210.24 136.134 210.16 135.96 210C135.787 209.84 135.7 209.62 135.7 209.34C135.7 209.047 135.787 208.82 135.96 208.66C136.134 208.5 136.327 208.42 136.54 208.42C136.767 208.42 136.967 208.5 137.14 208.66C137.314 208.82 137.4 209.047 137.4 209.34C137.4 209.62 137.314 209.84 137.14 210C136.967 210.16 136.767 210.24 136.54 210.24ZM150.127 206.42C150.034 205.753 150.067 205.167 150.227 204.66C150.401 204.14 150.634 203.673 150.927 203.26C151.234 202.833 151.541 202.427 151.847 202.04C152.167 201.64 152.434 201.24 152.647 200.84C152.874 200.427 152.987 199.973 152.987 199.48C152.987 198.853 152.807 198.307 152.447 197.84C152.087 197.373 151.514 197.14 150.727 197.14C149.701 197.14 148.841 197.567 148.147 198.42L147.607 197.92C147.994 197.48 148.447 197.113 148.967 196.82C149.501 196.513 150.114 196.36 150.807 196.36C151.781 196.36 152.541 196.653 153.087 197.24C153.634 197.827 153.907 198.553 153.907 199.42C153.907 199.967 153.794 200.467 153.567 200.92C153.341 201.36 153.067 201.78 152.747 202.18C152.427 202.58 152.114 202.993 151.807 203.42C151.501 203.833 151.254 204.287 151.067 204.78C150.894 205.26 150.847 205.807 150.927 206.42H150.127ZM150.587 210.24C150.374 210.24 150.181 210.16 150.007 210C149.834 209.84 149.747 209.62 149.747 209.34C149.747 209.047 149.834 208.82 150.007 208.66C150.181 208.5 150.374 208.42 150.587 208.42C150.814 208.42 151.014 208.5 151.187 208.66C151.361 208.82 151.447 209.047 151.447 209.34C151.447 209.62 151.361 209.84 151.187 210C151.014 210.16 150.814 210.24 150.587 210.24ZM164.174 206.42C164.081 205.753 164.114 205.167 164.274 204.66C164.447 204.14 164.681 203.673 164.974 203.26C165.281 202.833 165.587 202.427 165.894 202.04C166.214 201.64 166.481 201.24 166.694 200.84C166.921 200.427 167.034 199.973 167.034 199.48C167.034 198.853 166.854 198.307 166.494 197.84C166.134 197.373 165.561 197.14 164.774 197.14C163.747 197.14 162.887 197.567 162.194 198.42L161.654 197.92C162.041 197.48 162.494 197.113 163.014 196.82C163.547 196.513 164.161 196.36 164.854 196.36C165.827 196.36 166.587 196.653 167.134 197.24C167.681 197.827 167.954 198.553 167.954 199.42C167.954 199.967 167.841 200.467 167.614 200.92C167.387 201.36 167.114 201.78 166.794 202.18C166.474 202.58 166.161 202.993 165.854 203.42C165.547 203.833 165.301 204.287 165.114 204.78C164.941 205.26 164.894 205.807 164.974 206.42H164.174ZM164.634 210.24C164.421 210.24 164.227 210.16 164.054 210C163.881 209.84 163.794 209.62 163.794 209.34C163.794 209.047 163.881 208.82 164.054 208.66C164.227 208.5 164.421 208.42 164.634 208.42C164.861 208.42 165.061 208.5 165.234 208.66C165.407 208.82 165.494 209.047 165.494 209.34C165.494 209.62 165.407 209.84 165.234 210C165.061 210.16 164.861 210.24 164.634 210.24ZM178.221 206.42C178.128 205.753 178.161 205.167 178.321 204.66C178.494 204.14 178.728 203.673 179.021 203.26C179.328 202.833 179.634 202.427 179.941 202.04C180.261 201.64 180.528 201.24 180.741 200.84C180.968 200.427 181.081 199.973 181.081 199.48C181.081 198.853 180.901 198.307 180.541 197.84C180.181 197.373 179.608 197.14 178.821 197.14C177.794 197.14 176.934 197.567 176.241 198.42L175.701 197.92C176.088 197.48 176.541 197.113 177.061 196.82C177.594 196.513 178.208 196.36 178.901 196.36C179.874 196.36 180.634 196.653 181.181 197.24C181.728 197.827 182.001 198.553 182.001 199.42C182.001 199.967 181.888 200.467 181.661 200.92C181.434 201.36 181.161 201.78 180.841 202.18C180.521 202.58 180.208 202.993 179.901 203.42C179.594 203.833 179.348 204.287 179.161 204.78C178.988 205.26 178.941 205.807 179.021 206.42H178.221ZM178.681 210.24C178.468 210.24 178.274 210.16 178.101 210C177.928 209.84 177.841 209.62 177.841 209.34C177.841 209.047 177.928 208.82 178.101 208.66C178.274 208.5 178.468 208.42 178.681 208.42C178.908 208.42 179.108 208.5 179.281 208.66C179.454 208.82 179.541 209.047 179.541 209.34C179.541 209.62 179.454 209.84 179.281 210C179.108 210.16 178.908 210.24 178.681 210.24ZM192.268 206.42C192.174 205.753 192.208 205.167 192.368 204.66C192.541 204.14 192.774 203.673 193.068 203.26C193.374 202.833 193.681 202.427 193.988 202.04C194.308 201.64 194.574 201.24 194.788 200.84C195.014 200.427 195.128 199.973 195.128 199.48C195.128 198.853 194.948 198.307 194.588 197.84C194.228 197.373 193.654 197.14 192.868 197.14C191.841 197.14 190.981 197.567 190.288 198.42L189.748 197.92C190.134 197.48 190.588 197.113 191.108 196.82C191.641 196.513 192.254 196.36 192.948 196.36C193.921 196.36 194.681 196.653 195.228 197.24C195.774 197.827 196.048 198.553 196.048 199.42C196.048 199.967 195.934 200.467 195.708 200.92C195.481 201.36 195.208 201.78 194.888 202.18C194.568 202.58 194.254 202.993 193.948 203.42C193.641 203.833 193.394 204.287 193.208 204.78C193.034 205.26 192.988 205.807 193.068 206.42H192.268ZM192.728 210.24C192.514 210.24 192.321 210.16 192.148 210C191.974 209.84 191.888 209.62 191.888 209.34C191.888 209.047 191.974 208.82 192.148 208.66C192.321 208.5 192.514 208.42 192.728 208.42C192.954 208.42 193.154 208.5 193.328 208.66C193.501 208.82 193.588 209.047 193.588 209.34C193.588 209.62 193.501 209.84 193.328 210C193.154 210.16 192.954 210.24 192.728 210.24ZM206.315 206.42C206.221 205.753 206.255 205.167 206.415 204.66C206.588 204.14 206.821 203.673 207.115 203.26C207.421 202.833 207.728 202.427 208.035 202.04C208.355 201.64 208.621 201.24 208.835 200.84C209.061 200.427 209.175 199.973 209.175 199.48C209.175 198.853 208.995 198.307 208.635 197.84C208.275 197.373 207.701 197.14 206.915 197.14C205.888 197.14 205.028 197.567 204.335 198.42L203.795 197.92C204.181 197.48 204.635 197.113 205.155 196.82C205.688 196.513 206.301 196.36 206.995 196.36C207.968 196.36 208.728 196.653 209.275 197.24C209.821 197.827 210.095 198.553 210.095 199.42C210.095 199.967 209.981 200.467 209.755 200.92C209.528 201.36 209.255 201.78 208.935 202.18C208.615 202.58 208.301 202.993 207.995 203.42C207.688 203.833 207.441 204.287 207.255 204.78C207.081 205.26 207.035 205.807 207.115 206.42H206.315ZM206.775 210.24C206.561 210.24 206.368 210.16 206.195 210C206.021 209.84 205.935 209.62 205.935 209.34C205.935 209.047 206.021 208.82 206.195 208.66C206.368 208.5 206.561 208.42 206.775 208.42C207.001 208.42 207.201 208.5 207.375 208.66C207.548 208.82 207.635 209.047 207.635 209.34C207.635 209.62 207.548 209.84 207.375 210C207.201 210.16 207.001 210.24 206.775 210.24Z" fill="white"/>
<rect x="0.5" y="0.5" width="222" height="222" stroke="white"/>
</svg>
