<svg width="512" height="401" viewBox="0 0 512 401" fill="none" xmlns="http://www.w3.org/2000/svg">
<line x1="285.193" y1="41.1732" x2="235.263" y2="41.1732" stroke="white" stroke-opacity="0.94"/>
<line y1="-0.5" x2="49.93" y2="-0.5" transform="matrix(1 8.74228e-08 8.74228e-08 -1 46 41.0018)" stroke="white" stroke-opacity="0.94"/>
<line y1="-0.5" x2="49.93" y2="-0.5" transform="matrix(1 8.74228e-08 8.74228e-08 -1 103.974 40.6732)" stroke="white" stroke-opacity="0.94"/>
<line x1="230.459" y1="41.1732" x2="180.529" y2="41.1732" stroke="white" stroke-opacity="0.94"/>
<line y1="-0.5" x2="24.7948" y2="-0.5" transform="matrix(-0.325241 -0.945631 0.337663 -0.941267 235.777 41.1617)" stroke="white" stroke-opacity="0.94"/>
<line y1="-0.5" x2="24.7948" y2="-0.5" transform="matrix(0.325241 -0.945631 -0.337663 -0.941267 153.389 41.1617)" stroke="white" stroke-opacity="0.94"/>
<line y1="-0.5" x2="24.7948" y2="-0.5" transform="matrix(-0.325241 -0.945631 0.337663 -0.941267 181.043 41.1617)" stroke="white" stroke-opacity="0.94"/>
<line x1="227.713" y1="18.2151" x2="216.186" y2="18.2151" stroke="white" stroke-opacity="0.94"/>
<line x1="-2" y1="41.5018" x2="39.85" y2="41.5018" stroke="white" stroke-opacity="0.94"/>
<line y1="-0.5" x2="11.5266" y2="-0.5" transform="matrix(1 8.74228e-08 8.74228e-08 -1 161.452 17.7151)" stroke="white" stroke-opacity="0.94"/>
<path d="M511 82.4995L312 82.5001" stroke="white" stroke-opacity="0.94"/>
<line x1="312.733" y1="82.3618" x2="281.668" y2="59.3612" stroke="white" stroke-opacity="0.94" stroke-width="0.9"/>
<line y1="-0.5" x2="46" y2="-0.5" transform="matrix(1 8.74228e-08 8.74228e-08 -1 236 58.9995)" stroke="white" stroke-opacity="0.94"/>
<line x1="511.001" y1="172.5" x2="353.001" y2="172.5" stroke="white" stroke-opacity="0.94"/>
<line y1="-0.5" x2="34.7095" y2="-0.5" transform="matrix(-0.737348 -0.675513 0.751323 -0.659935 354.175 172.447)" stroke="white" stroke-opacity="0.94"/>
<line y1="-0.5" x2="36" y2="-0.5" transform="matrix(1 1.0339e-07 7.39212e-08 -1 292.001 149)" stroke="white" stroke-opacity="0.94"/>
<line x1="510.99" y1="42.4994" x2="471.217" y2="41.7073" stroke="white" stroke-opacity="0.94"/>
<line y1="-0.5" x2="49.93" y2="-0.5" transform="matrix(1 8.74228e-08 8.74228e-08 -1 285.162 40.6733)" stroke="white" stroke-opacity="0.94"/>
<line y1="-0.5" x2="49.93" y2="-0.5" transform="matrix(1 8.74228e-08 8.74228e-08 -1 339.896 41.1617)" stroke="white" stroke-opacity="0.94"/>
<line x1="466.382" y1="41.6617" x2="416.452" y2="41.6617" stroke="white" stroke-opacity="0.94"/>
<line y1="-0.5" x2="24.7948" y2="-0.5" transform="matrix(0.325241 -0.945631 -0.337663 -0.941267 334.577 41.1617)" stroke="white" stroke-opacity="0.94"/>
<line y1="-0.5" x2="24.7948" y2="-0.5" transform="matrix(0.325241 -0.945631 -0.337663 -0.941267 389.312 41.6501)" stroke="white" stroke-opacity="0.94"/>
<line y1="-0.5" x2="24.7948" y2="-0.5" transform="matrix(-0.325241 -0.945631 0.337663 -0.941267 416.967 41.6501)" stroke="white" stroke-opacity="0.94"/>
<line y1="-0.5" x2="11.5266" y2="-0.5" transform="matrix(1 8.74228e-08 8.74228e-08 -1 342.642 17.7151)" stroke="white" stroke-opacity="0.94"/>
<line y1="-0.5" x2="11.5266" y2="-0.5" transform="matrix(1 8.74228e-08 8.74228e-08 -1 397.376 18.2036)" stroke="white" stroke-opacity="0.94"/>
<line x1="511.185" y1="0.500092" x2="-0.000457852" y2="0.500003" stroke="white"/>
<line x1="511.001" y1="114.5" x2="321.001" y2="114.5" stroke="white" stroke-opacity="0.94"/>
<line y1="-0.5" x2="38.6573" y2="-0.5" transform="matrix(-0.795062 -0.606528 0.807143 -0.590356 322.666 114.446)" stroke="white" stroke-opacity="0.94"/>
<line y1="-0.5" x2="43" y2="-0.5" transform="matrix(1 8.37663e-08 9.12388e-08 -1 248.001 90.9996)" stroke="white" stroke-opacity="0.94"/>
<line x1="285.192" y1="399.176" x2="235.262" y2="399.176" stroke="white" stroke-opacity="0.94"/>
<line y1="-0.5" x2="49.93" y2="-0.5" transform="matrix(1 8.74228e-08 8.74228e-08 -1 49 399)" stroke="white" stroke-opacity="0.94"/>
<line y1="-0.5" x2="49.93" y2="-0.5" transform="matrix(1 8.74228e-08 8.74228e-08 -1 103.973 398.676)" stroke="white" stroke-opacity="0.94"/>
<line x1="230.458" y1="399.176" x2="180.528" y2="399.176" stroke="white" stroke-opacity="0.94"/>
<line y1="-0.5" x2="24.7948" y2="-0.5" transform="matrix(-0.325241 -0.945631 0.337663 -0.941267 235.777 399.164)" stroke="white" stroke-opacity="0.94"/>
<line y1="-0.5" x2="24.7948" y2="-0.5" transform="matrix(0.325241 -0.945631 -0.337663 -0.941267 153.388 399.164)" stroke="white" stroke-opacity="0.94"/>
<line y1="-0.5" x2="24.7948" y2="-0.5" transform="matrix(-0.325241 -0.945631 0.337663 -0.941267 181.043 399.164)" stroke="white" stroke-opacity="0.94"/>
<line x1="227.713" y1="376.217" x2="216.186" y2="376.217" stroke="white" stroke-opacity="0.94"/>
<line x1="8.81018e-08" y1="399.5" x2="41.85" y2="399.5" stroke="white" stroke-opacity="0.94"/>
<line y1="-0.5" x2="11.5266" y2="-0.5" transform="matrix(1 8.74228e-08 8.74228e-08 -1 161.452 375.717)" stroke="white" stroke-opacity="0.94"/>
<line x1="491.005" y1="399.5" x2="471.232" y2="399.71" stroke="white" stroke-opacity="0.94"/>
<line y1="-0.5" x2="49.93" y2="-0.5" transform="matrix(1 8.74228e-08 8.74228e-08 -1 285.162 398.676)" stroke="white" stroke-opacity="0.94"/>
<line y1="-0.5" x2="49.93" y2="-0.5" transform="matrix(1 8.74228e-08 8.74228e-08 -1 339.896 399.164)" stroke="white" stroke-opacity="0.94"/>
<line x1="466.382" y1="399.664" x2="416.452" y2="399.664" stroke="white" stroke-opacity="0.94"/>
<line y1="-0.5" x2="24.7948" y2="-0.5" transform="matrix(0.325241 -0.945631 -0.337663 -0.941267 334.577 399.164)" stroke="white" stroke-opacity="0.94"/>
<line y1="-0.5" x2="24.7948" y2="-0.5" transform="matrix(0.325241 -0.945631 -0.337663 -0.941267 389.311 399.653)" stroke="white" stroke-opacity="0.94"/>
<line y1="-0.5" x2="24.7948" y2="-0.5" transform="matrix(-0.325241 -0.945631 0.337663 -0.941267 416.966 399.653)" stroke="white" stroke-opacity="0.94"/>
<line y1="-0.5" x2="11.5266" y2="-0.5" transform="matrix(1 8.74228e-08 8.74228e-08 -1 342.641 375.717)" stroke="white" stroke-opacity="0.94"/>
<line y1="-0.5" x2="11.5266" y2="-0.5" transform="matrix(1 8.74228e-08 8.74228e-08 -1 397.375 376.206)" stroke="white" stroke-opacity="0.94"/>
<line x1="491" y1="358.5" x2="3.39872e-08" y2="358.5" stroke="white"/>
</svg>
