<svg width="938" height="1080" viewBox="0 0 938 1080" fill="none" xmlns="http://www.w3.org/2000/svg">
<path d="M453.161 804L916 861.11C916 861.11 674.272 901.14 489.755 931.563C486.663 932.097 483.055 932.63 479.962 933.164C460.892 935.833 443.368 941.17 426.875 952.912C402.651 971.593 386.673 1006.82 358.325 1003.08C327.916 998.813 305.754 968.924 273.283 963.587C269.159 962.519 265.551 961.986 261.428 961.452C257.82 960.918 254.212 959.851 250.089 959.317C137.214 937.434 -224.089 866.447 -224.089 866.447C-224.089 866.447 109.897 835.49 308.846 817.343C311.938 817.877 315.031 817.877 318.123 817.877C341.317 817.877 365.541 814.675 388.219 810.939C393.373 809.871 398.012 809.337 402.651 808.804C434.091 805.601 453.161 804 453.161 804Z" stroke="#F2F2F2" stroke-width="0.5" stroke-miterlimit="10"/>
<path d="M-78.2275 852.57C-78.2275 852.57 99.5892 884.06 244.42 909.146C248.028 909.68 252.151 910.747 255.759 911.281C263.49 912.348 270.706 914.483 277.406 917.152C281.014 918.753 284.106 919.82 287.714 921.955C290.807 924.09 293.899 926.225 297.507 928.36C325.339 945.974 338.74 994.01 374.819 983.869C393.373 978.531 407.289 964.654 423.783 955.047" stroke="#F2F2F2" stroke-width="0.5" stroke-miterlimit="10"/>
<path d="M51.1406 840.828C51.1406 840.828 127.421 853.104 220.195 868.048C223.803 868.582 227.927 869.116 231.534 869.649C248.028 871.251 264.005 874.987 279.468 879.257C283.591 880.324 287.199 881.392 291.322 882.993C310.908 888.864 327.401 899.005 345.956 909.146C359.872 916.618 373.272 925.692 389.25 923.557C420.175 919.287 449.038 904.876 480.993 909.68C484.601 910.213 487.694 910.747 491.302 911.281C527.38 917.152 550.574 920.888 550.574 920.888" stroke="#F2F2F2" stroke-width="0.5" stroke-miterlimit="10"/>
<path d="M167.623 830.153C167.623 830.153 210.918 836.558 271.736 845.631C274.828 846.165 278.436 846.699 281.529 847.232C285.137 847.766 288.229 848.3 291.837 848.834C321.215 853.103 344.409 870.717 369.664 886.729C379.972 893.134 391.311 894.735 403.681 890.999C430.483 882.993 455.222 870.717 482.024 877.122C485.632 877.655 488.724 878.189 492.332 878.189C583.56 891.532 658.294 902.741 658.294 902.741" stroke="#F2F2F2" stroke-width="0.5" stroke-miterlimit="10"/>
<path d="M272.252 820.546C272.252 820.546 276.891 821.08 285.653 822.681C288.745 823.215 291.838 823.748 295.445 824.282C323.278 827.484 346.987 844.564 373.272 852.036C377.396 852.57 382.55 853.637 386.673 853.637C421.206 849.901 454.707 845.631 488.725 851.503C492.848 852.036 496.971 852.57 500.579 853.104C625.308 870.183 754.161 888.33 754.161 888.33" stroke="#F2F2F2" stroke-width="0.5" stroke-miterlimit="10"/>
<path d="M365.541 814.675C382.55 816.81 398.527 818.411 416.051 818.944C426.359 819.478 437.699 821.079 450.068 822.681C585.621 840.294 840.234 873.385 840.234 873.385" stroke="#F2F2F2" stroke-width="0.5" stroke-miterlimit="10"/>
<path d="M827.865 849.901C827.865 849.901 656.233 875.521 489.755 900.073C486.147 900.606 482.024 901.14 478.416 901.674C434.091 910.747 396.981 935.833 369.149 971.593C363.479 979.065 352.14 977.998 344.925 972.661C323.793 957.716 306.269 933.164 278.952 932.63C274.313 932.63 269.675 932.63 265.551 933.164C259.882 933.698 254.212 934.765 249.058 935.299C207.825 941.17 182.055 945.44 182.055 945.44" stroke="#F2F2F2" stroke-width="0.5" stroke-miterlimit="10"/>
<path d="M744.883 839.76C744.883 839.76 616.031 856.84 472.231 876.054C468.108 877.122 464.5 878.189 460.892 879.257C457.8 880.858 453.676 880.858 450.068 882.993C421.205 900.072 394.404 921.956 358.841 919.821C350.594 919.287 345.44 927.827 337.709 928.894C333.07 929.428 328.431 927.293 324.824 925.158C312.969 917.686 302.146 909.146 288.745 906.477C285.652 905.41 282.044 904.876 278.952 904.342C272.252 903.275 265.551 903.275 258.336 904.342C254.728 904.876 251.635 905.41 248.027 905.41C155.769 917.686 88.25 926.759 88.25 926.759" stroke="#F2F2F2" stroke-width="0.5" stroke-miterlimit="10"/>
<path d="M666.026 830.153C666.026 830.153 584.075 839.76 478.416 852.57C474.293 853.637 470.685 854.705 467.077 855.238C446.461 858.975 428.421 868.582 410.382 882.459C399.558 892.066 386.673 896.87 372.757 893.667C347.502 887.796 323.277 874.453 296.991 878.723C293.899 878.723 290.806 878.723 287.199 878.723C271.221 879.257 255.243 879.257 239.265 881.391C235.657 881.925 231.534 882.459 227.926 882.993C103.712 897.937 1.14551 910.213 1.14551 910.213" stroke="#F2F2F2" stroke-width="0.5" stroke-miterlimit="10"/>
<path d="M591.292 821.08C591.292 821.08 540.781 826.417 468.109 834.423C464.501 834.957 461.408 835.49 458.316 836.024C429.453 838.159 406.775 855.239 379.973 866.981C374.819 869.65 368.634 868.582 361.934 866.981C342.348 861.11 322.763 853.104 301.631 853.104C296.992 853.104 292.353 853.637 287.715 854.171C269.16 856.306 250.605 858.441 232.05 859.509C227.927 860.042 224.319 860.576 220.196 860.576C65.0572 877.656 -79.2578 893.668 -79.2578 893.668" stroke="#F2F2F2" stroke-width="0.5" stroke-miterlimit="10"/>
<path d="M520.165 812.006C520.165 812.006 485.632 815.208 432.03 821.079C428.937 822.147 425.845 822.681 422.752 823.214C383.065 833.355 345.956 842.429 303.692 835.49C295.446 834.423 286.684 835.49 277.922 836.558C273.798 837.091 270.191 837.091 266.067 837.625C74.8498 856.84 -155.023 879.79 -155.023 879.79" stroke="#F2F2F2" stroke-width="0.5" stroke-miterlimit="10"/>
<path d="M473.25 880L936.089 937.11C936.089 937.11 694.361 977.14 509.844 1007.56C506.752 1008.1 503.144 1008.63 500.051 1009.16C480.981 1011.83 463.457 1017.17 446.964 1028.91C422.74 1047.59 406.762 1082.82 378.414 1079.08C348.005 1074.81 325.842 1044.92 293.372 1039.59C289.248 1038.52 285.64 1037.99 281.517 1037.45C277.909 1036.92 274.301 1035.85 270.178 1035.32C157.303 1013.43 -204 942.447 -204 942.447C-204 942.447 129.986 911.49 328.935 893.343C332.027 893.877 335.12 893.877 338.212 893.877C361.406 893.877 385.63 890.675 408.308 886.939C413.462 885.871 418.101 885.337 422.74 884.804C454.18 881.601 473.25 880 473.25 880Z" stroke="#F2F2F2" stroke-width="0.5" stroke-miterlimit="10"/>
<path d="M-58.1387 928.57C-58.1387 928.57 119.678 960.06 264.509 985.146C268.116 985.68 272.24 986.747 275.848 987.281C283.579 988.348 290.795 990.483 297.495 993.152C301.103 994.753 304.195 995.82 307.803 997.955C310.896 1000.09 313.988 1002.23 317.596 1004.36C345.428 1021.97 358.829 1070.01 394.907 1059.87C413.462 1054.53 427.378 1040.65 443.872 1031.05" stroke="#F2F2F2" stroke-width="0.5" stroke-miterlimit="10"/>
<path d="M71.2295 916.828C71.2295 916.828 147.51 929.104 240.284 944.048C243.892 944.582 248.015 945.116 251.623 945.649C268.116 947.251 284.094 950.987 299.556 955.257C303.68 956.324 307.288 957.392 311.411 958.993C330.997 964.864 347.49 975.005 366.044 985.146C379.961 992.618 393.361 1001.69 409.339 999.557C440.264 995.287 469.127 980.876 501.082 985.68C504.69 986.213 507.782 986.747 511.39 987.281C547.469 993.152 570.663 996.888 570.663 996.888" stroke="#F2F2F2" stroke-width="0.5" stroke-miterlimit="10"/>
<path d="M187.712 906.153C187.712 906.153 231.006 912.558 291.825 921.631C294.917 922.165 298.525 922.699 301.618 923.232C305.226 923.766 308.318 924.3 311.926 924.834C341.304 929.103 364.498 946.717 389.753 962.729C400.061 969.134 411.4 970.735 423.77 966.999C450.571 958.993 475.311 946.717 502.113 953.122C505.72 953.655 508.813 954.189 512.421 954.189C603.648 967.532 678.383 978.741 678.383 978.741" stroke="#F2F2F2" stroke-width="0.5" stroke-miterlimit="10"/>
<path d="M292.341 896.546C292.341 896.546 296.98 897.08 305.741 898.681C308.834 899.215 311.926 899.748 315.534 900.282C343.366 903.484 367.075 920.564 393.361 928.036C397.485 928.57 402.639 929.637 406.762 929.637C441.295 925.901 474.796 921.631 508.813 927.503C512.937 928.036 517.06 928.57 520.668 929.104C645.397 946.183 774.25 964.33 774.25 964.33" stroke="#F2F2F2" stroke-width="0.5" stroke-miterlimit="10"/>
<path d="M385.63 890.675C402.638 892.81 418.616 894.411 436.14 894.944C446.448 895.478 457.787 897.079 470.157 898.681C605.71 916.294 860.323 949.385 860.323 949.385" stroke="#F2F2F2" stroke-width="0.5" stroke-miterlimit="10"/>
<path d="M847.953 925.901C847.953 925.901 676.322 951.521 509.844 976.073C506.236 976.606 502.113 977.14 498.505 977.674C454.18 986.747 417.07 1011.83 389.238 1047.59C383.568 1055.07 372.229 1054 365.013 1048.66C343.882 1033.72 326.358 1009.16 299.041 1008.63C294.402 1008.63 289.763 1008.63 285.64 1009.16C279.971 1009.7 274.301 1010.77 269.147 1011.3C227.914 1017.17 202.144 1021.44 202.144 1021.44" stroke="#F2F2F2" stroke-width="0.5" stroke-miterlimit="10"/>
<path d="M764.972 915.76C764.972 915.76 636.12 932.84 492.32 952.054C488.197 953.122 484.589 954.189 480.981 955.257C477.888 956.858 473.765 956.858 470.157 958.993C441.294 976.072 414.493 997.956 378.93 995.821C370.683 995.287 365.529 1003.83 357.798 1004.89C353.159 1005.43 348.52 1003.29 344.912 1001.16C333.058 993.686 322.234 985.146 308.834 982.477C305.741 981.41 302.133 980.876 299.041 980.342C292.341 979.275 285.64 979.275 278.424 980.342C274.817 980.876 271.724 981.41 268.116 981.41C175.858 993.686 108.339 1002.76 108.339 1002.76" stroke="#F2F2F2" stroke-width="0.5" stroke-miterlimit="10"/>
<path d="M686.114 906.153C686.114 906.153 604.164 915.76 498.505 928.57C494.382 929.637 490.774 930.705 487.166 931.238C466.549 934.975 448.51 944.582 430.471 958.459C419.647 968.066 406.762 972.87 392.846 969.667C367.591 963.796 343.366 950.453 317.08 954.723C313.988 954.723 310.895 954.723 307.287 954.723C291.31 955.257 275.332 955.257 259.354 957.391C255.746 957.925 251.623 958.459 248.015 958.993C123.801 973.937 21.2344 986.213 21.2344 986.213" stroke="#F2F2F2" stroke-width="0.5" stroke-miterlimit="10"/>
<path d="M611.381 897.08C611.381 897.08 560.87 902.417 488.197 910.423C484.59 910.957 481.497 911.49 478.405 912.024C449.542 914.159 426.863 931.239 400.062 942.981C394.908 945.65 388.723 944.582 382.023 942.981C362.437 937.11 342.852 929.104 321.72 929.104C317.081 929.104 312.442 929.637 307.804 930.171C289.249 932.306 270.694 934.441 252.139 935.509C248.016 936.042 244.408 936.576 240.285 936.576C85.1461 953.656 -59.1689 969.668 -59.1689 969.668" stroke="#F2F2F2" stroke-width="0.5" stroke-miterlimit="10"/>
<path d="M540.254 888.006C540.254 888.006 505.721 891.208 452.118 897.079C449.026 898.147 445.933 898.681 442.841 899.214C403.154 909.355 366.045 918.429 323.781 911.49C315.535 910.423 306.773 911.49 298.011 912.558C293.887 913.091 290.279 913.091 286.156 913.625C94.9387 932.84 -134.935 955.79 -134.935 955.79" stroke="#F2F2F2" stroke-width="0.5" stroke-miterlimit="10"/>
<path d="M453.25 725L916.089 782.11C916.089 782.11 674.361 822.14 489.844 852.563C486.752 853.097 483.144 853.63 480.051 854.164C460.981 856.833 443.457 862.17 426.964 873.912C402.74 892.593 386.762 927.819 358.414 924.083C328.005 919.813 305.842 889.924 273.372 884.587C269.248 883.519 265.64 882.986 261.517 882.452C257.909 881.918 254.301 880.851 250.178 880.317C137.303 858.434 -224 787.447 -224 787.447C-224 787.447 109.986 756.49 308.935 738.343C312.027 738.877 315.12 738.877 318.212 738.877C341.406 738.877 365.63 735.675 388.308 731.939C393.462 730.871 398.101 730.337 402.74 729.804C434.18 726.601 453.25 725 453.25 725Z" stroke="#F2F2F2" stroke-width="0.5" stroke-miterlimit="10"/>
<path d="M-78.1387 773.57C-78.1387 773.57 99.6781 805.06 244.509 830.146C248.116 830.68 252.24 831.747 255.848 832.281C263.579 833.348 270.795 835.483 277.495 838.152C281.103 839.753 284.195 840.82 287.803 842.955C290.896 845.09 293.988 847.225 297.596 849.36C325.428 866.974 338.829 915.01 374.907 904.869C393.462 899.531 407.378 885.654 423.872 876.047" stroke="#F2F2F2" stroke-width="0.5" stroke-miterlimit="10"/>
<path d="M51.2295 761.828C51.2295 761.828 127.51 774.104 220.284 789.048C223.892 789.582 228.015 790.116 231.623 790.649C248.116 792.251 264.094 795.987 279.556 800.257C283.68 801.324 287.288 802.392 291.411 803.993C310.997 809.864 327.49 820.005 346.044 830.146C359.961 837.618 373.361 846.692 389.339 844.557C420.264 840.287 449.127 825.876 481.082 830.68C484.69 831.213 487.782 831.747 491.39 832.281C527.469 838.152 550.663 841.888 550.663 841.888" stroke="#F2F2F2" stroke-width="0.5" stroke-miterlimit="10"/>
<path d="M167.712 751.153C167.712 751.153 211.006 757.558 271.825 766.631C274.917 767.165 278.525 767.699 281.618 768.232C285.226 768.766 288.318 769.3 291.926 769.834C321.304 774.103 344.498 791.717 369.753 807.729C380.061 814.134 391.4 815.735 403.77 811.999C430.571 803.993 455.311 791.717 482.113 798.122C485.72 798.655 488.813 799.189 492.421 799.189C583.648 812.532 658.383 823.741 658.383 823.741" stroke="#F2F2F2" stroke-width="0.5" stroke-miterlimit="10"/>
<path d="M272.341 741.546C272.341 741.546 276.98 742.08 285.741 743.681C288.834 744.215 291.926 744.748 295.534 745.282C323.366 748.484 347.075 765.564 373.361 773.036C377.485 773.57 382.639 774.637 386.762 774.637C421.295 770.901 454.796 766.631 488.813 772.503C492.937 773.036 497.06 773.57 500.668 774.104C625.397 791.183 754.25 809.33 754.25 809.33" stroke="#F2F2F2" stroke-width="0.5" stroke-miterlimit="10"/>
<path d="M365.63 735.675C382.638 737.81 398.616 739.411 416.14 739.944C426.448 740.478 437.787 742.079 450.157 743.681C585.71 761.294 840.323 794.385 840.323 794.385" stroke="#F2F2F2" stroke-width="0.5" stroke-miterlimit="10"/>
<path d="M827.953 770.901C827.953 770.901 656.322 796.521 489.844 821.073C486.236 821.606 482.113 822.14 478.505 822.674C434.18 831.747 397.07 856.833 369.238 892.593C363.568 900.065 352.229 898.998 345.013 893.661C323.882 878.716 306.358 854.164 279.041 853.63C274.402 853.63 269.763 853.63 265.64 854.164C259.971 854.698 254.301 855.765 249.147 856.299C207.914 862.17 182.144 866.44 182.144 866.44" stroke="#F2F2F2" stroke-width="0.5" stroke-miterlimit="10"/>
<path d="M744.972 760.76C744.972 760.76 616.12 777.84 472.32 797.054C468.197 798.122 464.589 799.189 460.981 800.257C457.888 801.858 453.765 801.858 450.157 803.993C421.294 821.072 394.493 842.956 358.93 840.821C350.683 840.287 345.529 848.827 337.798 849.894C333.159 850.428 328.52 848.293 324.912 846.158C313.058 838.686 302.234 830.146 288.834 827.477C285.741 826.41 282.133 825.876 279.041 825.342C272.341 824.275 265.64 824.275 258.424 825.342C254.817 825.876 251.724 826.41 248.116 826.41C155.858 838.686 88.3389 847.759 88.3389 847.759" stroke="#F2F2F2" stroke-width="0.5" stroke-miterlimit="10"/>
<path d="M666.114 751.153C666.114 751.153 584.164 760.76 478.505 773.57C474.382 774.637 470.774 775.705 467.166 776.238C446.549 779.975 428.51 789.582 410.471 803.459C399.647 813.066 386.762 817.87 372.846 814.667C347.591 808.796 323.366 795.453 297.08 799.723C293.988 799.723 290.895 799.723 287.287 799.723C271.31 800.257 255.332 800.257 239.354 802.391C235.746 802.925 231.623 803.459 228.015 803.993C103.801 818.937 1.23438 831.213 1.23438 831.213" stroke="#F2F2F2" stroke-width="0.5" stroke-miterlimit="10"/>
<path d="M591.381 742.08C591.381 742.08 540.87 747.417 468.197 755.423C464.59 755.957 461.497 756.49 458.405 757.024C429.542 759.159 406.863 776.239 380.062 787.981C374.908 790.65 368.723 789.582 362.023 787.981C342.437 782.11 322.852 774.104 301.72 774.104C297.081 774.104 292.442 774.637 287.804 775.171C269.249 777.306 250.694 779.441 232.139 780.509C228.016 781.042 224.408 781.576 220.285 781.576C65.1461 798.656 -79.1689 814.668 -79.1689 814.668" stroke="#F2F2F2" stroke-width="0.5" stroke-miterlimit="10"/>
<path d="M520.254 733.006C520.254 733.006 485.721 736.208 432.118 742.079C429.026 743.147 425.933 743.681 422.841 744.214C383.154 754.355 346.045 763.429 303.781 756.49C295.535 755.423 286.773 756.49 278.011 757.558C273.887 758.091 270.279 758.091 266.156 758.625C74.9387 777.84 -154.935 800.79 -154.935 800.79" stroke="#F2F2F2" stroke-width="0.5" stroke-miterlimit="10"/>
<path d="M453.25 853L916.089 910.11C916.089 910.11 674.361 950.14 489.844 980.563C486.752 981.097 483.144 981.63 480.051 982.164C460.981 984.833 443.457 990.17 426.964 1001.91C402.74 1020.59 386.762 1055.82 358.414 1052.08C328.005 1047.81 305.842 1017.92 273.372 1012.59C269.248 1011.52 265.64 1010.99 261.517 1010.45C257.909 1009.92 254.301 1008.85 250.178 1008.32C137.303 986.434 -224 915.447 -224 915.447C-224 915.447 109.986 884.49 308.935 866.343C312.027 866.877 315.12 866.877 318.212 866.877C341.406 866.877 365.63 863.675 388.308 859.939C393.462 858.871 398.101 858.337 402.74 857.804C434.18 854.601 453.25 853 453.25 853Z" stroke="#F2F2F2" stroke-width="0.5" stroke-miterlimit="10"/>
<path d="M-78.1387 901.57C-78.1387 901.57 99.6781 933.06 244.509 958.146C248.116 958.68 252.24 959.747 255.848 960.281C263.579 961.348 270.795 963.483 277.495 966.152C281.103 967.753 284.195 968.82 287.803 970.955C290.896 973.09 293.988 975.225 297.596 977.36C325.428 994.974 338.829 1043.01 374.907 1032.87C393.462 1027.53 407.378 1013.65 423.872 1004.05" stroke="#F2F2F2" stroke-width="0.5" stroke-miterlimit="10"/>
<path d="M51.2295 889.828C51.2295 889.828 127.51 902.104 220.284 917.048C223.892 917.582 228.015 918.116 231.623 918.649C248.116 920.251 264.094 923.987 279.556 928.257C283.68 929.324 287.288 930.392 291.411 931.993C310.997 937.864 327.49 948.005 346.044 958.146C359.961 965.618 373.361 974.692 389.339 972.557C420.264 968.287 449.127 953.876 481.082 958.68C484.69 959.213 487.782 959.747 491.39 960.281C527.469 966.152 550.663 969.888 550.663 969.888" stroke="#F2F2F2" stroke-width="0.5" stroke-miterlimit="10"/>
<path d="M167.712 879.153C167.712 879.153 211.006 885.558 271.825 894.631C274.917 895.165 278.525 895.699 281.618 896.232C285.226 896.766 288.318 897.3 291.926 897.834C321.304 902.103 344.498 919.717 369.753 935.729C380.061 942.134 391.4 943.735 403.77 939.999C430.571 931.993 455.311 919.717 482.113 926.122C485.72 926.655 488.813 927.189 492.421 927.189C583.648 940.532 658.383 951.741 658.383 951.741" stroke="#F2F2F2" stroke-width="0.5" stroke-miterlimit="10"/>
<path d="M272.341 869.546C272.341 869.546 276.98 870.08 285.741 871.681C288.834 872.215 291.926 872.748 295.534 873.282C323.366 876.484 347.075 893.564 373.361 901.036C377.485 901.57 382.639 902.637 386.762 902.637C421.295 898.901 454.796 894.631 488.813 900.503C492.937 901.036 497.06 901.57 500.668 902.104C625.397 919.183 754.25 937.33 754.25 937.33" stroke="#F2F2F2" stroke-width="0.5" stroke-miterlimit="10"/>
<path d="M365.63 863.675C382.638 865.81 398.616 867.411 416.14 867.944C426.448 868.478 437.787 870.079 450.157 871.681C585.71 889.294 840.323 922.385 840.323 922.385" stroke="#F2F2F2" stroke-width="0.5" stroke-miterlimit="10"/>
<path d="M827.953 898.901C827.953 898.901 656.322 924.521 489.844 949.073C486.236 949.606 482.113 950.14 478.505 950.674C434.18 959.747 397.07 984.833 369.238 1020.59C363.568 1028.07 352.229 1027 345.013 1021.66C323.882 1006.72 306.358 982.164 279.041 981.63C274.402 981.63 269.763 981.63 265.64 982.164C259.971 982.698 254.301 983.765 249.147 984.299C207.914 990.17 182.144 994.44 182.144 994.44" stroke="#F2F2F2" stroke-width="0.5" stroke-miterlimit="10"/>
<path d="M744.972 888.76C744.972 888.76 616.12 905.84 472.32 925.054C468.197 926.122 464.589 927.189 460.981 928.257C457.888 929.858 453.765 929.858 450.157 931.993C421.294 949.072 394.493 970.956 358.93 968.821C350.683 968.287 345.529 976.827 337.798 977.894C333.159 978.428 328.52 976.293 324.912 974.158C313.058 966.686 302.234 958.146 288.834 955.477C285.741 954.41 282.133 953.876 279.041 953.342C272.341 952.275 265.64 952.275 258.424 953.342C254.817 953.876 251.724 954.41 248.116 954.41C155.858 966.686 88.3389 975.759 88.3389 975.759" stroke="#F2F2F2" stroke-width="0.5" stroke-miterlimit="10"/>
<path d="M666.114 879.153C666.114 879.153 584.164 888.76 478.505 901.57C474.382 902.637 470.774 903.705 467.166 904.238C446.549 907.975 428.51 917.582 410.471 931.459C399.647 941.066 386.762 945.87 372.846 942.667C347.591 936.796 323.366 923.453 297.08 927.723C293.988 927.723 290.895 927.723 287.287 927.723C271.31 928.257 255.332 928.257 239.354 930.391C235.746 930.925 231.623 931.459 228.015 931.993C103.801 946.937 1.23438 959.213 1.23438 959.213" stroke="#F2F2F2" stroke-width="0.5" stroke-miterlimit="10"/>
<path d="M591.381 870.08C591.381 870.08 540.87 875.417 468.197 883.423C464.59 883.957 461.497 884.49 458.405 885.024C429.542 887.159 406.863 904.239 380.062 915.981C374.908 918.65 368.723 917.582 362.023 915.981C342.437 910.11 322.852 902.104 301.72 902.104C297.081 902.104 292.442 902.637 287.804 903.171C269.249 905.306 250.694 907.441 232.139 908.509C228.016 909.042 224.408 909.576 220.285 909.576C65.1461 926.656 -79.1689 942.668 -79.1689 942.668" stroke="#F2F2F2" stroke-width="0.5" stroke-miterlimit="10"/>
<path d="M520.254 861.006C520.254 861.006 485.721 864.208 432.118 870.079C429.026 871.147 425.933 871.681 422.841 872.214C383.154 882.355 346.045 891.429 303.781 884.49C295.535 883.423 286.773 884.49 278.011 885.558C273.887 886.091 270.279 886.091 266.156 886.625C74.9387 905.84 -154.935 928.79 -154.935 928.79" stroke="#F2F2F2" stroke-width="0.5" stroke-miterlimit="10"/>
<path d="M453.25 633L916.089 690.11C916.089 690.11 674.361 730.14 489.844 760.563C486.752 761.097 483.144 761.63 480.051 762.164C460.981 764.833 443.457 770.17 426.964 781.912C402.74 800.593 386.762 835.819 358.414 832.083C328.005 827.813 305.842 797.924 273.372 792.587C269.248 791.519 265.64 790.986 261.517 790.452C257.909 789.918 254.301 788.851 250.178 788.317C137.303 766.434 -224 695.447 -224 695.447C-224 695.447 109.986 664.49 308.935 646.343C312.027 646.877 315.12 646.877 318.212 646.877C341.406 646.877 365.63 643.675 388.308 639.939C393.462 638.871 398.101 638.337 402.74 637.804C434.18 634.601 453.25 633 453.25 633Z" stroke="#F2F2F2" stroke-width="0.5" stroke-miterlimit="10"/>
<path d="M-78.1387 681.57C-78.1387 681.57 99.6781 713.06 244.509 738.146C248.116 738.68 252.24 739.747 255.848 740.281C263.579 741.348 270.795 743.483 277.495 746.152C281.103 747.753 284.195 748.82 287.803 750.955C290.896 753.09 293.988 755.225 297.596 757.36C325.428 774.974 338.829 823.01 374.907 812.869C393.462 807.531 407.378 793.654 423.872 784.047" stroke="#F2F2F2" stroke-width="0.5" stroke-miterlimit="10"/>
<path d="M51.2295 669.828C51.2295 669.828 127.51 682.104 220.284 697.048C223.892 697.582 228.015 698.116 231.623 698.649C248.116 700.251 264.094 703.987 279.556 708.257C283.68 709.324 287.288 710.392 291.411 711.993C310.997 717.864 327.49 728.005 346.044 738.146C359.961 745.618 373.361 754.692 389.339 752.557C420.264 748.287 449.127 733.876 481.082 738.68C484.69 739.213 487.782 739.747 491.39 740.281C527.469 746.152 550.663 749.888 550.663 749.888" stroke="#F2F2F2" stroke-width="0.5" stroke-miterlimit="10"/>
<path d="M167.712 659.153C167.712 659.153 211.006 665.558 271.825 674.631C274.917 675.165 278.525 675.699 281.618 676.232C285.226 676.766 288.318 677.3 291.926 677.834C321.304 682.103 344.498 699.717 369.753 715.729C380.061 722.134 391.4 723.735 403.77 719.999C430.571 711.993 455.311 699.717 482.113 706.122C485.72 706.655 488.813 707.189 492.421 707.189C583.648 720.532 658.383 731.741 658.383 731.741" stroke="#F2F2F2" stroke-width="0.5" stroke-miterlimit="10"/>
<path d="M272.341 649.546C272.341 649.546 276.98 650.08 285.741 651.681C288.834 652.215 291.926 652.748 295.534 653.282C323.366 656.484 347.075 673.564 373.361 681.036C377.485 681.57 382.639 682.637 386.762 682.637C421.295 678.901 454.796 674.631 488.813 680.503C492.937 681.036 497.06 681.57 500.668 682.104C625.397 699.183 754.25 717.33 754.25 717.33" stroke="#F2F2F2" stroke-width="0.5" stroke-miterlimit="10"/>
<path d="M365.63 643.675C382.638 645.81 398.616 647.411 416.14 647.944C426.448 648.478 437.787 650.079 450.157 651.681C585.71 669.294 840.323 702.385 840.323 702.385" stroke="#F2F2F2" stroke-width="0.5" stroke-miterlimit="10"/>
<path d="M827.953 678.901C827.953 678.901 656.322 704.521 489.844 729.073C486.236 729.606 482.113 730.14 478.505 730.674C434.18 739.747 397.07 764.833 369.238 800.593C363.568 808.065 352.229 806.998 345.013 801.661C323.882 786.716 306.358 762.164 279.041 761.63C274.402 761.63 269.763 761.63 265.64 762.164C259.971 762.698 254.301 763.765 249.147 764.299C207.914 770.17 182.144 774.44 182.144 774.44" stroke="#F2F2F2" stroke-width="0.5" stroke-miterlimit="10"/>
<path d="M744.972 668.76C744.972 668.76 616.12 685.84 472.32 705.054C468.197 706.122 464.589 707.189 460.981 708.257C457.888 709.858 453.765 709.858 450.157 711.993C421.294 729.072 394.493 750.956 358.93 748.821C350.683 748.287 345.529 756.827 337.798 757.894C333.159 758.428 328.52 756.293 324.912 754.158C313.058 746.686 302.234 738.146 288.834 735.477C285.741 734.41 282.133 733.876 279.041 733.342C272.341 732.275 265.64 732.275 258.424 733.342C254.817 733.876 251.724 734.41 248.116 734.41C155.858 746.686 88.3389 755.759 88.3389 755.759" stroke="#F2F2F2" stroke-width="0.5" stroke-miterlimit="10"/>
<path d="M666.114 659.153C666.114 659.153 584.164 668.76 478.505 681.57C474.382 682.637 470.774 683.705 467.166 684.238C446.549 687.975 428.51 697.582 410.471 711.459C399.647 721.066 386.762 725.87 372.846 722.667C347.591 716.796 323.366 703.453 297.08 707.723C293.988 707.723 290.895 707.723 287.287 707.723C271.31 708.257 255.332 708.257 239.354 710.391C235.746 710.925 231.623 711.459 228.015 711.993C103.801 726.937 1.23438 739.213 1.23438 739.213" stroke="#F2F2F2" stroke-width="0.5" stroke-miterlimit="10"/>
<path d="M591.381 650.08C591.381 650.08 540.87 655.417 468.197 663.423C464.59 663.957 461.497 664.49 458.405 665.024C429.542 667.159 406.863 684.239 380.062 695.981C374.908 698.65 368.723 697.582 362.023 695.981C342.437 690.11 322.852 682.104 301.72 682.104C297.081 682.104 292.442 682.637 287.804 683.171C269.249 685.306 250.694 687.441 232.139 688.509C228.016 689.042 224.408 689.576 220.285 689.576C65.1461 706.656 -79.1689 722.668 -79.1689 722.668" stroke="#F2F2F2" stroke-width="0.5" stroke-miterlimit="10"/>
<path d="M520.254 641.006C520.254 641.006 485.721 644.208 432.118 650.079C429.026 651.147 425.933 651.681 422.841 652.214C383.154 662.355 346.045 671.429 303.781 664.49C295.535 663.423 286.773 664.49 278.011 665.558C273.887 666.091 270.279 666.091 266.156 666.625C74.9387 685.84 -154.935 708.79 -154.935 708.79" stroke="#F2F2F2" stroke-width="0.5" stroke-miterlimit="10"/>
<path d="M453.25 559L916.089 616.11C916.089 616.11 674.361 656.14 489.844 686.563C486.752 687.097 483.144 687.63 480.051 688.164C460.981 690.833 443.457 696.17 426.964 707.912C402.74 726.593 386.762 761.819 358.414 758.083C328.005 753.813 305.842 723.924 273.372 718.587C269.248 717.519 265.64 716.986 261.517 716.452C257.909 715.918 254.301 714.851 250.178 714.317C137.303 692.434 -224 621.447 -224 621.447C-224 621.447 109.986 590.49 308.935 572.343C312.027 572.877 315.12 572.877 318.212 572.877C341.406 572.877 365.63 569.675 388.308 565.939C393.462 564.871 398.101 564.337 402.74 563.804C434.18 560.601 453.25 559 453.25 559Z" stroke="#F2F2F2" stroke-width="0.5" stroke-miterlimit="10"/>
<path d="M-78.1387 607.57C-78.1387 607.57 99.6781 639.06 244.509 664.146C248.116 664.68 252.24 665.747 255.848 666.281C263.579 667.348 270.795 669.483 277.495 672.152C281.103 673.753 284.195 674.82 287.803 676.955C290.896 679.09 293.988 681.225 297.596 683.36C325.428 700.974 338.829 749.01 374.907 738.869C393.462 733.531 407.378 719.654 423.872 710.047" stroke="#F2F2F2" stroke-width="0.5" stroke-miterlimit="10"/>
<path d="M51.2295 595.828C51.2295 595.828 127.51 608.104 220.284 623.048C223.892 623.582 228.015 624.116 231.623 624.649C248.116 626.251 264.094 629.987 279.556 634.257C283.68 635.324 287.288 636.392 291.411 637.993C310.997 643.864 327.49 654.005 346.044 664.146C359.961 671.618 373.361 680.692 389.339 678.557C420.264 674.287 449.127 659.876 481.082 664.68C484.69 665.213 487.782 665.747 491.39 666.281C527.469 672.152 550.663 675.888 550.663 675.888" stroke="#F2F2F2" stroke-width="0.5" stroke-miterlimit="10"/>
<path d="M167.712 585.153C167.712 585.153 211.006 591.558 271.825 600.631C274.917 601.165 278.525 601.699 281.618 602.232C285.226 602.766 288.318 603.3 291.926 603.834C321.304 608.103 344.498 625.717 369.753 641.729C380.061 648.134 391.4 649.735 403.77 645.999C430.571 637.993 455.311 625.717 482.113 632.122C485.72 632.655 488.813 633.189 492.421 633.189C583.648 646.532 658.383 657.741 658.383 657.741" stroke="#F2F2F2" stroke-width="0.5" stroke-miterlimit="10"/>
<path d="M272.341 575.546C272.341 575.546 276.98 576.08 285.741 577.681C288.834 578.215 291.926 578.748 295.534 579.282C323.366 582.484 347.075 599.564 373.361 607.036C377.485 607.57 382.639 608.637 386.762 608.637C421.295 604.901 454.796 600.631 488.813 606.503C492.937 607.036 497.06 607.57 500.668 608.104C625.397 625.183 754.25 643.33 754.25 643.33" stroke="#F2F2F2" stroke-width="0.5" stroke-miterlimit="10"/>
<path d="M365.63 569.675C382.638 571.81 398.616 573.411 416.14 573.944C426.448 574.478 437.787 576.079 450.157 577.681C585.71 595.294 840.323 628.385 840.323 628.385" stroke="#F2F2F2" stroke-width="0.5" stroke-miterlimit="10"/>
<path d="M827.953 604.901C827.953 604.901 656.322 630.521 489.844 655.073C486.236 655.606 482.113 656.14 478.505 656.674C434.18 665.747 397.07 690.833 369.238 726.593C363.568 734.065 352.229 732.998 345.013 727.661C323.882 712.716 306.358 688.164 279.041 687.63C274.402 687.63 269.763 687.63 265.64 688.164C259.971 688.698 254.301 689.765 249.147 690.299C207.914 696.17 182.144 700.44 182.144 700.44" stroke="#F2F2F2" stroke-width="0.5" stroke-miterlimit="10"/>
<path d="M744.972 594.76C744.972 594.76 616.12 611.84 472.32 631.054C468.197 632.122 464.589 633.189 460.981 634.257C457.888 635.858 453.765 635.858 450.157 637.993C421.294 655.072 394.493 676.956 358.93 674.821C350.683 674.287 345.529 682.827 337.798 683.894C333.159 684.428 328.52 682.293 324.912 680.158C313.058 672.686 302.234 664.146 288.834 661.477C285.741 660.41 282.133 659.876 279.041 659.342C272.341 658.275 265.64 658.275 258.424 659.342C254.817 659.876 251.724 660.41 248.116 660.41C155.858 672.686 88.3389 681.759 88.3389 681.759" stroke="#F2F2F2" stroke-width="0.5" stroke-miterlimit="10"/>
<path d="M666.114 585.153C666.114 585.153 584.164 594.76 478.505 607.57C474.382 608.637 470.774 609.705 467.166 610.238C446.549 613.975 428.51 623.582 410.471 637.459C399.647 647.066 386.762 651.87 372.846 648.667C347.591 642.796 323.366 629.453 297.08 633.723C293.988 633.723 290.895 633.723 287.287 633.723C271.31 634.257 255.332 634.257 239.354 636.391C235.746 636.925 231.623 637.459 228.015 637.993C103.801 652.937 1.23438 665.213 1.23438 665.213" stroke="#F2F2F2" stroke-width="0.5" stroke-miterlimit="10"/>
<path d="M591.381 576.08C591.381 576.08 540.87 581.417 468.197 589.423C464.59 589.957 461.497 590.49 458.405 591.024C429.542 593.159 406.863 610.239 380.062 621.981C374.908 624.65 368.723 623.582 362.023 621.981C342.437 616.11 322.852 608.104 301.72 608.104C297.081 608.104 292.442 608.637 287.804 609.171C269.249 611.306 250.694 613.441 232.139 614.509C228.016 615.042 224.408 615.576 220.285 615.576C65.1461 632.656 -79.1689 648.668 -79.1689 648.668" stroke="#F2F2F2" stroke-width="0.5" stroke-miterlimit="10"/>
<path d="M520.254 567.006C520.254 567.006 485.721 570.208 432.118 576.079C429.026 577.147 425.933 577.681 422.841 578.214C383.154 588.355 346.045 597.429 303.781 590.49C295.535 589.423 286.773 590.49 278.011 591.558C273.887 592.091 270.279 592.091 266.156 592.625C74.9387 611.84 -154.935 634.79 -154.935 634.79" stroke="#F2F2F2" stroke-width="0.5" stroke-miterlimit="10"/>
<path d="M453.25 341L916.089 398.11C916.089 398.11 674.361 438.14 489.844 468.563C486.752 469.097 483.144 469.63 480.051 470.164C460.981 472.833 443.457 478.17 426.964 489.912C402.74 508.593 386.762 543.819 358.414 540.083C328.005 535.813 305.842 505.924 273.372 500.587C269.248 499.519 265.64 498.986 261.517 498.452C257.909 497.918 254.301 496.851 250.178 496.317C137.303 474.434 -224 403.447 -224 403.447C-224 403.447 109.986 372.49 308.935 354.343C312.027 354.877 315.12 354.877 318.212 354.877C341.406 354.877 365.63 351.675 388.308 347.939C393.462 346.871 398.101 346.337 402.74 345.804C434.18 342.601 453.25 341 453.25 341Z" stroke="#F2F2F2" stroke-width="0.5" stroke-miterlimit="10"/>
<path d="M-78.1387 389.57C-78.1387 389.57 99.6781 421.06 244.509 446.146C248.116 446.68 252.24 447.747 255.848 448.281C263.579 449.348 270.795 451.483 277.495 454.152C281.103 455.753 284.195 456.82 287.803 458.955C290.896 461.09 293.988 463.225 297.596 465.36C325.428 482.974 338.829 531.01 374.907 520.869C393.462 515.531 407.378 501.654 423.872 492.047" stroke="#F2F2F2" stroke-width="0.5" stroke-miterlimit="10"/>
<path d="M51.2295 377.828C51.2295 377.828 127.51 390.104 220.284 405.048C223.892 405.582 228.015 406.116 231.623 406.649C248.116 408.251 264.094 411.987 279.556 416.257C283.68 417.324 287.288 418.392 291.411 419.993C310.997 425.864 327.49 436.005 346.044 446.146C359.961 453.618 373.361 462.692 389.339 460.557C420.264 456.287 449.127 441.876 481.082 446.68C484.69 447.213 487.782 447.747 491.39 448.281C527.469 454.152 550.663 457.888 550.663 457.888" stroke="#F2F2F2" stroke-width="0.5" stroke-miterlimit="10"/>
<path d="M167.712 367.153C167.712 367.153 211.006 373.558 271.825 382.631C274.917 383.165 278.525 383.699 281.618 384.232C285.226 384.766 288.318 385.3 291.926 385.834C321.304 390.103 344.498 407.717 369.753 423.729C380.061 430.134 391.4 431.735 403.77 427.999C430.571 419.993 455.311 407.717 482.113 414.122C485.72 414.655 488.813 415.189 492.421 415.189C583.648 428.532 658.383 439.741 658.383 439.741" stroke="#F2F2F2" stroke-width="0.5" stroke-miterlimit="10"/>
<path d="M272.341 357.546C272.341 357.546 276.98 358.08 285.741 359.681C288.834 360.215 291.926 360.748 295.534 361.282C323.366 364.484 347.075 381.564 373.361 389.036C377.485 389.57 382.639 390.637 386.762 390.637C421.295 386.901 454.796 382.631 488.813 388.503C492.937 389.036 497.06 389.57 500.668 390.104C625.397 407.183 754.25 425.33 754.25 425.33" stroke="#F2F2F2" stroke-width="0.5" stroke-miterlimit="10"/>
<path d="M365.63 351.675C382.638 353.81 398.616 355.411 416.14 355.944C426.448 356.478 437.787 358.079 450.157 359.681C585.71 377.294 840.323 410.385 840.323 410.385" stroke="#F2F2F2" stroke-width="0.5" stroke-miterlimit="10"/>
<path d="M827.953 386.901C827.953 386.901 656.322 412.521 489.844 437.073C486.236 437.606 482.113 438.14 478.505 438.674C434.18 447.747 397.07 472.833 369.238 508.593C363.568 516.065 352.229 514.998 345.013 509.661C323.882 494.716 306.358 470.164 279.041 469.63C274.402 469.63 269.763 469.63 265.64 470.164C259.971 470.698 254.301 471.765 249.147 472.299C207.914 478.17 182.144 482.44 182.144 482.44" stroke="#F2F2F2" stroke-width="0.5" stroke-miterlimit="10"/>
<path d="M744.972 376.76C744.972 376.76 616.12 393.84 472.32 413.054C468.197 414.122 464.589 415.189 460.981 416.257C457.888 417.858 453.765 417.858 450.157 419.993C421.294 437.072 394.493 458.956 358.93 456.821C350.683 456.287 345.529 464.827 337.798 465.894C333.159 466.428 328.52 464.293 324.912 462.158C313.058 454.686 302.234 446.146 288.834 443.477C285.741 442.41 282.133 441.876 279.041 441.342C272.341 440.275 265.64 440.275 258.424 441.342C254.817 441.876 251.724 442.41 248.116 442.41C155.858 454.686 88.3389 463.759 88.3389 463.759" stroke="#F2F2F2" stroke-width="0.5" stroke-miterlimit="10"/>
<path d="M666.114 367.153C666.114 367.153 584.164 376.76 478.505 389.57C474.382 390.637 470.774 391.705 467.166 392.238C446.549 395.975 428.51 405.582 410.471 419.459C399.647 429.066 386.762 433.87 372.846 430.667C347.591 424.796 323.366 411.453 297.08 415.723C293.988 415.723 290.895 415.723 287.287 415.723C271.31 416.257 255.332 416.257 239.354 418.391C235.746 418.925 231.623 419.459 228.015 419.993C103.801 434.937 1.23438 447.213 1.23438 447.213" stroke="#F2F2F2" stroke-width="0.5" stroke-miterlimit="10"/>
<path d="M591.381 358.08C591.381 358.08 540.87 363.417 468.197 371.423C464.59 371.957 461.497 372.49 458.405 373.024C429.542 375.159 406.863 392.239 380.062 403.981C374.908 406.65 368.723 405.582 362.023 403.981C342.437 398.11 322.852 390.104 301.72 390.104C297.081 390.104 292.442 390.637 287.804 391.171C269.249 393.306 250.694 395.441 232.139 396.509C228.016 397.042 224.408 397.576 220.285 397.576C65.1461 414.656 -79.1689 430.668 -79.1689 430.668" stroke="#F2F2F2" stroke-width="0.5" stroke-miterlimit="10"/>
<path d="M520.254 349.006C520.254 349.006 485.721 352.208 432.118 358.079C429.026 359.147 425.933 359.681 422.841 360.214C383.154 370.355 346.045 379.429 303.781 372.49C295.535 371.423 286.773 372.49 278.011 373.558C273.887 374.091 270.279 374.091 266.156 374.625C74.9387 393.84 -154.935 416.79 -154.935 416.79" stroke="#F2F2F2" stroke-width="0.5" stroke-miterlimit="10"/>
<path d="M453.339 262L916.178 319.11C916.178 319.11 674.45 359.14 489.933 389.563C486.84 390.097 483.233 390.63 480.14 391.164C461.07 393.833 443.546 399.17 427.053 410.912C402.829 429.593 386.851 464.819 358.503 461.083C328.094 456.813 305.931 426.924 273.46 421.587C269.337 420.519 265.729 419.986 261.606 419.452C257.998 418.918 254.39 417.851 250.267 417.317C137.392 395.434 -223.911 324.447 -223.911 324.447C-223.911 324.447 110.075 293.49 309.024 275.343C312.116 275.877 315.209 275.877 318.301 275.877C341.495 275.877 365.719 272.675 388.397 268.939C393.551 267.871 398.19 267.337 402.829 266.804C434.269 263.601 453.339 262 453.339 262Z" stroke="#F2F2F2" stroke-width="0.5" stroke-miterlimit="10"/>
<path d="M-78.0498 310.57C-78.0498 310.57 99.767 342.06 244.597 367.146C248.205 367.68 252.329 368.747 255.936 369.281C263.668 370.348 270.883 372.483 277.584 375.152C281.192 376.753 284.284 377.82 287.892 379.955C290.984 382.09 294.077 384.225 297.685 386.36C325.517 403.974 338.918 452.01 374.996 441.869C393.551 436.531 407.467 422.654 423.96 413.047" stroke="#F2F2F2" stroke-width="0.5" stroke-miterlimit="10"/>
<path d="M51.3184 298.828C51.3184 298.828 127.599 311.104 220.373 326.048C223.981 326.582 228.104 327.116 231.712 327.649C248.205 329.251 264.183 332.987 279.645 337.257C283.769 338.324 287.377 339.392 291.5 340.993C311.085 346.864 327.579 357.005 346.133 367.146C360.049 374.618 373.45 383.692 389.428 381.557C420.353 377.287 449.216 362.876 481.171 367.68C484.779 368.213 487.871 368.747 491.479 369.281C527.558 375.152 550.751 378.888 550.751 378.888" stroke="#F2F2F2" stroke-width="0.5" stroke-miterlimit="10"/>
<path d="M167.801 288.153C167.801 288.153 211.095 294.558 271.914 303.631C275.006 304.165 278.614 304.699 281.707 305.232C285.314 305.766 288.407 306.3 292.015 306.834C321.393 311.103 344.587 328.717 369.842 344.729C380.15 351.134 391.489 352.735 403.859 348.999C430.66 340.993 455.4 328.717 482.201 335.122C485.809 335.655 488.902 336.189 492.51 336.189C583.737 349.532 658.472 360.741 658.472 360.741" stroke="#F2F2F2" stroke-width="0.5" stroke-miterlimit="10"/>
<path d="M272.43 278.546C272.43 278.546 277.068 279.08 285.83 280.681C288.923 281.215 292.015 281.748 295.623 282.282C323.455 285.484 347.164 302.564 373.45 310.036C377.573 310.57 382.728 311.637 386.851 311.637C421.383 307.901 454.885 303.631 488.902 309.503C493.026 310.036 497.149 310.57 500.757 311.104C625.486 328.183 754.339 346.33 754.339 346.33" stroke="#F2F2F2" stroke-width="0.5" stroke-miterlimit="10"/>
<path d="M365.719 272.675C382.727 274.81 398.705 276.411 416.229 276.944C426.537 277.478 437.876 279.079 450.246 280.681C585.799 298.294 840.412 331.385 840.412 331.385" stroke="#F2F2F2" stroke-width="0.5" stroke-miterlimit="10"/>
<path d="M828.042 307.901C828.042 307.901 656.41 333.521 489.933 358.073C486.325 358.606 482.202 359.14 478.594 359.674C434.268 368.747 397.159 393.833 369.327 429.593C363.657 437.065 352.318 435.998 345.102 430.661C323.97 415.716 306.446 391.164 279.13 390.63C274.491 390.63 269.852 390.63 265.729 391.164C260.059 391.698 254.39 392.765 249.236 393.299C208.003 399.17 182.232 403.44 182.232 403.44" stroke="#F2F2F2" stroke-width="0.5" stroke-miterlimit="10"/>
<path d="M745.061 297.76C745.061 297.76 616.209 314.84 472.409 334.054C468.286 335.122 464.678 336.189 461.07 337.257C457.977 338.858 453.854 338.858 450.246 340.993C421.383 358.072 394.582 379.956 359.018 377.821C350.772 377.287 345.618 385.827 337.887 386.894C333.248 387.428 328.609 385.293 325.001 383.158C313.147 375.686 302.323 367.146 288.923 364.477C285.83 363.41 282.222 362.876 279.13 362.342C272.429 361.275 265.729 361.275 258.513 362.342C254.905 362.876 251.813 363.41 248.205 363.41C155.947 375.686 88.4277 384.759 88.4277 384.759" stroke="#F2F2F2" stroke-width="0.5" stroke-miterlimit="10"/>
<path d="M666.203 288.153C666.203 288.153 584.253 297.76 478.594 310.57C474.47 311.637 470.863 312.705 467.255 313.238C446.638 316.975 428.599 326.582 410.559 340.459C399.736 350.066 386.851 354.87 372.935 351.667C347.679 345.796 323.455 332.453 297.169 336.723C294.077 336.723 290.984 336.723 287.376 336.723C271.399 337.257 255.421 337.257 239.443 339.391C235.835 339.925 231.712 340.459 228.104 340.993C103.89 355.937 1.32324 368.213 1.32324 368.213" stroke="#F2F2F2" stroke-width="0.5" stroke-miterlimit="10"/>
<path d="M591.469 279.08C591.469 279.08 540.959 284.417 468.286 292.423C464.678 292.957 461.586 293.49 458.493 294.024C429.63 296.159 406.952 313.239 380.151 324.981C374.997 327.65 368.812 326.582 362.112 324.981C342.526 319.11 322.94 311.104 301.809 311.104C297.17 311.104 292.531 311.637 287.892 312.171C269.338 314.306 250.783 316.441 232.228 317.509C228.105 318.042 224.497 318.576 220.374 318.576C65.235 335.656 -79.0801 351.668 -79.0801 351.668" stroke="#F2F2F2" stroke-width="0.5" stroke-miterlimit="10"/>
<path d="M520.343 270.006C520.343 270.006 485.81 273.208 432.207 279.079C429.115 280.147 426.022 280.681 422.93 281.214C383.243 291.355 346.134 300.429 303.87 293.49C295.623 292.423 286.861 293.49 278.099 294.558C273.976 295.091 270.368 295.091 266.245 295.625C75.0275 314.84 -154.846 337.79 -154.846 337.79" stroke="#F2F2F2" stroke-width="0.5" stroke-miterlimit="10"/>
<path d="M453.339 170L916.178 227.11C916.178 227.11 674.45 267.14 489.933 297.563C486.84 298.097 483.233 298.63 480.14 299.164C461.07 301.833 443.546 307.17 427.053 318.912C402.829 337.593 386.851 372.819 358.503 369.083C328.094 364.813 305.931 334.924 273.46 329.587C269.337 328.519 265.729 327.986 261.606 327.452C257.998 326.918 254.39 325.851 250.267 325.317C137.392 303.434 -223.911 232.447 -223.911 232.447C-223.911 232.447 110.075 201.49 309.024 183.343C312.116 183.877 315.209 183.877 318.301 183.877C341.495 183.877 365.719 180.675 388.397 176.939C393.551 175.871 398.19 175.337 402.829 174.804C434.269 171.601 453.339 170 453.339 170Z" stroke="#F2F2F2" stroke-width="0.5" stroke-miterlimit="10"/>
<path d="M-78.0498 218.57C-78.0498 218.57 99.767 250.06 244.597 275.146C248.205 275.68 252.329 276.747 255.936 277.281C263.668 278.348 270.883 280.483 277.584 283.152C281.192 284.753 284.284 285.82 287.892 287.955C290.984 290.09 294.077 292.225 297.685 294.36C325.517 311.974 338.918 360.01 374.996 349.869C393.551 344.531 407.467 330.654 423.96 321.047" stroke="#F2F2F2" stroke-width="0.5" stroke-miterlimit="10"/>
<path d="M51.3184 206.828C51.3184 206.828 127.599 219.104 220.373 234.048C223.981 234.582 228.104 235.116 231.712 235.649C248.205 237.251 264.183 240.987 279.645 245.257C283.769 246.324 287.377 247.392 291.5 248.993C311.085 254.864 327.579 265.005 346.133 275.146C360.049 282.618 373.45 291.692 389.428 289.557C420.353 285.287 449.216 270.876 481.171 275.68C484.779 276.213 487.871 276.747 491.479 277.281C527.558 283.152 550.751 286.888 550.751 286.888" stroke="#F2F2F2" stroke-width="0.5" stroke-miterlimit="10"/>
<path d="M167.801 196.153C167.801 196.153 211.095 202.558 271.914 211.631C275.006 212.165 278.614 212.699 281.707 213.232C285.314 213.766 288.407 214.3 292.015 214.834C321.393 219.103 344.587 236.717 369.842 252.729C380.15 259.134 391.489 260.735 403.859 256.999C430.66 248.993 455.4 236.717 482.201 243.122C485.809 243.655 488.902 244.189 492.51 244.189C583.737 257.532 658.472 268.741 658.472 268.741" stroke="#F2F2F2" stroke-width="0.5" stroke-miterlimit="10"/>
<path d="M272.43 186.546C272.43 186.546 277.068 187.08 285.83 188.681C288.923 189.215 292.015 189.748 295.623 190.282C323.455 193.484 347.164 210.564 373.45 218.036C377.573 218.57 382.728 219.637 386.851 219.637C421.383 215.901 454.885 211.631 488.902 217.503C493.026 218.036 497.149 218.57 500.757 219.104C625.486 236.183 754.339 254.33 754.339 254.33" stroke="#F2F2F2" stroke-width="0.5" stroke-miterlimit="10"/>
<path d="M365.719 180.675C382.727 182.81 398.705 184.411 416.229 184.944C426.537 185.478 437.876 187.079 450.246 188.681C585.799 206.294 840.412 239.385 840.412 239.385" stroke="#F2F2F2" stroke-width="0.5" stroke-miterlimit="10"/>
<path d="M828.042 215.901C828.042 215.901 656.41 241.521 489.933 266.073C486.325 266.606 482.202 267.14 478.594 267.674C434.268 276.747 397.159 301.833 369.327 337.593C363.657 345.065 352.318 343.998 345.102 338.661C323.97 323.716 306.446 299.164 279.13 298.63C274.491 298.63 269.852 298.63 265.729 299.164C260.059 299.698 254.39 300.765 249.236 301.299C208.003 307.17 182.232 311.44 182.232 311.44" stroke="#F2F2F2" stroke-width="0.5" stroke-miterlimit="10"/>
<path d="M745.061 205.76C745.061 205.76 616.209 222.84 472.409 242.054C468.286 243.122 464.678 244.189 461.07 245.257C457.977 246.858 453.854 246.858 450.246 248.993C421.383 266.072 394.582 287.956 359.018 285.821C350.772 285.287 345.618 293.827 337.887 294.894C333.248 295.428 328.609 293.293 325.001 291.158C313.147 283.686 302.323 275.146 288.923 272.477C285.83 271.41 282.222 270.876 279.13 270.342C272.429 269.275 265.729 269.275 258.513 270.342C254.905 270.876 251.813 271.41 248.205 271.41C155.947 283.686 88.4277 292.759 88.4277 292.759" stroke="#F2F2F2" stroke-width="0.5" stroke-miterlimit="10"/>
<path d="M666.203 196.153C666.203 196.153 584.253 205.76 478.594 218.57C474.47 219.637 470.863 220.705 467.255 221.238C446.638 224.975 428.599 234.582 410.559 248.459C399.736 258.066 386.851 262.87 372.935 259.667C347.679 253.796 323.455 240.453 297.169 244.723C294.077 244.723 290.984 244.723 287.376 244.723C271.399 245.257 255.421 245.257 239.443 247.391C235.835 247.925 231.712 248.459 228.104 248.993C103.89 263.937 1.32324 276.213 1.32324 276.213" stroke="#F2F2F2" stroke-width="0.5" stroke-miterlimit="10"/>
<path d="M591.469 187.08C591.469 187.08 540.959 192.417 468.286 200.423C464.678 200.957 461.586 201.49 458.493 202.024C429.63 204.159 406.952 221.239 380.151 232.981C374.997 235.65 368.812 234.582 362.112 232.981C342.526 227.11 322.94 219.104 301.809 219.104C297.17 219.104 292.531 219.637 287.892 220.171C269.338 222.306 250.783 224.441 232.228 225.509C228.105 226.042 224.497 226.576 220.374 226.576C65.235 243.656 -79.0801 259.668 -79.0801 259.668" stroke="#F2F2F2" stroke-width="0.5" stroke-miterlimit="10"/>
<path d="M520.343 178.006C520.343 178.006 485.81 181.208 432.207 187.079C429.115 188.147 426.022 188.681 422.93 189.214C383.243 199.355 346.134 208.429 303.87 201.49C295.623 200.423 286.861 201.49 278.099 202.558C273.976 203.091 270.368 203.091 266.245 203.625C75.0275 222.84 -154.846 245.79 -154.846 245.79" stroke="#F2F2F2" stroke-width="0.5" stroke-miterlimit="10"/>
<path d="M453.25 262L916.089 319.11C916.089 319.11 674.361 359.14 489.844 389.563C486.752 390.097 483.144 390.63 480.051 391.164C460.981 393.833 443.457 399.17 426.964 410.912C402.74 429.593 386.762 464.819 358.414 461.083C328.005 456.813 305.842 426.924 273.372 421.587C269.248 420.519 265.64 419.986 261.517 419.452C257.909 418.918 254.301 417.851 250.178 417.317C137.303 395.434 -224 324.447 -224 324.447C-224 324.447 109.986 293.49 308.935 275.343C312.027 275.877 315.12 275.877 318.212 275.877C341.406 275.877 365.63 272.675 388.308 268.939C393.462 267.871 398.101 267.337 402.74 266.804C434.18 263.601 453.25 262 453.25 262Z" stroke="#F2F2F2" stroke-width="0.5" stroke-miterlimit="10"/>
<path d="M-78.1387 310.57C-78.1387 310.57 99.6781 342.06 244.509 367.146C248.116 367.68 252.24 368.747 255.848 369.281C263.579 370.348 270.795 372.483 277.495 375.152C281.103 376.753 284.195 377.82 287.803 379.955C290.896 382.09 293.988 384.225 297.596 386.36C325.428 403.974 338.829 452.01 374.907 441.869C393.462 436.531 407.378 422.654 423.872 413.047" stroke="#F2F2F2" stroke-width="0.5" stroke-miterlimit="10"/>
<path d="M51.2295 298.828C51.2295 298.828 127.51 311.104 220.284 326.048C223.892 326.582 228.015 327.116 231.623 327.649C248.116 329.251 264.094 332.987 279.556 337.257C283.68 338.324 287.288 339.392 291.411 340.993C310.997 346.864 327.49 357.005 346.044 367.146C359.961 374.618 373.361 383.692 389.339 381.557C420.264 377.287 449.127 362.876 481.082 367.68C484.69 368.213 487.782 368.747 491.39 369.281C527.469 375.152 550.663 378.888 550.663 378.888" stroke="#F2F2F2" stroke-width="0.5" stroke-miterlimit="10"/>
<path d="M167.712 288.153C167.712 288.153 211.006 294.558 271.825 303.631C274.917 304.165 278.525 304.699 281.618 305.232C285.226 305.766 288.318 306.3 291.926 306.834C321.304 311.103 344.498 328.717 369.753 344.729C380.061 351.134 391.4 352.735 403.77 348.999C430.571 340.993 455.311 328.717 482.113 335.122C485.72 335.655 488.813 336.189 492.421 336.189C583.648 349.532 658.383 360.741 658.383 360.741" stroke="#F2F2F2" stroke-width="0.5" stroke-miterlimit="10"/>
<path d="M272.341 278.546C272.341 278.546 276.98 279.08 285.741 280.681C288.834 281.215 291.926 281.748 295.534 282.282C323.366 285.484 347.075 302.564 373.361 310.036C377.485 310.57 382.639 311.637 386.762 311.637C421.295 307.901 454.796 303.631 488.813 309.503C492.937 310.036 497.06 310.57 500.668 311.104C625.397 328.183 754.25 346.33 754.25 346.33" stroke="#F2F2F2" stroke-width="0.5" stroke-miterlimit="10"/>
<path d="M365.63 272.675C382.638 274.81 398.616 276.411 416.14 276.944C426.448 277.478 437.787 279.079 450.157 280.681C585.71 298.294 840.323 331.385 840.323 331.385" stroke="#F2F2F2" stroke-width="0.5" stroke-miterlimit="10"/>
<path d="M827.953 307.901C827.953 307.901 656.322 333.521 489.844 358.073C486.236 358.606 482.113 359.14 478.505 359.674C434.18 368.747 397.07 393.833 369.238 429.593C363.568 437.065 352.229 435.998 345.013 430.661C323.882 415.716 306.358 391.164 279.041 390.63C274.402 390.63 269.763 390.63 265.64 391.164C259.971 391.698 254.301 392.765 249.147 393.299C207.914 399.17 182.144 403.44 182.144 403.44" stroke="#F2F2F2" stroke-width="0.5" stroke-miterlimit="10"/>
<path d="M744.972 297.76C744.972 297.76 616.12 314.84 472.32 334.054C468.197 335.122 464.589 336.189 460.981 337.257C457.888 338.858 453.765 338.858 450.157 340.993C421.294 358.072 394.493 379.956 358.93 377.821C350.683 377.287 345.529 385.827 337.798 386.894C333.159 387.428 328.52 385.293 324.912 383.158C313.058 375.686 302.234 367.146 288.834 364.477C285.741 363.41 282.133 362.876 279.041 362.342C272.341 361.275 265.64 361.275 258.424 362.342C254.817 362.876 251.724 363.41 248.116 363.41C155.858 375.686 88.3389 384.759 88.3389 384.759" stroke="#F2F2F2" stroke-width="0.5" stroke-miterlimit="10"/>
<path d="M666.114 288.153C666.114 288.153 584.164 297.76 478.505 310.57C474.382 311.637 470.774 312.705 467.166 313.238C446.549 316.975 428.51 326.582 410.471 340.459C399.647 350.066 386.762 354.87 372.846 351.667C347.591 345.796 323.366 332.453 297.08 336.723C293.988 336.723 290.895 336.723 287.287 336.723C271.31 337.257 255.332 337.257 239.354 339.391C235.746 339.925 231.623 340.459 228.015 340.993C103.801 355.937 1.23438 368.213 1.23438 368.213" stroke="#F2F2F2" stroke-width="0.5" stroke-miterlimit="10"/>
<path d="M591.381 279.08C591.381 279.08 540.87 284.417 468.197 292.423C464.59 292.957 461.497 293.49 458.405 294.024C429.542 296.159 406.863 313.239 380.062 324.981C374.908 327.65 368.723 326.582 362.023 324.981C342.437 319.11 322.852 311.104 301.72 311.104C297.081 311.104 292.442 311.637 287.804 312.171C269.249 314.306 250.694 316.441 232.139 317.509C228.016 318.042 224.408 318.576 220.285 318.576C65.1461 335.656 -79.1689 351.668 -79.1689 351.668" stroke="#F2F2F2" stroke-width="0.5" stroke-miterlimit="10"/>
<path d="M520.254 270.006C520.254 270.006 485.721 273.208 432.118 279.079C429.026 280.147 425.933 280.681 422.841 281.214C383.154 291.355 346.045 300.429 303.781 293.49C295.535 292.423 286.773 293.49 278.011 294.558C273.887 295.091 270.279 295.091 266.156 295.625C74.9387 314.84 -154.935 337.79 -154.935 337.79" stroke="#F2F2F2" stroke-width="0.5" stroke-miterlimit="10"/>
<path d="M453.339 209L916.178 266.11C916.178 266.11 674.45 306.14 489.933 336.563C486.84 337.097 483.233 337.63 480.14 338.164C461.07 340.833 443.546 346.17 427.053 357.912C402.829 376.593 386.851 411.819 358.503 408.083C328.094 403.813 305.931 373.924 273.46 368.587C269.337 367.519 265.729 366.986 261.606 366.452C257.998 365.918 254.39 364.851 250.267 364.317C137.392 342.434 -223.911 271.447 -223.911 271.447C-223.911 271.447 110.075 240.49 309.024 222.343C312.116 222.877 315.209 222.877 318.301 222.877C341.495 222.877 365.719 219.675 388.397 215.939C393.551 214.871 398.19 214.337 402.829 213.804C434.269 210.601 453.339 209 453.339 209Z" stroke="#F2F2F2" stroke-width="0.5" stroke-miterlimit="10"/>
<path d="M-78.0498 257.57C-78.0498 257.57 99.767 289.06 244.597 314.146C248.205 314.68 252.329 315.747 255.936 316.281C263.668 317.348 270.883 319.483 277.584 322.152C281.192 323.753 284.284 324.82 287.892 326.955C290.984 329.09 294.077 331.225 297.685 333.36C325.517 350.974 338.918 399.01 374.996 388.869C393.551 383.531 407.467 369.654 423.96 360.047" stroke="#F2F2F2" stroke-width="0.5" stroke-miterlimit="10"/>
<path d="M51.3184 245.828C51.3184 245.828 127.599 258.104 220.373 273.048C223.981 273.582 228.104 274.116 231.712 274.649C248.205 276.251 264.183 279.987 279.645 284.257C283.769 285.324 287.377 286.392 291.5 287.993C311.085 293.864 327.579 304.005 346.133 314.146C360.049 321.618 373.45 330.692 389.428 328.557C420.353 324.287 449.216 309.876 481.171 314.68C484.779 315.213 487.871 315.747 491.479 316.281C527.558 322.152 550.751 325.888 550.751 325.888" stroke="#F2F2F2" stroke-width="0.5" stroke-miterlimit="10"/>
<path d="M167.801 235.153C167.801 235.153 211.095 241.558 271.914 250.631C275.006 251.165 278.614 251.699 281.707 252.232C285.314 252.766 288.407 253.3 292.015 253.834C321.393 258.103 344.587 275.717 369.842 291.729C380.15 298.134 391.489 299.735 403.859 295.999C430.66 287.993 455.4 275.717 482.201 282.122C485.809 282.655 488.902 283.189 492.51 283.189C583.737 296.532 658.472 307.741 658.472 307.741" stroke="#F2F2F2" stroke-width="0.5" stroke-miterlimit="10"/>
<path d="M272.43 225.546C272.43 225.546 277.068 226.08 285.83 227.681C288.923 228.215 292.015 228.748 295.623 229.282C323.455 232.484 347.164 249.564 373.45 257.036C377.573 257.57 382.728 258.637 386.851 258.637C421.383 254.901 454.885 250.631 488.902 256.503C493.026 257.036 497.149 257.57 500.757 258.104C625.486 275.183 754.339 293.33 754.339 293.33" stroke="#F2F2F2" stroke-width="0.5" stroke-miterlimit="10"/>
<path d="M365.719 219.675C382.727 221.81 398.705 223.411 416.229 223.944C426.537 224.478 437.876 226.079 450.246 227.681C585.799 245.294 840.412 278.385 840.412 278.385" stroke="#F2F2F2" stroke-width="0.5" stroke-miterlimit="10"/>
<path d="M828.042 254.901C828.042 254.901 656.41 280.521 489.933 305.073C486.325 305.606 482.202 306.14 478.594 306.674C434.268 315.747 397.159 340.833 369.327 376.593C363.657 384.065 352.318 382.998 345.102 377.661C323.97 362.716 306.446 338.164 279.13 337.63C274.491 337.63 269.852 337.63 265.729 338.164C260.059 338.698 254.39 339.765 249.236 340.299C208.003 346.17 182.232 350.44 182.232 350.44" stroke="#F2F2F2" stroke-width="0.5" stroke-miterlimit="10"/>
<path d="M745.061 244.76C745.061 244.76 616.209 261.84 472.409 281.054C468.286 282.122 464.678 283.189 461.07 284.257C457.977 285.858 453.854 285.858 450.246 287.993C421.383 305.072 394.582 326.956 359.018 324.821C350.772 324.287 345.618 332.827 337.887 333.894C333.248 334.428 328.609 332.293 325.001 330.158C313.147 322.686 302.323 314.146 288.923 311.477C285.83 310.41 282.222 309.876 279.13 309.342C272.429 308.275 265.729 308.275 258.513 309.342C254.905 309.876 251.813 310.41 248.205 310.41C155.947 322.686 88.4277 331.759 88.4277 331.759" stroke="#F2F2F2" stroke-width="0.5" stroke-miterlimit="10"/>
<path d="M666.203 235.153C666.203 235.153 584.253 244.76 478.594 257.57C474.47 258.637 470.863 259.705 467.255 260.238C446.638 263.975 428.599 273.582 410.559 287.459C399.736 297.066 386.851 301.87 372.935 298.667C347.679 292.796 323.455 279.453 297.169 283.723C294.077 283.723 290.984 283.723 287.376 283.723C271.399 284.257 255.421 284.257 239.443 286.391C235.835 286.925 231.712 287.459 228.104 287.993C103.89 302.937 1.32324 315.213 1.32324 315.213" stroke="#F2F2F2" stroke-width="0.5" stroke-miterlimit="10"/>
<path d="M591.469 226.08C591.469 226.08 540.959 231.417 468.286 239.423C464.678 239.957 461.586 240.49 458.493 241.024C429.63 243.159 406.952 260.239 380.151 271.981C374.997 274.65 368.812 273.582 362.112 271.981C342.526 266.11 322.94 258.104 301.809 258.104C297.17 258.104 292.531 258.637 287.892 259.171C269.338 261.306 250.783 263.441 232.228 264.509C228.105 265.042 224.497 265.576 220.374 265.576C65.235 282.656 -79.0801 298.668 -79.0801 298.668" stroke="#F2F2F2" stroke-width="0.5" stroke-miterlimit="10"/>
<path d="M520.343 217.006C520.343 217.006 485.81 220.208 432.207 226.079C429.115 227.147 426.022 227.681 422.93 228.214C383.243 238.355 346.134 247.429 303.87 240.49C295.623 239.423 286.861 240.49 278.099 241.558C273.976 242.091 270.368 242.091 266.245 242.625C75.0275 261.84 -154.846 284.79 -154.846 284.79" stroke="#F2F2F2" stroke-width="0.5" stroke-miterlimit="10"/>
<path d="M453.339 91L916.178 148.11C916.178 148.11 674.45 188.14 489.933 218.563C486.84 219.097 483.233 219.63 480.14 220.164C461.07 222.833 443.546 228.17 427.053 239.912C402.829 258.593 386.851 293.819 358.503 290.083C328.094 285.813 305.931 255.924 273.46 250.587C269.337 249.519 265.729 248.986 261.606 248.452C257.998 247.918 254.39 246.851 250.267 246.317C137.392 224.434 -223.911 153.447 -223.911 153.447C-223.911 153.447 110.075 122.49 309.024 104.343C312.116 104.877 315.209 104.877 318.301 104.877C341.495 104.877 365.719 101.675 388.397 97.9386C393.551 96.8711 398.19 96.3374 402.829 95.8036C434.269 92.6012 453.339 91 453.339 91Z" stroke="#F2F2F2" stroke-width="0.5" stroke-miterlimit="10"/>
<path d="M-78.0498 139.57C-78.0498 139.57 99.767 171.06 244.597 196.146C248.205 196.68 252.329 197.747 255.936 198.281C263.668 199.348 270.883 201.483 277.584 204.152C281.192 205.753 284.284 206.82 287.892 208.955C290.984 211.09 294.077 213.225 297.685 215.36C325.517 232.974 338.918 281.01 374.996 270.869C393.551 265.531 407.467 251.654 423.96 242.047" stroke="#F2F2F2" stroke-width="0.5" stroke-miterlimit="10"/>
<path d="M51.3184 127.828C51.3184 127.828 127.599 140.104 220.373 155.048C223.981 155.582 228.104 156.116 231.712 156.649C248.205 158.251 264.183 161.987 279.645 166.257C283.769 167.324 287.377 168.392 291.5 169.993C311.085 175.864 327.579 186.005 346.133 196.146C360.049 203.618 373.45 212.692 389.428 210.557C420.353 206.287 449.216 191.876 481.171 196.68C484.779 197.213 487.871 197.747 491.479 198.281C527.558 204.152 550.751 207.888 550.751 207.888" stroke="#F2F2F2" stroke-width="0.5" stroke-miterlimit="10"/>
<path d="M167.801 117.153C167.801 117.153 211.095 123.558 271.914 132.631C275.006 133.165 278.614 133.699 281.707 134.232C285.314 134.766 288.407 135.3 292.015 135.834C321.393 140.103 344.587 157.717 369.842 173.729C380.15 180.134 391.489 181.735 403.859 177.999C430.66 169.993 455.4 157.717 482.201 164.122C485.809 164.655 488.902 165.189 492.51 165.189C583.737 178.532 658.472 189.741 658.472 189.741" stroke="#F2F2F2" stroke-width="0.5" stroke-miterlimit="10"/>
<path d="M272.43 107.546C272.43 107.546 277.068 108.08 285.83 109.681C288.923 110.215 292.015 110.748 295.623 111.282C323.455 114.484 347.164 131.564 373.45 139.036C377.573 139.57 382.728 140.637 386.851 140.637C421.383 136.901 454.885 132.631 488.902 138.503C493.026 139.036 497.149 139.57 500.757 140.104C625.486 157.183 754.339 175.33 754.339 175.33" stroke="#F2F2F2" stroke-width="0.5" stroke-miterlimit="10"/>
<path d="M365.719 101.675C382.727 103.81 398.705 105.411 416.229 105.944C426.537 106.478 437.876 108.079 450.246 109.681C585.799 127.294 840.412 160.385 840.412 160.385" stroke="#F2F2F2" stroke-width="0.5" stroke-miterlimit="10"/>
<path d="M828.042 136.901C828.042 136.901 656.41 162.521 489.933 187.073C486.325 187.606 482.202 188.14 478.594 188.674C434.268 197.747 397.159 222.833 369.327 258.593C363.657 266.065 352.318 264.998 345.102 259.661C323.97 244.716 306.446 220.164 279.13 219.63C274.491 219.63 269.852 219.63 265.729 220.164C260.059 220.698 254.39 221.765 249.236 222.299C208.003 228.17 182.232 232.44 182.232 232.44" stroke="#F2F2F2" stroke-width="0.5" stroke-miterlimit="10"/>
<path d="M745.061 126.76C745.061 126.76 616.209 143.84 472.409 163.054C468.286 164.122 464.678 165.189 461.07 166.257C457.977 167.858 453.854 167.858 450.246 169.993C421.383 187.072 394.582 208.956 359.018 206.821C350.772 206.287 345.618 214.827 337.887 215.894C333.248 216.428 328.609 214.293 325.001 212.158C313.147 204.686 302.323 196.146 288.923 193.477C285.83 192.41 282.222 191.876 279.13 191.342C272.429 190.275 265.729 190.275 258.513 191.342C254.905 191.876 251.813 192.41 248.205 192.41C155.947 204.686 88.4277 213.759 88.4277 213.759" stroke="#F2F2F2" stroke-width="0.5" stroke-miterlimit="10"/>
<path d="M666.203 117.153C666.203 117.153 584.253 126.76 478.594 139.57C474.47 140.637 470.863 141.705 467.255 142.238C446.638 145.975 428.599 155.582 410.559 169.459C399.736 179.066 386.851 183.87 372.935 180.667C347.679 174.796 323.455 161.453 297.169 165.723C294.077 165.723 290.984 165.723 287.376 165.723C271.399 166.257 255.421 166.257 239.443 168.391C235.835 168.925 231.712 169.459 228.104 169.993C103.89 184.937 1.32324 197.213 1.32324 197.213" stroke="#F2F2F2" stroke-width="0.5" stroke-miterlimit="10"/>
<path d="M591.469 108.08C591.469 108.08 540.959 113.417 468.286 121.423C464.678 121.957 461.586 122.49 458.493 123.024C429.63 125.159 406.952 142.239 380.151 153.981C374.997 156.65 368.812 155.582 362.112 153.981C342.526 148.11 322.94 140.104 301.809 140.104C297.17 140.104 292.531 140.637 287.892 141.171C269.338 143.306 250.783 145.441 232.228 146.509C228.105 147.042 224.497 147.576 220.374 147.576C65.235 164.656 -79.0801 180.668 -79.0801 180.668" stroke="#F2F2F2" stroke-width="0.5" stroke-miterlimit="10"/>
<path d="M520.343 99.0059C520.343 99.0059 485.81 102.208 432.207 108.079C429.115 109.147 426.022 109.681 422.93 110.214C383.243 120.355 346.134 129.429 303.87 122.49C295.623 121.423 286.861 122.49 278.099 123.558C273.976 124.091 270.368 124.091 266.245 124.625C75.0275 143.84 -154.846 166.79 -154.846 166.79" stroke="#F2F2F2" stroke-width="0.5" stroke-miterlimit="10"/>
<path d="M453.25 170L916.089 227.11C916.089 227.11 674.361 267.14 489.844 297.563C486.752 298.097 483.144 298.63 480.051 299.164C460.981 301.833 443.457 307.17 426.964 318.912C402.74 337.593 386.762 372.819 358.414 369.083C328.005 364.813 305.842 334.924 273.372 329.587C269.248 328.519 265.64 327.986 261.517 327.452C257.909 326.918 254.301 325.851 250.178 325.317C137.303 303.434 -224 232.447 -224 232.447C-224 232.447 109.986 201.49 308.935 183.343C312.027 183.877 315.12 183.877 318.212 183.877C341.406 183.877 365.63 180.675 388.308 176.939C393.462 175.871 398.101 175.337 402.74 174.804C434.18 171.601 453.25 170 453.25 170Z" stroke="#F2F2F2" stroke-width="0.5" stroke-miterlimit="10"/>
<path d="M-78.1387 218.57C-78.1387 218.57 99.6781 250.06 244.509 275.146C248.116 275.68 252.24 276.747 255.848 277.281C263.579 278.348 270.795 280.483 277.495 283.152C281.103 284.753 284.195 285.82 287.803 287.955C290.896 290.09 293.988 292.225 297.596 294.36C325.428 311.974 338.829 360.01 374.907 349.869C393.462 344.531 407.378 330.654 423.872 321.047" stroke="#F2F2F2" stroke-width="0.5" stroke-miterlimit="10"/>
<path d="M51.2295 206.828C51.2295 206.828 127.51 219.104 220.284 234.048C223.892 234.582 228.015 235.116 231.623 235.649C248.116 237.251 264.094 240.987 279.556 245.257C283.68 246.324 287.288 247.392 291.411 248.993C310.997 254.864 327.49 265.005 346.044 275.146C359.961 282.618 373.361 291.692 389.339 289.557C420.264 285.287 449.127 270.876 481.082 275.68C484.69 276.213 487.782 276.747 491.39 277.281C527.469 283.152 550.663 286.888 550.663 286.888" stroke="#F2F2F2" stroke-width="0.5" stroke-miterlimit="10"/>
<path d="M167.712 196.153C167.712 196.153 211.006 202.558 271.825 211.631C274.917 212.165 278.525 212.699 281.618 213.232C285.226 213.766 288.318 214.3 291.926 214.834C321.304 219.103 344.498 236.717 369.753 252.729C380.061 259.134 391.4 260.735 403.77 256.999C430.571 248.993 455.311 236.717 482.113 243.122C485.72 243.655 488.813 244.189 492.421 244.189C583.648 257.532 658.383 268.741 658.383 268.741" stroke="#F2F2F2" stroke-width="0.5" stroke-miterlimit="10"/>
<path d="M272.341 186.546C272.341 186.546 276.98 187.08 285.741 188.681C288.834 189.215 291.926 189.748 295.534 190.282C323.366 193.484 347.075 210.564 373.361 218.036C377.485 218.57 382.639 219.637 386.762 219.637C421.295 215.901 454.796 211.631 488.813 217.503C492.937 218.036 497.06 218.57 500.668 219.104C625.397 236.183 754.25 254.33 754.25 254.33" stroke="#F2F2F2" stroke-width="0.5" stroke-miterlimit="10"/>
<path d="M365.63 180.675C382.638 182.81 398.616 184.411 416.14 184.944C426.448 185.478 437.787 187.079 450.157 188.681C585.71 206.294 840.323 239.385 840.323 239.385" stroke="#F2F2F2" stroke-width="0.5" stroke-miterlimit="10"/>
<path d="M827.953 215.901C827.953 215.901 656.322 241.521 489.844 266.073C486.236 266.606 482.113 267.14 478.505 267.674C434.18 276.747 397.07 301.833 369.238 337.593C363.568 345.065 352.229 343.998 345.013 338.661C323.882 323.716 306.358 299.164 279.041 298.63C274.402 298.63 269.763 298.63 265.64 299.164C259.971 299.698 254.301 300.765 249.147 301.299C207.914 307.17 182.144 311.44 182.144 311.44" stroke="#F2F2F2" stroke-width="0.5" stroke-miterlimit="10"/>
<path d="M744.972 205.76C744.972 205.76 616.12 222.84 472.32 242.054C468.197 243.122 464.589 244.189 460.981 245.257C457.888 246.858 453.765 246.858 450.157 248.993C421.294 266.072 394.493 287.956 358.93 285.821C350.683 285.287 345.529 293.827 337.798 294.894C333.159 295.428 328.52 293.293 324.912 291.158C313.058 283.686 302.234 275.146 288.834 272.477C285.741 271.41 282.133 270.876 279.041 270.342C272.341 269.275 265.64 269.275 258.424 270.342C254.817 270.876 251.724 271.41 248.116 271.41C155.858 283.686 88.3389 292.759 88.3389 292.759" stroke="#F2F2F2" stroke-width="0.5" stroke-miterlimit="10"/>
<path d="M666.114 196.153C666.114 196.153 584.164 205.76 478.505 218.57C474.382 219.637 470.774 220.705 467.166 221.238C446.549 224.975 428.51 234.582 410.471 248.459C399.647 258.066 386.762 262.87 372.846 259.667C347.591 253.796 323.366 240.453 297.08 244.723C293.988 244.723 290.895 244.723 287.287 244.723C271.31 245.257 255.332 245.257 239.354 247.391C235.746 247.925 231.623 248.459 228.015 248.993C103.801 263.937 1.23438 276.213 1.23438 276.213" stroke="#F2F2F2" stroke-width="0.5" stroke-miterlimit="10"/>
<path d="M591.381 187.08C591.381 187.08 540.87 192.417 468.197 200.423C464.59 200.957 461.497 201.49 458.405 202.024C429.542 204.159 406.863 221.239 380.062 232.981C374.908 235.65 368.723 234.582 362.023 232.981C342.437 227.11 322.852 219.104 301.72 219.104C297.081 219.104 292.442 219.637 287.804 220.171C269.249 222.306 250.694 224.441 232.139 225.509C228.016 226.042 224.408 226.576 220.285 226.576C65.1461 243.656 -79.1689 259.668 -79.1689 259.668" stroke="#F2F2F2" stroke-width="0.5" stroke-miterlimit="10"/>
<path d="M520.254 178.006C520.254 178.006 485.721 181.208 432.118 187.079C429.026 188.147 425.933 188.681 422.841 189.214C383.154 199.355 346.045 208.429 303.781 201.49C295.535 200.423 286.773 201.49 278.011 202.558C273.887 203.091 270.279 203.091 266.156 203.625C74.9387 222.84 -154.935 245.79 -154.935 245.79" stroke="#F2F2F2" stroke-width="0.5" stroke-miterlimit="10"/>
<path d="M453.339 91L916.178 148.11C916.178 148.11 674.45 188.14 489.933 218.563C486.84 219.097 483.233 219.63 480.14 220.164C461.07 222.833 443.546 228.17 427.053 239.912C402.829 258.593 386.851 293.819 358.503 290.083C328.094 285.813 305.931 255.924 273.46 250.587C269.337 249.519 265.729 248.986 261.606 248.452C257.998 247.918 254.39 246.851 250.267 246.317C137.392 224.434 -223.911 153.447 -223.911 153.447C-223.911 153.447 110.075 122.49 309.024 104.343C312.116 104.877 315.209 104.877 318.301 104.877C341.495 104.877 365.719 101.675 388.397 97.9386C393.551 96.8711 398.19 96.3374 402.829 95.8036C434.269 92.6012 453.339 91 453.339 91Z" stroke="#F2F2F2" stroke-width="0.5" stroke-miterlimit="10"/>
<path d="M-78.0498 139.57C-78.0498 139.57 99.767 171.06 244.597 196.146C248.205 196.68 252.329 197.747 255.936 198.281C263.668 199.348 270.883 201.483 277.584 204.152C281.192 205.753 284.284 206.82 287.892 208.955C290.984 211.09 294.077 213.225 297.685 215.36C325.517 232.974 338.918 281.01 374.996 270.869C393.551 265.531 407.467 251.654 423.96 242.047" stroke="#F2F2F2" stroke-width="0.5" stroke-miterlimit="10"/>
<path d="M51.3184 127.828C51.3184 127.828 127.599 140.104 220.373 155.048C223.981 155.582 228.104 156.116 231.712 156.649C248.205 158.251 264.183 161.987 279.645 166.257C283.769 167.324 287.377 168.392 291.5 169.993C311.085 175.864 327.579 186.005 346.133 196.146C360.049 203.618 373.45 212.692 389.428 210.557C420.353 206.287 449.216 191.876 481.171 196.68C484.779 197.213 487.871 197.747 491.479 198.281C527.558 204.152 550.751 207.888 550.751 207.888" stroke="#F2F2F2" stroke-width="0.5" stroke-miterlimit="10"/>
<path d="M167.801 117.153C167.801 117.153 211.095 123.558 271.914 132.631C275.006 133.165 278.614 133.699 281.707 134.232C285.314 134.766 288.407 135.3 292.015 135.834C321.393 140.103 344.587 157.717 369.842 173.729C380.15 180.134 391.489 181.735 403.859 177.999C430.66 169.993 455.4 157.717 482.201 164.122C485.809 164.655 488.902 165.189 492.51 165.189C583.737 178.532 658.472 189.741 658.472 189.741" stroke="#F2F2F2" stroke-width="0.5" stroke-miterlimit="10"/>
<path d="M272.43 107.546C272.43 107.546 277.068 108.08 285.83 109.681C288.923 110.215 292.015 110.748 295.623 111.282C323.455 114.484 347.164 131.564 373.45 139.036C377.573 139.57 382.728 140.637 386.851 140.637C421.383 136.901 454.885 132.631 488.902 138.503C493.026 139.036 497.149 139.57 500.757 140.104C625.486 157.183 754.339 175.33 754.339 175.33" stroke="#F2F2F2" stroke-width="0.5" stroke-miterlimit="10"/>
<path d="M365.719 101.675C382.727 103.81 398.705 105.411 416.229 105.944C426.537 106.478 437.876 108.079 450.246 109.681C585.799 127.294 840.412 160.385 840.412 160.385" stroke="#F2F2F2" stroke-width="0.5" stroke-miterlimit="10"/>
<path d="M828.042 136.901C828.042 136.901 656.41 162.521 489.933 187.073C486.325 187.606 482.202 188.14 478.594 188.674C434.268 197.747 397.159 222.833 369.327 258.593C363.657 266.065 352.318 264.998 345.102 259.661C323.97 244.716 306.446 220.164 279.13 219.63C274.491 219.63 269.852 219.63 265.729 220.164C260.059 220.698 254.39 221.765 249.236 222.299C208.003 228.17 182.232 232.44 182.232 232.44" stroke="#F2F2F2" stroke-width="0.5" stroke-miterlimit="10"/>
<path d="M745.061 126.76C745.061 126.76 616.209 143.84 472.409 163.054C468.286 164.122 464.678 165.189 461.07 166.257C457.977 167.858 453.854 167.858 450.246 169.993C421.383 187.072 394.582 208.956 359.018 206.821C350.772 206.287 345.618 214.827 337.887 215.894C333.248 216.428 328.609 214.293 325.001 212.158C313.147 204.686 302.323 196.146 288.923 193.477C285.83 192.41 282.222 191.876 279.13 191.342C272.429 190.275 265.729 190.275 258.513 191.342C254.905 191.876 251.813 192.41 248.205 192.41C155.947 204.686 88.4277 213.759 88.4277 213.759" stroke="#F2F2F2" stroke-width="0.5" stroke-miterlimit="10"/>
<path d="M666.203 117.153C666.203 117.153 584.253 126.76 478.594 139.57C474.47 140.637 470.863 141.705 467.255 142.238C446.638 145.975 428.599 155.582 410.559 169.459C399.736 179.066 386.851 183.87 372.935 180.667C347.679 174.796 323.455 161.453 297.169 165.723C294.077 165.723 290.984 165.723 287.376 165.723C271.399 166.257 255.421 166.257 239.443 168.391C235.835 168.925 231.712 169.459 228.104 169.993C103.89 184.937 1.32324 197.213 1.32324 197.213" stroke="#F2F2F2" stroke-width="0.5" stroke-miterlimit="10"/>
<path d="M591.469 108.08C591.469 108.08 540.959 113.417 468.286 121.423C464.678 121.957 461.586 122.49 458.493 123.024C429.63 125.159 406.952 142.239 380.151 153.981C374.997 156.65 368.812 155.582 362.112 153.981C342.526 148.11 322.94 140.104 301.809 140.104C297.17 140.104 292.531 140.637 287.892 141.171C269.338 143.306 250.783 145.441 232.228 146.509C228.105 147.042 224.497 147.576 220.374 147.576C65.235 164.656 -79.0801 180.668 -79.0801 180.668" stroke="#F2F2F2" stroke-width="0.5" stroke-miterlimit="10"/>
<path d="M520.343 99.0059C520.343 99.0059 485.81 102.208 432.207 108.079C429.115 109.147 426.022 109.681 422.93 110.214C383.243 120.355 346.134 129.429 303.87 122.49C295.623 121.423 286.861 122.49 278.099 123.558C273.976 124.091 270.368 124.091 266.245 124.625C75.0275 143.84 -154.846 166.79 -154.846 166.79" stroke="#F2F2F2" stroke-width="0.5" stroke-miterlimit="10"/>
<path d="M453.339 1L916.178 58.1097C916.178 58.1097 674.45 98.1399 489.933 128.563C486.84 129.097 483.233 129.63 480.14 130.164C461.07 132.833 443.546 138.17 427.053 149.912C402.829 168.593 386.851 203.819 358.503 200.083C328.094 195.813 305.931 165.924 273.46 160.587C269.337 159.519 265.729 158.986 261.606 158.452C257.998 157.918 254.39 156.851 250.267 156.317C137.392 134.434 -223.911 63.447 -223.911 63.447C-223.911 63.447 110.075 32.4904 309.024 14.3434C312.116 14.8771 315.209 14.8771 318.301 14.8771C341.495 14.8771 365.719 11.6747 388.397 7.93856C393.551 6.87109 398.19 6.33735 402.829 5.80362C434.269 2.60121 453.339 1 453.339 1Z" stroke="#F2F2F2" stroke-width="0.5" stroke-miterlimit="10"/>
<path d="M-78.0498 49.5698C-78.0498 49.5698 99.767 81.0602 244.597 106.146C248.205 106.68 252.329 107.747 255.936 108.281C263.668 109.348 270.883 111.483 277.584 114.152C281.192 115.753 284.284 116.82 287.892 118.955C290.984 121.09 294.077 123.225 297.685 125.36C325.517 142.974 338.918 191.01 374.996 180.869C393.551 175.531 407.467 161.654 423.96 152.047" stroke="#F2F2F2" stroke-width="0.5" stroke-miterlimit="10"/>
<path d="M51.3184 37.8276C51.3184 37.8276 127.599 50.1036 220.373 65.0481C223.981 65.5819 228.104 66.1156 231.712 66.6494C248.205 68.2506 264.183 71.9867 279.645 76.2566C283.769 77.3241 287.377 78.3915 291.5 79.9927C311.085 85.8638 327.579 96.0048 346.133 106.146C360.049 113.618 373.45 122.692 389.428 120.557C420.353 116.287 449.216 101.876 481.171 106.68C484.779 107.213 487.871 107.747 491.479 108.281C527.558 114.152 550.751 117.888 550.751 117.888" stroke="#F2F2F2" stroke-width="0.5" stroke-miterlimit="10"/>
<path d="M167.801 27.1528C167.801 27.1528 211.095 33.5577 271.914 42.6312C275.006 43.1649 278.614 43.6986 281.707 44.2324C285.314 44.7661 288.407 45.2998 292.015 45.8336C321.393 50.1035 344.587 67.7167 369.842 83.7288C380.15 90.1336 391.489 91.7348 403.859 87.9987C430.66 79.9926 455.4 67.7167 482.201 74.1216C485.809 74.6553 488.902 75.189 492.51 75.189C583.737 88.5324 658.472 99.7409 658.472 99.7409" stroke="#F2F2F2" stroke-width="0.5" stroke-miterlimit="10"/>
<path d="M272.43 17.5459C272.43 17.5459 277.068 18.0796 285.83 19.6808C288.923 20.2146 292.015 20.7483 295.623 21.282C323.455 24.4845 347.164 41.564 373.45 49.0363C377.573 49.57 382.728 50.6375 386.851 50.6375C421.383 46.9014 454.885 42.6315 488.902 48.5026C493.026 49.0363 497.149 49.57 500.757 50.1038C625.486 67.1833 754.339 85.3303 754.339 85.3303" stroke="#F2F2F2" stroke-width="0.5" stroke-miterlimit="10"/>
<path d="M365.719 11.6746C382.727 13.8095 398.705 15.4107 416.229 15.9444C426.537 16.4782 437.876 18.0794 450.246 19.6806C585.799 37.2939 840.412 70.3855 840.412 70.3855" stroke="#F2F2F2" stroke-width="0.5" stroke-miterlimit="10"/>
<path d="M828.042 46.9014C828.042 46.9014 656.41 72.5207 489.933 97.0725C486.325 97.6062 482.202 98.14 478.594 98.6737C434.268 107.747 397.159 132.833 369.327 168.593C363.657 176.065 352.318 174.998 345.102 169.661C323.97 154.716 306.446 130.164 279.13 129.63C274.491 129.63 269.852 129.63 265.729 130.164C260.059 130.698 254.39 131.765 249.236 132.299C208.003 138.17 182.232 142.44 182.232 142.44" stroke="#F2F2F2" stroke-width="0.5" stroke-miterlimit="10"/>
<path d="M745.061 36.7603C745.061 36.7603 616.209 53.8398 472.409 73.0543C468.286 74.1217 464.678 75.1892 461.07 76.2567C457.977 77.8579 453.854 77.8579 450.246 79.9928C421.383 97.0724 394.582 118.956 359.018 116.821C350.772 116.287 345.618 124.827 337.887 125.894C333.248 126.428 328.609 124.293 325.001 122.158C313.147 114.686 302.323 106.146 288.923 103.477C285.83 102.41 282.222 101.876 279.13 101.342C272.429 100.275 265.729 100.275 258.513 101.342C254.905 101.876 251.813 102.41 248.205 102.41C155.947 114.686 88.4277 123.759 88.4277 123.759" stroke="#F2F2F2" stroke-width="0.5" stroke-miterlimit="10"/>
<path d="M666.203 27.1528C666.203 27.1528 584.253 36.7601 478.594 49.5697C474.47 50.6372 470.863 51.7047 467.255 52.2384C446.638 55.9745 428.599 65.5818 410.559 79.4589C399.736 89.0662 386.851 93.8698 372.935 90.6674C347.679 84.7963 323.455 71.4529 297.169 75.7228C294.077 75.7228 290.984 75.7228 287.376 75.7228C271.399 76.2565 255.421 76.2565 239.443 78.3914C235.835 78.9252 231.712 79.4589 228.104 79.9926C103.89 94.9372 1.32324 107.213 1.32324 107.213" stroke="#F2F2F2" stroke-width="0.5" stroke-miterlimit="10"/>
<path d="M591.469 18.0796C591.469 18.0796 540.959 23.4169 468.286 31.423C464.678 31.9567 461.586 32.4904 458.493 33.0242C429.63 35.1591 406.952 52.2387 380.151 63.9808C374.997 66.6495 368.812 65.582 362.112 63.9808C342.526 58.1098 322.94 50.1037 301.809 50.1037C297.17 50.1037 292.531 50.6375 287.892 51.1712C269.338 53.3061 250.783 55.4411 232.228 56.5085C228.105 57.0423 224.497 57.576 220.374 57.576C65.235 74.6556 -79.0801 90.6676 -79.0801 90.6676" stroke="#F2F2F2" stroke-width="0.5" stroke-miterlimit="10"/>
<path d="M520.343 9.00586C520.343 9.00586 485.81 12.2083 432.207 18.0794C429.115 19.1468 426.022 19.6806 422.93 20.2143C383.243 30.3553 346.134 39.4288 303.87 32.4902C295.623 31.4228 286.861 32.4902 278.099 33.5577C273.976 34.0914 270.368 34.0914 266.245 34.6252C75.0275 53.8396 -154.846 76.7903 -154.846 76.7903" stroke="#F2F2F2" stroke-width="0.5" stroke-miterlimit="10"/>
<path d="M453.339 480L916.178 537.11C916.178 537.11 674.45 577.14 489.933 607.563C486.84 608.097 483.233 608.63 480.14 609.164C461.07 611.833 443.546 617.17 427.053 628.912C402.829 647.593 386.851 682.819 358.503 679.083C328.094 674.813 305.931 644.924 273.46 639.587C269.337 638.519 265.729 637.986 261.606 637.452C257.998 636.918 254.39 635.851 250.267 635.317C137.392 613.434 -223.911 542.447 -223.911 542.447C-223.911 542.447 110.075 511.49 309.024 493.343C312.116 493.877 315.209 493.877 318.301 493.877C341.495 493.877 365.719 490.675 388.397 486.939C393.551 485.871 398.19 485.337 402.829 484.804C434.269 481.601 453.339 480 453.339 480Z" stroke="#F2F2F2" stroke-width="0.5" stroke-miterlimit="10"/>
<path d="M-78.0498 528.57C-78.0498 528.57 99.767 560.06 244.597 585.146C248.205 585.68 252.329 586.747 255.936 587.281C263.668 588.348 270.883 590.483 277.584 593.152C281.192 594.753 284.284 595.82 287.892 597.955C290.984 600.09 294.077 602.225 297.685 604.36C325.517 621.974 338.918 670.01 374.996 659.869C393.551 654.531 407.467 640.654 423.96 631.047" stroke="#F2F2F2" stroke-width="0.5" stroke-miterlimit="10"/>
<path d="M51.3184 516.828C51.3184 516.828 127.599 529.104 220.373 544.048C223.981 544.582 228.104 545.116 231.712 545.649C248.205 547.251 264.183 550.987 279.645 555.257C283.769 556.324 287.377 557.392 291.5 558.993C311.085 564.864 327.579 575.005 346.133 585.146C360.049 592.618 373.45 601.692 389.428 599.557C420.353 595.287 449.216 580.876 481.171 585.68C484.779 586.213 487.871 586.747 491.479 587.281C527.558 593.152 550.751 596.888 550.751 596.888" stroke="#F2F2F2" stroke-width="0.5" stroke-miterlimit="10"/>
<path d="M167.801 506.153C167.801 506.153 211.095 512.558 271.914 521.631C275.006 522.165 278.614 522.699 281.707 523.232C285.314 523.766 288.407 524.3 292.015 524.834C321.393 529.103 344.587 546.717 369.842 562.729C380.15 569.134 391.489 570.735 403.859 566.999C430.66 558.993 455.4 546.717 482.201 553.122C485.809 553.655 488.902 554.189 492.51 554.189C583.737 567.532 658.472 578.741 658.472 578.741" stroke="#F2F2F2" stroke-width="0.5" stroke-miterlimit="10"/>
<path d="M272.43 496.546C272.43 496.546 277.068 497.08 285.83 498.681C288.923 499.215 292.015 499.748 295.623 500.282C323.455 503.484 347.164 520.564 373.45 528.036C377.573 528.57 382.728 529.637 386.851 529.637C421.383 525.901 454.885 521.631 488.902 527.503C493.026 528.036 497.149 528.57 500.757 529.104C625.486 546.183 754.339 564.33 754.339 564.33" stroke="#F2F2F2" stroke-width="0.5" stroke-miterlimit="10"/>
<path d="M365.719 490.675C382.727 492.81 398.705 494.411 416.229 494.944C426.537 495.478 437.876 497.079 450.246 498.681C585.799 516.294 840.412 549.385 840.412 549.385" stroke="#F2F2F2" stroke-width="0.5" stroke-miterlimit="10"/>
<path d="M828.042 525.901C828.042 525.901 656.41 551.521 489.933 576.073C486.325 576.606 482.202 577.14 478.594 577.674C434.268 586.747 397.159 611.833 369.327 647.593C363.657 655.065 352.318 653.998 345.102 648.661C323.97 633.716 306.446 609.164 279.13 608.63C274.491 608.63 269.852 608.63 265.729 609.164C260.059 609.698 254.39 610.765 249.236 611.299C208.003 617.17 182.232 621.44 182.232 621.44" stroke="#F2F2F2" stroke-width="0.5" stroke-miterlimit="10"/>
<path d="M745.061 515.76C745.061 515.76 616.209 532.84 472.409 552.054C468.286 553.122 464.678 554.189 461.07 555.257C457.977 556.858 453.854 556.858 450.246 558.993C421.383 576.072 394.582 597.956 359.018 595.821C350.772 595.287 345.618 603.827 337.887 604.894C333.248 605.428 328.609 603.293 325.001 601.158C313.147 593.686 302.323 585.146 288.923 582.477C285.83 581.41 282.222 580.876 279.13 580.342C272.429 579.275 265.729 579.275 258.513 580.342C254.905 580.876 251.813 581.41 248.205 581.41C155.947 593.686 88.4277 602.759 88.4277 602.759" stroke="#F2F2F2" stroke-width="0.5" stroke-miterlimit="10"/>
<path d="M666.204 506.153C666.204 506.153 584.254 515.76 478.595 528.57C474.471 529.637 470.864 530.705 467.256 531.238C446.639 534.975 428.6 544.582 410.56 558.459C399.737 568.066 386.852 572.87 372.936 569.667C347.68 563.796 323.456 550.453 297.17 554.723C294.078 554.723 290.985 554.723 287.377 554.723C271.4 555.257 255.422 555.257 239.444 557.391C235.836 557.925 231.713 558.459 228.105 558.993C103.891 573.937 1.32422 586.213 1.32422 586.213" stroke="#F2F2F2" stroke-width="0.5" stroke-miterlimit="10"/>
<path d="M591.469 497.08C591.469 497.08 540.959 502.417 468.286 510.423C464.678 510.957 461.586 511.49 458.493 512.024C429.63 514.159 406.952 531.239 380.151 542.981C374.997 545.65 368.812 544.582 362.112 542.981C342.526 537.11 322.94 529.104 301.809 529.104C297.17 529.104 292.531 529.637 287.892 530.171C269.338 532.306 250.783 534.441 232.228 535.509C228.105 536.042 224.497 536.576 220.374 536.576C65.235 553.656 -79.0801 569.668 -79.0801 569.668" stroke="#F2F2F2" stroke-width="0.5" stroke-miterlimit="10"/>
<path d="M520.343 488.006C520.343 488.006 485.81 491.208 432.207 497.079C429.115 498.147 426.022 498.681 422.93 499.214C383.243 509.355 346.134 518.429 303.87 511.49C295.623 510.423 286.861 511.49 278.099 512.558C273.976 513.091 270.368 513.091 266.245 513.625C75.0275 532.84 -154.846 555.79 -154.846 555.79" stroke="#F2F2F2" stroke-width="0.5" stroke-miterlimit="10"/>
<path d="M453.339 388L916.178 445.11C916.178 445.11 674.45 485.14 489.933 515.563C486.84 516.097 483.233 516.63 480.14 517.164C461.07 519.833 443.546 525.17 427.053 536.912C402.829 555.593 386.851 590.819 358.503 587.083C328.094 582.813 305.931 552.924 273.46 547.587C269.337 546.519 265.729 545.986 261.606 545.452C257.998 544.918 254.39 543.851 250.267 543.317C137.392 521.434 -223.911 450.447 -223.911 450.447C-223.911 450.447 110.075 419.49 309.024 401.343C312.116 401.877 315.209 401.877 318.301 401.877C341.495 401.877 365.719 398.675 388.397 394.939C393.551 393.871 398.19 393.337 402.829 392.804C434.269 389.601 453.339 388 453.339 388Z" stroke="#F2F2F2" stroke-width="0.5" stroke-miterlimit="10"/>
<path d="M-78.0498 436.57C-78.0498 436.57 99.767 468.06 244.597 493.146C248.205 493.68 252.329 494.747 255.936 495.281C263.668 496.348 270.883 498.483 277.584 501.152C281.192 502.753 284.284 503.82 287.892 505.955C290.984 508.09 294.077 510.225 297.685 512.36C325.517 529.974 338.918 578.01 374.996 567.869C393.551 562.531 407.467 548.654 423.96 539.047" stroke="#F2F2F2" stroke-width="0.5" stroke-miterlimit="10"/>
<path d="M51.3184 424.828C51.3184 424.828 127.599 437.104 220.373 452.048C223.981 452.582 228.104 453.116 231.712 453.649C248.205 455.251 264.183 458.987 279.645 463.257C283.769 464.324 287.377 465.392 291.5 466.993C311.085 472.864 327.579 483.005 346.133 493.146C360.049 500.618 373.45 509.692 389.428 507.557C420.353 503.287 449.216 488.876 481.171 493.68C484.779 494.213 487.871 494.747 491.479 495.281C527.558 501.152 550.751 504.888 550.751 504.888" stroke="#F2F2F2" stroke-width="0.5" stroke-miterlimit="10"/>
<path d="M167.801 414.153C167.801 414.153 211.095 420.558 271.914 429.631C275.006 430.165 278.614 430.699 281.707 431.232C285.314 431.766 288.407 432.3 292.015 432.834C321.393 437.103 344.587 454.717 369.842 470.729C380.15 477.134 391.489 478.735 403.859 474.999C430.66 466.993 455.4 454.717 482.201 461.122C485.809 461.655 488.902 462.189 492.51 462.189C583.737 475.532 658.472 486.741 658.472 486.741" stroke="#F2F2F2" stroke-width="0.5" stroke-miterlimit="10"/>
<path d="M272.43 404.546C272.43 404.546 277.068 405.08 285.83 406.681C288.923 407.215 292.015 407.748 295.623 408.282C323.455 411.484 347.164 428.564 373.45 436.036C377.573 436.57 382.728 437.637 386.851 437.637C421.383 433.901 454.885 429.631 488.902 435.503C493.026 436.036 497.149 436.57 500.757 437.104C625.486 454.183 754.339 472.33 754.339 472.33" stroke="#F2F2F2" stroke-width="0.5" stroke-miterlimit="10"/>
<path d="M365.719 398.675C382.727 400.81 398.705 402.411 416.229 402.944C426.537 403.478 437.876 405.079 450.246 406.681C585.799 424.294 840.412 457.385 840.412 457.385" stroke="#F2F2F2" stroke-width="0.5" stroke-miterlimit="10"/>
<path d="M828.042 433.901C828.042 433.901 656.41 459.521 489.933 484.073C486.325 484.606 482.202 485.14 478.594 485.674C434.268 494.747 397.159 519.833 369.327 555.593C363.657 563.065 352.318 561.998 345.102 556.661C323.97 541.716 306.446 517.164 279.13 516.63C274.491 516.63 269.852 516.63 265.729 517.164C260.059 517.698 254.39 518.765 249.236 519.299C208.003 525.17 182.232 529.44 182.232 529.44" stroke="#F2F2F2" stroke-width="0.5" stroke-miterlimit="10"/>
<path d="M745.061 423.76C745.061 423.76 616.209 440.84 472.409 460.054C468.286 461.122 464.678 462.189 461.07 463.257C457.977 464.858 453.854 464.858 450.246 466.993C421.383 484.072 394.582 505.956 359.018 503.821C350.772 503.287 345.618 511.827 337.887 512.894C333.248 513.428 328.609 511.293 325.001 509.158C313.147 501.686 302.323 493.146 288.923 490.477C285.83 489.41 282.222 488.876 279.13 488.342C272.429 487.275 265.729 487.275 258.513 488.342C254.905 488.876 251.813 489.41 248.205 489.41C155.947 501.686 88.4277 510.759 88.4277 510.759" stroke="#F2F2F2" stroke-width="0.5" stroke-miterlimit="10"/>
<path d="M666.204 414.153C666.204 414.153 584.254 423.76 478.595 436.57C474.471 437.637 470.864 438.705 467.256 439.238C446.639 442.975 428.6 452.582 410.56 466.459C399.737 476.066 386.852 480.87 372.936 477.667C347.68 471.796 323.456 458.453 297.17 462.723C294.078 462.723 290.985 462.723 287.377 462.723C271.4 463.257 255.422 463.257 239.444 465.391C235.836 465.925 231.713 466.459 228.105 466.993C103.891 481.937 1.32422 494.213 1.32422 494.213" stroke="#F2F2F2" stroke-width="0.5" stroke-miterlimit="10"/>
<path d="M591.469 405.08C591.469 405.08 540.959 410.417 468.286 418.423C464.678 418.957 461.586 419.49 458.493 420.024C429.63 422.159 406.952 439.239 380.151 450.981C374.997 453.65 368.812 452.582 362.112 450.981C342.526 445.11 322.94 437.104 301.809 437.104C297.17 437.104 292.531 437.637 287.892 438.171C269.338 440.306 250.783 442.441 232.228 443.509C228.105 444.042 224.497 444.576 220.374 444.576C65.235 461.656 -79.0801 477.668 -79.0801 477.668" stroke="#F2F2F2" stroke-width="0.5" stroke-miterlimit="10"/>
<path d="M520.343 396.006C520.343 396.006 485.81 399.208 432.207 405.079C429.115 406.147 426.022 406.681 422.93 407.214C383.243 417.355 346.134 426.429 303.87 419.49C295.623 418.423 286.861 419.49 278.099 420.558C273.976 421.091 270.368 421.091 266.245 421.625C75.0275 440.84 -154.846 463.79 -154.846 463.79" stroke="#F2F2F2" stroke-width="0.5" stroke-miterlimit="10"/>
</svg>
