<svg width="189" height="29" viewBox="0 0 189 29" fill="none" xmlns="http://www.w3.org/2000/svg">
<g filter="url(#filter0_f_359_46)">
<path d="M4.84 20V5.62H5.72V11.9C6.22667 11.3933 6.74 10.98 7.26 10.66C7.79333 10.3267 8.38667 10.16 9.04 10.16C10.0267 10.16 10.7533 10.4667 11.22 11.08C11.7 11.68 11.94 12.6 11.94 13.84V20H11.06V13.96C11.06 12.9333 10.8867 12.18 10.54 11.7C10.2067 11.2067 9.64667 10.96 8.86 10.96C8.28667 10.96 7.76667 11.1133 7.3 11.42C6.83333 11.7133 6.30667 12.16 5.72 12.76V20H4.84ZM23.5064 20.24C22.7464 20.24 22.0931 20.0267 21.5464 19.6C20.9997 19.1733 20.7264 18.5067 20.7264 17.6C20.7264 16.5333 21.2264 15.7267 22.2264 15.18C23.2264 14.62 24.7931 14.22 26.9264 13.98C26.9397 13.4867 26.8864 13.0133 26.7664 12.56C26.6464 12.0933 26.4197 11.7067 26.0864 11.4C25.7664 11.0933 25.2864 10.94 24.6464 10.94C24.0064 10.94 23.4197 11.0667 22.8864 11.32C22.3531 11.5733 21.9197 11.82 21.5864 12.06L21.1864 11.4C21.4131 11.24 21.7064 11.0667 22.0664 10.88C22.4264 10.68 22.8331 10.5133 23.2864 10.38C23.7531 10.2333 24.2464 10.16 24.7664 10.16C25.5264 10.16 26.1264 10.3267 26.5664 10.66C27.0064 10.9933 27.3197 11.44 27.5064 12C27.7064 12.5467 27.8064 13.1667 27.8064 13.86V20H27.0464L26.9664 18.76H26.9064C26.4131 19.1467 25.8797 19.4933 25.3064 19.8C24.7331 20.0933 24.1331 20.24 23.5064 20.24ZM23.6664 19.48C24.2131 19.48 24.7397 19.3467 25.2464 19.08C25.7664 18.8133 26.3264 18.4267 26.9264 17.92V14.66C25.6064 14.82 24.5597 15.0267 23.7864 15.28C23.0131 15.5333 22.4597 15.8533 22.1264 16.24C21.7931 16.6133 21.6264 17.0533 21.6264 17.56C21.6264 18.2533 21.8264 18.7467 22.2264 19.04C22.6397 19.3333 23.1197 19.48 23.6664 19.48ZM37.2306 24.34V10.4H37.9906L38.0706 11.6H38.1306C38.5973 11.2267 39.1106 10.8933 39.6706 10.6C40.2306 10.3067 40.804 10.16 41.3906 10.16C42.6706 10.16 43.6306 10.6067 44.2706 11.5C44.9106 12.38 45.2306 13.5667 45.2306 15.06C45.2306 16.14 45.0306 17.0667 44.6306 17.84C44.244 18.6133 43.7306 19.2067 43.0906 19.62C42.4506 20.0333 41.7506 20.24 40.9906 20.24C40.5373 20.24 40.0706 20.14 39.5906 19.94C39.1106 19.7267 38.6173 19.4333 38.1106 19.06V24.34H37.2306ZM40.9506 19.46C41.604 19.46 42.1773 19.2733 42.6706 18.9C43.1773 18.5267 43.5706 18.0133 43.8506 17.36C44.144 16.6933 44.2906 15.9267 44.2906 15.06C44.2906 14.2733 44.1906 13.5733 43.9906 12.96C43.7906 12.3333 43.464 11.84 43.0106 11.48C42.5706 11.12 41.984 10.94 41.2506 10.94C40.7706 10.94 40.2706 11.08 39.7506 11.36C39.244 11.6267 38.6973 12.0133 38.1106 12.52V18.22C38.6573 18.6733 39.1706 18.9933 39.6506 19.18C40.144 19.3667 40.5773 19.46 40.9506 19.46ZM54.1095 24.34V10.4H54.8695L54.9495 11.6H55.0095C55.4762 11.2267 55.9895 10.8933 56.5495 10.6C57.1095 10.3067 57.6829 10.16 58.2695 10.16C59.5495 10.16 60.5095 10.6067 61.1495 11.5C61.7895 12.38 62.1095 13.5667 62.1095 15.06C62.1095 16.14 61.9095 17.0667 61.5095 17.84C61.1229 18.6133 60.6095 19.2067 59.9695 19.62C59.3295 20.0333 58.6295 20.24 57.8695 20.24C57.4162 20.24 56.9495 20.14 56.4695 19.94C55.9895 19.7267 55.4962 19.4333 54.9895 19.06V24.34H54.1095ZM57.8295 19.46C58.4829 19.46 59.0562 19.2733 59.5495 18.9C60.0562 18.5267 60.4495 18.0133 60.7295 17.36C61.0229 16.6933 61.1695 15.9267 61.1695 15.06C61.1695 14.2733 61.0695 13.5733 60.8695 12.96C60.6695 12.3333 60.3429 11.84 59.8895 11.48C59.4495 11.12 58.8629 10.94 58.1295 10.94C57.6495 10.94 57.1495 11.08 56.6295 11.36C56.1229 11.6267 55.5762 12.0133 54.9895 12.52V18.22C55.5362 18.6733 56.0495 18.9933 56.5295 19.18C57.0229 19.3667 57.4562 19.46 57.8295 19.46ZM70.6084 24.38C70.2484 24.38 69.9218 24.3133 69.6284 24.18L69.8284 23.4C69.9351 23.44 70.0551 23.4733 70.1884 23.5C70.3351 23.54 70.4751 23.56 70.6084 23.56C71.1951 23.56 71.6884 23.32 72.0884 22.84C72.5018 22.36 72.8284 21.7533 73.0684 21.02L73.3284 20.18L69.3884 10.4H70.3484L72.6684 16.44C72.8151 16.84 72.9818 17.28 73.1684 17.76C73.3551 18.24 73.5351 18.6933 73.7084 19.12H73.7884C73.9351 18.6933 74.0818 18.24 74.2284 17.76C74.3884 17.28 74.5351 16.84 74.6684 16.44L76.7284 10.4H77.6284L73.8284 21.2C73.6551 21.7333 73.4218 22.24 73.1284 22.72C72.8484 23.2133 72.5018 23.6133 72.0884 23.92C71.6751 24.2267 71.1818 24.38 70.6084 24.38ZM95.8433 20V11.16H94.5233V10.48L95.8433 10.4V8.26C95.8433 7.31333 96.0499 6.6 96.4633 6.12C96.8766 5.62667 97.4633 5.38 98.2233 5.38C98.6899 5.38 99.1566 5.48667 99.6233 5.7L99.3833 6.42C99.1833 6.31333 98.9833 6.24 98.7833 6.2C98.5966 6.16 98.4099 6.14 98.2233 6.14C97.7166 6.14 97.3366 6.32667 97.0833 6.7C96.8433 7.07333 96.7233 7.61333 96.7233 8.32V10.4H98.9433V11.16H96.7233V20H95.8433ZM108.137 20.24C107.351 20.24 106.957 19.7333 106.957 18.72V5.62H107.837V18.84C107.837 19.2533 107.977 19.46 108.257 19.46C108.297 19.46 108.344 19.46 108.397 19.46C108.451 19.4467 108.524 19.4333 108.617 19.42L108.777 20.14C108.684 20.1667 108.591 20.1867 108.497 20.2C108.404 20.2267 108.284 20.24 108.137 20.24ZM117.703 20V10.4H118.583V20H117.703ZM118.163 8.08C117.95 8.08 117.77 8.00667 117.623 7.86C117.477 7.71333 117.403 7.51333 117.403 7.26C117.403 7.03333 117.477 6.84667 117.623 6.7C117.77 6.55333 117.95 6.48 118.163 6.48C118.39 6.48 118.57 6.55333 118.703 6.7C118.85 6.84667 118.923 7.03333 118.923 7.26C118.923 7.51333 118.85 7.71333 118.703 7.86C118.57 8.00667 118.39 8.08 118.163 8.08ZM131.414 24.62C130.2 24.62 129.24 24.38 128.534 23.9C127.827 23.42 127.474 22.7733 127.474 21.96C127.474 21.5333 127.6 21.12 127.854 20.72C128.107 20.32 128.454 19.96 128.894 19.64V19.56C128.654 19.4133 128.454 19.2133 128.294 18.96C128.134 18.7067 128.054 18.3933 128.054 18.02C128.054 17.5933 128.174 17.2333 128.414 16.94C128.654 16.6333 128.88 16.4067 129.094 16.26V16.18C128.8 15.9133 128.527 15.5533 128.274 15.1C128.02 14.6333 127.894 14.1133 127.894 13.54C127.894 12.8733 128.04 12.2867 128.334 11.78C128.64 11.2733 129.047 10.88 129.554 10.6C130.074 10.3067 130.647 10.16 131.274 10.16C131.54 10.16 131.78 10.1867 131.994 10.24C132.207 10.28 132.387 10.3333 132.534 10.4H135.794V11.14H133.554C133.86 11.4067 134.114 11.7533 134.314 12.18C134.514 12.5933 134.614 13.0533 134.614 13.56C134.614 14.2133 134.467 14.7933 134.174 15.3C133.88 15.8067 133.48 16.2067 132.974 16.5C132.467 16.7933 131.9 16.94 131.274 16.94C131.007 16.94 130.727 16.9067 130.434 16.84C130.154 16.7733 129.9 16.6733 129.674 16.54C129.46 16.7133 129.274 16.9067 129.114 17.12C128.967 17.3333 128.894 17.6 128.894 17.92C128.894 18.2667 129.02 18.5667 129.274 18.82C129.527 19.06 130.014 19.18 130.734 19.18H132.794C133.874 19.18 134.667 19.36 135.174 19.72C135.694 20.0667 135.954 20.62 135.954 21.38C135.954 21.9267 135.767 22.4467 135.394 22.94C135.02 23.4467 134.494 23.8533 133.814 24.16C133.134 24.4667 132.334 24.62 131.414 24.62ZM131.274 16.24C131.714 16.24 132.12 16.1267 132.494 15.9C132.88 15.6733 133.187 15.36 133.414 14.96C133.64 14.5467 133.754 14.0733 133.754 13.54C133.754 12.7267 133.507 12.08 133.014 11.6C132.534 11.12 131.954 10.88 131.274 10.88C130.594 10.88 130.007 11.12 129.514 11.6C129.02 12.0667 128.774 12.7133 128.774 13.54C128.774 14.0733 128.887 14.5467 129.114 14.96C129.354 15.36 129.66 15.6733 130.034 15.9C130.42 16.1267 130.834 16.24 131.274 16.24ZM131.514 23.9C132.234 23.9 132.854 23.78 133.374 23.54C133.907 23.3 134.32 22.9933 134.614 22.62C134.907 22.26 135.054 21.88 135.054 21.48C135.054 20.9467 134.86 20.5667 134.474 20.34C134.1 20.1267 133.554 20.02 132.834 20.02H130.774C130.68 20.02 130.52 20.0067 130.294 19.98C130.067 19.9533 129.827 19.9133 129.574 19.86C129.134 20.1533 128.814 20.4733 128.614 20.82C128.414 21.18 128.314 21.5333 128.314 21.88C128.314 22.48 128.594 22.9667 129.154 23.34C129.714 23.7133 130.5 23.9 131.514 23.9ZM144.02 20V5.62H144.9V11.9C145.406 11.3933 145.92 10.98 146.44 10.66C146.973 10.3267 147.566 10.16 148.22 10.16C149.206 10.16 149.933 10.4667 150.4 11.08C150.88 11.68 151.12 12.6 151.12 13.84V20H150.24V13.96C150.24 12.9333 150.066 12.18 149.72 11.7C149.386 11.2067 148.826 10.96 148.04 10.96C147.466 10.96 146.946 11.1133 146.48 11.42C146.013 11.7133 145.486 12.16 144.9 12.76V20H144.02ZM163.206 20.24C162.273 20.24 161.639 19.9733 161.306 19.44C160.973 18.8933 160.806 18.1933 160.806 17.34V11.16H159.306V10.48L160.826 10.4L160.946 7.62H161.706V10.4H164.486V11.16H161.706V17.42C161.706 18.0333 161.813 18.5267 162.026 18.9C162.239 19.2733 162.673 19.46 163.326 19.46C163.513 19.46 163.713 19.4333 163.926 19.38C164.153 19.3133 164.353 19.24 164.526 19.16L164.766 19.88C164.486 19.9733 164.199 20.0533 163.906 20.12C163.626 20.2 163.393 20.24 163.206 20.24ZM183.24 16.42L183.12 8.02V6.6H184.04L184.02 8.02L183.9 16.42H183.24ZM183.58 20.24C183.367 20.24 183.167 20.16 182.98 20C182.807 19.84 182.72 19.62 182.72 19.34C182.72 19.0467 182.807 18.82 182.98 18.66C183.167 18.5 183.367 18.42 183.58 18.42C183.807 18.42 184 18.5 184.16 18.66C184.334 18.82 184.42 19.0467 184.42 19.34C184.42 19.62 184.334 19.84 184.16 20C184 20.16 183.807 20.24 183.58 20.24Z" fill="white"/>
</g>
<path d="M15.656 19V6.058H16.448V11.71C16.904 11.254 17.366 10.882 17.834 10.594C18.314 10.294 18.848 10.144 19.436 10.144C20.324 10.144 20.978 10.42 21.398 10.972C21.83 11.512 22.046 12.34 22.046 13.456V19H21.254V13.564C21.254 12.64 21.098 11.962 20.786 11.53C20.486 11.086 19.982 10.864 19.274 10.864C18.758 10.864 18.29 11.002 17.87 11.278C17.45 11.542 16.976 11.944 16.448 12.484V19H15.656ZM32.4558 19.216C31.7718 19.216 31.1838 19.024 30.6918 18.64C30.1998 18.256 29.9538 17.656 29.9538 16.84C29.9538 15.88 30.4038 15.154 31.3038 14.662C32.2038 14.158 33.6138 13.798 35.5338 13.582C35.5458 13.138 35.4978 12.712 35.3898 12.304C35.2818 11.884 35.0778 11.536 34.7778 11.26C34.4898 10.984 34.0578 10.846 33.4818 10.846C32.9058 10.846 32.3778 10.96 31.8978 11.188C31.4178 11.416 31.0278 11.638 30.7278 11.854L30.3678 11.26C30.5718 11.116 30.8358 10.96 31.1598 10.792C31.4838 10.612 31.8498 10.462 32.2578 10.342C32.6778 10.21 33.1218 10.144 33.5898 10.144C34.2738 10.144 34.8138 10.294 35.2098 10.594C35.6058 10.894 35.8878 11.296 36.0558 11.8C36.2358 12.292 36.3258 12.85 36.3258 13.474V19H35.6418L35.5698 17.884H35.5158C35.0718 18.232 34.5918 18.544 34.0758 18.82C33.5598 19.084 33.0198 19.216 32.4558 19.216ZM32.5998 18.532C33.0918 18.532 33.5658 18.412 34.0218 18.172C34.4898 17.932 34.9938 17.584 35.5338 17.128V14.194C34.3458 14.338 33.4038 14.524 32.7078 14.752C32.0118 14.98 31.5138 15.268 31.2138 15.616C30.9138 15.952 30.7638 16.348 30.7638 16.804C30.7638 17.428 30.9438 17.872 31.3038 18.136C31.6758 18.4 32.1078 18.532 32.5998 18.532ZM44.8076 22.906V10.36H45.4916L45.5636 11.44H45.6176C46.0376 11.104 46.4996 10.804 47.0036 10.54C47.5076 10.276 48.0236 10.144 48.5516 10.144C49.7036 10.144 50.5676 10.546 51.1436 11.35C51.7196 12.142 52.0076 13.21 52.0076 14.554C52.0076 15.526 51.8276 16.36 51.4676 17.056C51.1196 17.752 50.6576 18.286 50.0816 18.658C49.5056 19.03 48.8756 19.216 48.1916 19.216C47.7836 19.216 47.3636 19.126 46.9316 18.946C46.4996 18.754 46.0556 18.49 45.5996 18.154V22.906H44.8076ZM48.1556 18.514C48.7436 18.514 49.2596 18.346 49.7036 18.01C50.1596 17.674 50.5136 17.212 50.7656 16.624C51.0296 16.024 51.1616 15.334 51.1616 14.554C51.1616 13.846 51.0716 13.216 50.8916 12.664C50.7116 12.1 50.4176 11.656 50.0096 11.332C49.6136 11.008 49.0856 10.846 48.4256 10.846C47.9936 10.846 47.5436 10.972 47.0756 11.224C46.6196 11.464 46.1276 11.812 45.5996 12.268V17.398C46.0916 17.806 46.5536 18.094 46.9856 18.262C47.4296 18.43 47.8196 18.514 48.1556 18.514ZM59.9986 22.906V10.36H60.6826L60.7546 11.44H60.8086C61.2286 11.104 61.6906 10.804 62.1946 10.54C62.6986 10.276 63.2146 10.144 63.7426 10.144C64.8946 10.144 65.7586 10.546 66.3346 11.35C66.9106 12.142 67.1986 13.21 67.1986 14.554C67.1986 15.526 67.0186 16.36 66.6586 17.056C66.3106 17.752 65.8486 18.286 65.2726 18.658C64.6966 19.03 64.0666 19.216 63.3826 19.216C62.9746 19.216 62.5546 19.126 62.1226 18.946C61.6906 18.754 61.2466 18.49 60.7906 18.154V22.906H59.9986ZM63.3466 18.514C63.9346 18.514 64.4506 18.346 64.8946 18.01C65.3506 17.674 65.7046 17.212 65.9566 16.624C66.2206 16.024 66.3526 15.334 66.3526 14.554C66.3526 13.846 66.2626 13.216 66.0826 12.664C65.9026 12.1 65.6086 11.656 65.2006 11.332C64.8046 11.008 64.2766 10.846 63.6166 10.846C63.1846 10.846 62.7346 10.972 62.2666 11.224C61.8106 11.464 61.3186 11.812 60.7906 12.268V17.398C61.2826 17.806 61.7446 18.094 62.1766 18.262C62.6206 18.43 63.0106 18.514 63.3466 18.514ZM74.8476 22.942C74.5236 22.942 74.2296 22.882 73.9656 22.762L74.1456 22.06C74.2416 22.096 74.3496 22.126 74.4696 22.15C74.6016 22.186 74.7276 22.204 74.8476 22.204C75.3756 22.204 75.8196 21.988 76.1796 21.556C76.5516 21.124 76.8456 20.578 77.0616 19.918L77.2956 19.162L73.7496 10.36H74.6136L76.7016 15.796C76.8336 16.156 76.9836 16.552 77.1516 16.984C77.3196 17.416 77.4816 17.824 77.6376 18.208H77.7096C77.8416 17.824 77.9736 17.416 78.1056 16.984C78.2496 16.552 78.3816 16.156 78.5016 15.796L80.3556 10.36H81.1656L77.7456 20.08C77.5896 20.56 77.3796 21.016 77.1156 21.448C76.8636 21.892 76.5516 22.252 76.1796 22.528C75.8076 22.804 75.3636 22.942 74.8476 22.942ZM97.559 19V11.044H96.371V10.432L97.559 10.36V8.434C97.559 7.582 97.745 6.94 98.117 6.508C98.489 6.064 99.017 5.842 99.701 5.842C100.121 5.842 100.541 5.938 100.961 6.13L100.745 6.778C100.565 6.682 100.385 6.616 100.205 6.58C100.037 6.544 99.869 6.526 99.701 6.526C99.245 6.526 98.903 6.694 98.675 7.03C98.459 7.366 98.351 7.852 98.351 8.488V10.36H100.349V11.044H98.351V19H97.559ZM108.623 19.216C107.915 19.216 107.561 18.76 107.561 17.848V6.058H108.353V17.956C108.353 18.328 108.479 18.514 108.731 18.514C108.767 18.514 108.809 18.514 108.857 18.514C108.905 18.502 108.971 18.49 109.055 18.478L109.199 19.126C109.115 19.15 109.031 19.168 108.947 19.18C108.863 19.204 108.755 19.216 108.623 19.216ZM117.233 19V10.36H118.025V19H117.233ZM117.647 8.272C117.455 8.272 117.293 8.206 117.161 8.074C117.029 7.942 116.963 7.762 116.963 7.534C116.963 7.33 117.029 7.162 117.161 7.03C117.293 6.898 117.455 6.832 117.647 6.832C117.851 6.832 118.013 6.898 118.133 7.03C118.265 7.162 118.331 7.33 118.331 7.534C118.331 7.762 118.265 7.942 118.133 8.074C118.013 8.206 117.851 8.272 117.647 8.272ZM129.572 23.158C128.48 23.158 127.616 22.942 126.98 22.51C126.344 22.078 126.026 21.496 126.026 20.764C126.026 20.38 126.14 20.008 126.368 19.648C126.596 19.288 126.908 18.964 127.304 18.676V18.604C127.088 18.472 126.908 18.292 126.764 18.064C126.62 17.836 126.548 17.554 126.548 17.218C126.548 16.834 126.656 16.51 126.872 16.246C127.088 15.97 127.292 15.766 127.484 15.634V15.562C127.22 15.322 126.974 14.998 126.746 14.59C126.518 14.17 126.404 13.702 126.404 13.186C126.404 12.586 126.536 12.058 126.8 11.602C127.076 11.146 127.442 10.792 127.898 10.54C128.366 10.276 128.882 10.144 129.446 10.144C129.686 10.144 129.902 10.168 130.094 10.216C130.286 10.252 130.448 10.3 130.58 10.36H133.514V11.026H131.498C131.774 11.266 132.002 11.578 132.182 11.962C132.362 12.334 132.452 12.748 132.452 13.204C132.452 13.792 132.32 14.314 132.056 14.77C131.792 15.226 131.432 15.586 130.976 15.85C130.52 16.114 130.01 16.246 129.446 16.246C129.206 16.246 128.954 16.216 128.69 16.156C128.438 16.096 128.21 16.006 128.006 15.886C127.814 16.042 127.646 16.216 127.502 16.408C127.37 16.6 127.304 16.84 127.304 17.128C127.304 17.44 127.418 17.71 127.646 17.938C127.874 18.154 128.312 18.262 128.96 18.262H130.814C131.786 18.262 132.5 18.424 132.956 18.748C133.424 19.06 133.658 19.558 133.658 20.242C133.658 20.734 133.49 21.202 133.154 21.646C132.818 22.102 132.344 22.468 131.732 22.744C131.12 23.02 130.4 23.158 129.572 23.158ZM129.446 15.616C129.842 15.616 130.208 15.514 130.544 15.31C130.892 15.106 131.168 14.824 131.372 14.464C131.576 14.092 131.678 13.666 131.678 13.186C131.678 12.454 131.456 11.872 131.012 11.44C130.58 11.008 130.058 10.792 129.446 10.792C128.834 10.792 128.306 11.008 127.862 11.44C127.418 11.86 127.196 12.442 127.196 13.186C127.196 13.666 127.298 14.092 127.502 14.464C127.718 14.824 127.994 15.106 128.33 15.31C128.678 15.514 129.05 15.616 129.446 15.616ZM129.662 22.51C130.31 22.51 130.868 22.402 131.336 22.186C131.816 21.97 132.188 21.694 132.452 21.358C132.716 21.034 132.848 20.692 132.848 20.332C132.848 19.852 132.674 19.51 132.326 19.306C131.99 19.114 131.498 19.018 130.85 19.018H128.996C128.912 19.018 128.768 19.006 128.564 18.982C128.36 18.958 128.144 18.922 127.916 18.874C127.52 19.138 127.232 19.426 127.052 19.738C126.872 20.062 126.782 20.38 126.782 20.692C126.782 21.232 127.034 21.67 127.538 22.006C128.042 22.342 128.75 22.51 129.662 22.51ZM140.918 19V6.058H141.71V11.71C142.166 11.254 142.628 10.882 143.096 10.594C143.576 10.294 144.11 10.144 144.698 10.144C145.586 10.144 146.24 10.42 146.66 10.972C147.092 11.512 147.308 12.34 147.308 13.456V19H146.516V13.564C146.516 12.64 146.36 11.962 146.048 11.53C145.748 11.086 145.244 10.864 144.536 10.864C144.02 10.864 143.552 11.002 143.132 11.278C142.712 11.542 142.238 11.944 141.71 12.484V19H140.918ZM158.185 19.216C157.345 19.216 156.775 18.976 156.475 18.496C156.175 18.004 156.025 17.374 156.025 16.606V11.044H154.675V10.432L156.043 10.36L156.151 7.858H156.835V10.36H159.337V11.044H156.835V16.678C156.835 17.23 156.931 17.674 157.123 18.01C157.315 18.346 157.705 18.514 158.293 18.514C158.461 18.514 158.641 18.49 158.833 18.442C159.037 18.382 159.217 18.316 159.373 18.244L159.589 18.892C159.337 18.976 159.079 19.048 158.815 19.108C158.563 19.18 158.353 19.216 158.185 19.216ZM176.216 15.778L176.108 8.218V6.94H176.936L176.918 8.218L176.81 15.778H176.216ZM176.522 19.216C176.33 19.216 176.15 19.144 175.982 19C175.826 18.856 175.748 18.658 175.748 18.406C175.748 18.142 175.826 17.938 175.982 17.794C176.15 17.65 176.33 17.578 176.522 17.578C176.726 17.578 176.9 17.65 177.044 17.794C177.2 17.938 177.278 18.142 177.278 18.406C177.278 18.658 177.2 18.856 177.044 19C176.9 19.144 176.726 19.216 176.522 19.216Z" fill="white"/>
<defs>
<filter id="filter0_f_359_46" x="0.839844" y="1.37988" width="187.581" height="27.2402" filterUnits="userSpaceOnUse" color-interpolation-filters="sRGB">
<feFlood flood-opacity="0" result="BackgroundImageFix"/>
<feBlend mode="normal" in="SourceGraphic" in2="BackgroundImageFix" result="shape"/>
<feGaussianBlur stdDeviation="2" result="effect1_foregroundBlur_359_46"/>
</filter>
</defs>
</svg>
