<svg width="258" height="114" viewBox="0 0 258 114" fill="none" xmlns="http://www.w3.org/2000/svg">
<path d="M256.809 107.155C256.162 108.798 254.699 110.133 252.395 111.136C250.09 112.139 246.99 112.787 243.163 113.077C235.513 113.656 225.078 112.796 212.581 110.61C187.597 106.238 154.481 96.5826 119.162 82.6747C83.8433 68.7669 53.0353 53.2501 31.7783 39.4128C21.1463 32.4919 12.9262 26.0056 7.7252 20.3656C5.12387 17.5447 3.2977 14.9566 2.29544 12.6512C1.29392 10.3475 1.13396 8.37359 1.78108 6.73023C2.4282 5.08687 3.8911 3.75201 6.19447 2.7497C8.49954 1.74664 11.6 1.09861 15.4263 0.80877C23.0764 0.229284 33.512 1.08924 46.0084 3.2758C70.9927 7.64747 104.109 17.3027 139.428 31.2106C174.747 45.1185 205.554 60.6352 226.811 74.4725C237.443 81.3934 245.664 87.8797 250.865 93.5198C253.466 96.3407 255.292 98.9287 256.294 101.234C257.296 103.538 257.456 105.512 256.809 107.155Z" stroke="white"/>
</svg>
