<svg width="349" height="164" viewBox="0 0 349 164" fill="none" xmlns="http://www.w3.org/2000/svg">
<path d="M187.02 159.24C185.807 159.24 184.84 158.807 184.12 157.94C183.4 157.073 183.04 155.833 183.04 154.22C183.04 153.18 183.233 152.287 183.62 151.54C184.02 150.78 184.54 150.193 185.18 149.78C185.833 149.367 186.54 149.16 187.3 149.16C187.887 149.16 188.393 149.267 188.82 149.48C189.26 149.68 189.72 149.967 190.2 150.34L190.16 148.58V144.62H191.04V159H190.28L190.2 157.76H190.14C189.753 158.147 189.293 158.493 188.76 158.8C188.24 159.093 187.66 159.24 187.02 159.24ZM187.14 158.46C187.673 158.46 188.18 158.327 188.66 158.06C189.153 157.78 189.653 157.387 190.16 156.88V151.18C189.653 150.727 189.173 150.407 188.72 150.22C188.28 150.033 187.827 149.94 187.36 149.94C186.72 149.94 186.147 150.133 185.64 150.52C185.133 150.893 184.727 151.4 184.42 152.04C184.127 152.68 183.98 153.407 183.98 154.22C183.98 155.487 184.253 156.513 184.8 157.3C185.347 158.073 186.127 158.46 187.14 158.46ZM204.359 159.24C203.546 159.24 202.799 159.04 202.119 158.64C201.452 158.24 200.919 157.667 200.519 156.92C200.119 156.16 199.919 155.26 199.919 154.22C199.919 153.167 200.119 152.267 200.519 151.52C200.919 150.76 201.439 150.18 202.079 149.78C202.719 149.367 203.392 149.16 204.099 149.16C205.246 149.16 206.146 149.547 206.799 150.32C207.452 151.093 207.779 152.187 207.779 153.6C207.779 153.72 207.772 153.84 207.759 153.96C207.759 154.08 207.746 154.2 207.719 154.32H200.819C200.832 155.12 200.986 155.833 201.279 156.46C201.586 157.087 202.006 157.58 202.539 157.94C203.086 158.3 203.719 158.48 204.439 158.48C204.959 158.48 205.426 158.4 205.839 158.24C206.266 158.08 206.659 157.873 207.019 157.62L207.379 158.3C207.006 158.527 206.586 158.74 206.119 158.94C205.652 159.14 205.066 159.24 204.359 159.24ZM200.819 153.6H206.939C206.939 152.373 206.686 151.453 206.179 150.84C205.672 150.227 204.986 149.92 204.119 149.92C203.572 149.92 203.059 150.067 202.579 150.36C202.112 150.653 201.719 151.073 201.399 151.62C201.079 152.167 200.886 152.827 200.819 153.6ZM219.947 159.24C219.12 159.24 218.374 159.047 217.707 158.66C217.054 158.26 216.534 157.687 216.147 156.94C215.774 156.18 215.587 155.273 215.587 154.22C215.587 153.14 215.787 152.227 216.187 151.48C216.6 150.72 217.14 150.147 217.807 149.76C218.474 149.36 219.194 149.16 219.967 149.16C220.634 149.16 221.187 149.28 221.627 149.52C222.067 149.76 222.454 150.033 222.787 150.34L222.267 150.96C221.96 150.667 221.62 150.427 221.247 150.24C220.874 150.04 220.454 149.94 219.987 149.94C219.334 149.94 218.74 150.12 218.207 150.48C217.687 150.84 217.274 151.34 216.967 151.98C216.66 152.62 216.507 153.367 216.507 154.22C216.507 155.06 216.647 155.8 216.927 156.44C217.22 157.067 217.627 157.56 218.147 157.92C218.68 158.28 219.294 158.46 219.987 158.46C220.494 158.46 220.96 158.353 221.387 158.14C221.827 157.913 222.214 157.653 222.547 157.36L223.007 157.98C222.594 158.34 222.134 158.64 221.627 158.88C221.12 159.12 220.56 159.24 219.947 159.24Z" fill="white"/>
<path d="M172.94 72V58.82H176.72C178.027 58.82 179.073 59.0867 179.86 59.62C180.647 60.14 181.04 61.0333 181.04 62.3C181.04 63.3533 180.733 64.18 180.12 64.78C179.52 65.38 178.7 65.7467 177.66 65.88L181.3 72H180.24L176.66 65.94H173.86V72H172.94ZM173.86 65.18H176.48C177.64 65.18 178.533 64.9467 179.16 64.48C179.787 64 180.1 63.2733 180.1 62.3C180.1 61.3133 179.787 60.62 179.16 60.22C178.533 59.8067 177.64 59.6 176.48 59.6H173.86V65.18Z" fill="white"/>
<path d="M328.32 117L325.48 107.4H326.44L328.16 113.62C328.28 114.06 328.393 114.493 328.5 114.92C328.62 115.333 328.727 115.753 328.82 116.18H328.9C329.007 115.753 329.12 115.333 329.24 114.92C329.36 114.493 329.48 114.06 329.6 113.62L331.34 107.4H332.4L334.14 113.62C334.26 114.06 334.38 114.493 334.5 114.92C334.62 115.333 334.74 115.753 334.86 116.18H334.94C335.047 115.753 335.16 115.333 335.28 114.92C335.4 114.493 335.513 114.06 335.62 113.62L337.32 107.4H338.22L335.46 117H334.3L332.62 111.04C332.487 110.573 332.367 110.12 332.26 109.68C332.153 109.227 332.027 108.767 331.88 108.3H331.8C331.693 108.767 331.573 109.233 331.44 109.7C331.32 110.153 331.187 110.613 331.04 111.08L329.38 117H328.32ZM346.598 117.24C346.385 117.24 346.185 117.16 345.998 117C345.825 116.84 345.738 116.62 345.738 116.34C345.738 116.047 345.825 115.82 345.998 115.66C346.185 115.5 346.385 115.42 346.598 115.42C346.825 115.42 347.018 115.5 347.178 115.66C347.352 115.82 347.438 116.047 347.438 116.34C347.438 116.62 347.352 116.84 347.178 117C347.018 117.16 346.825 117.24 346.598 117.24Z" fill="white"/>
<path d="M1.94 20V6.82H2.86V19.2H8.94V20H1.94Z" fill="white"/>
</svg>
