<svg width="241" height="241" viewBox="0 0 241 241" fill="none" xmlns="http://www.w3.org/2000/svg">
<path d="M233.229 150.675C232.3 154.145 228.435 156.81 221.862 158.525C215.332 160.228 206.319 160.94 195.447 160.659C173.711 160.098 144.662 155.574 113.457 147.213C82.2527 138.852 54.8331 128.245 35.729 117.863C26.1733 112.67 18.7233 107.547 13.92 102.807C9.08461 98.0356 7.07088 93.7947 8.00054 90.3252C8.93019 86.8556 12.7946 84.1898 19.368 82.4752C25.8977 80.772 34.911 80.0604 45.7829 80.3411C67.5184 80.9024 96.5681 85.426 127.773 93.7872C158.977 102.148 186.397 112.756 205.501 123.137C215.056 128.33 222.506 133.453 227.31 138.193C232.145 142.965 234.159 147.205 233.229 150.675Z" stroke="white"/>
<path d="M232.738 90.3251C233.668 93.7949 231.657 98.0349 226.828 102.805C222.032 107.543 214.591 112.663 205.048 117.853C185.967 128.228 158.58 138.826 127.412 147.178C96.2433 155.53 67.2262 160.044 45.5143 160.599C34.6543 160.877 25.6506 160.163 19.1275 158.458C12.561 156.742 8.69981 154.075 7.77008 150.605C6.84035 147.135 8.85084 142.895 13.6795 138.126C18.4762 133.388 25.9166 128.267 35.4604 123.078C54.5409 112.702 81.9279 102.104 113.096 93.7522C144.265 85.4006 173.282 80.8858 194.994 80.3308C205.854 80.0533 214.857 80.7674 221.38 82.4723C227.947 84.1886 231.808 86.8553 232.738 90.3251Z" stroke="white"/>
<path d="M236.5 120.5C236.5 124.143 233.455 127.763 227.556 131.16C221.694 134.536 213.179 137.593 202.613 140.167C181.489 145.312 152.281 148.5 120 148.5C87.7191 148.5 58.5107 145.312 37.3868 140.167C26.821 137.593 18.3057 134.536 12.444 131.16C6.54498 127.763 3.5 124.143 3.5 120.5C3.5 116.857 6.54498 113.237 12.444 109.84C18.3057 106.464 26.821 103.407 37.3868 100.833C58.5107 95.6877 87.7191 92.5 120 92.5C152.281 92.5 181.489 95.6877 202.613 100.833C213.179 103.407 221.694 106.464 227.556 109.84C233.455 113.237 236.5 116.857 236.5 120.5Z" stroke="white"/>
<path d="M225.672 69.9299C227.227 73.1675 226.033 77.7078 222.164 83.2918C218.321 88.8388 211.948 95.2519 203.519 102.123C186.666 115.861 161.683 131.36 132.565 145.352C103.447 159.343 75.736 169.165 54.4798 173.739C43.8477 176.027 34.8584 176.996 28.1262 176.53C21.3491 176.062 17.0581 174.157 15.5024 170.92C13.9467 167.682 15.1408 163.142 19.0096 157.558C22.8528 152.011 29.226 145.598 37.6555 138.726C54.5084 124.988 79.4912 109.49 108.609 95.4979C137.727 81.5063 165.438 71.6847 186.694 67.1106C197.326 64.8227 206.316 63.8539 213.048 64.3193C219.825 64.7877 224.116 66.6924 225.672 69.9299Z" stroke="white"/>
<path d="M208.51 44.6983C210.851 47.4229 210.873 52.1176 208.581 58.5127C206.304 64.8653 201.808 72.7094 195.444 81.5285C182.721 99.1602 162.601 120.597 138.096 141.648C113.592 162.699 89.3673 179.358 70.0193 189.278C60.3416 194.24 51.9093 197.502 45.2862 198.795C38.6187 200.096 33.9809 199.367 31.6403 196.643C29.2997 193.918 29.2779 189.223 31.5697 182.828C33.8462 176.476 38.3425 168.632 44.7063 159.812C57.4293 142.181 77.5495 120.744 102.054 99.6931C126.559 78.6418 150.783 61.9829 170.131 52.0631C179.809 47.1014 188.241 43.839 194.864 42.5461C201.532 41.2445 206.17 41.9737 208.51 44.6983Z" stroke="white"/>
<path d="M178.876 221.549C175.765 223.345 171.147 222.497 165.287 219.062C159.465 215.649 152.589 209.779 145.1 201.893C130.127 186.126 112.785 162.386 96.632 134.409C80.4794 106.432 68.5913 79.5431 62.4237 58.6934C59.3387 48.2647 57.6932 39.3743 57.6483 32.6262C57.6032 25.8331 59.178 21.4104 62.2887 19.6144C65.3994 17.8184 70.017 18.6659 75.8775 22.1016C81.6991 25.5145 88.5756 31.3847 96.0646 39.2708C111.037 55.037 128.38 78.7769 144.532 106.754C160.685 134.731 172.573 161.62 178.741 182.47C181.826 192.899 183.471 201.789 183.516 208.537C183.561 215.33 181.986 219.753 178.876 221.549Z" stroke="white"/>
<path d="M221.201 178.527C219.404 181.638 214.985 183.215 208.198 183.173C201.456 183.131 192.574 181.491 182.156 178.412C161.327 172.257 134.467 160.385 106.523 144.251C78.5778 128.117 54.8671 110.792 39.1221 95.8315C31.2467 88.3486 25.385 81.4771 21.9781 75.659C18.5484 69.8021 17.7038 65.1862 19.4999 62.0753C21.296 58.9644 25.7158 57.3878 32.5028 57.4296C39.2449 57.4711 48.1267 59.1116 58.5448 62.1905C79.3732 68.346 106.233 80.2171 134.178 96.3511C162.123 112.485 185.833 129.811 201.578 144.771C209.454 152.254 215.315 159.125 218.722 164.944C222.152 170.8 222.997 175.416 221.201 178.527Z" stroke="white"/>
<path d="M202.738 202.528C200.198 205.068 195.518 205.445 188.968 203.643C182.462 201.853 174.3 197.962 165.025 192.283C146.482 180.93 123.586 162.487 100.743 139.644C77.8998 116.801 59.4574 93.9047 48.1036 75.3618C42.4246 66.0868 38.5341 57.9253 36.7443 51.4188C34.9425 44.8688 35.319 40.1892 37.8588 37.6493C40.3987 35.1094 45.0783 34.7329 51.6284 36.5347C58.1349 38.3246 66.2964 42.215 75.5713 47.894C94.1142 59.2478 117.01 77.6902 139.853 100.533C162.697 123.377 181.139 146.273 192.493 164.816C198.172 174.091 202.062 182.252 203.852 188.759C205.654 195.309 205.278 199.988 202.738 202.528Z" stroke="white"/>
<path d="M90.3249 233.23C86.8553 232.3 84.1895 228.436 82.4749 221.862C80.7717 215.333 80.0601 206.319 80.3408 195.448C80.9021 173.712 85.4257 144.662 93.7869 113.458C102.148 82.2534 112.755 54.8339 123.137 35.7297C128.33 26.1741 133.453 18.7241 138.193 13.9208C142.964 9.08534 147.205 7.07161 150.675 8.00127C154.144 8.93092 156.81 12.7953 158.525 19.3687C160.228 25.8984 160.939 34.9118 160.659 45.7836C160.098 67.5192 155.574 96.5688 147.213 127.773C138.851 158.978 128.244 186.397 117.862 205.501C112.67 215.057 107.547 222.507 102.807 227.31C98.0353 232.146 93.7944 234.16 90.3249 233.23Z" stroke="white"/>
<path d="M150.674 232.738C147.205 233.668 142.965 231.657 138.195 226.828C133.457 222.032 128.337 214.591 123.147 205.048C112.772 185.967 102.173 158.58 93.8215 127.412C85.47 96.2433 80.9551 67.2262 80.4002 45.5143C80.1226 34.6543 80.8367 25.6506 82.5417 19.1275C84.2579 12.561 86.9247 8.69981 90.3945 7.77008C93.8643 6.84035 98.1043 8.85084 102.874 13.6795C107.612 18.4762 112.732 25.9166 117.922 35.4604C128.297 54.5409 138.896 81.9279 147.247 113.096C155.599 144.265 160.114 173.282 160.669 194.994C160.946 205.854 160.232 214.857 158.527 221.38C156.811 227.947 154.144 231.808 150.674 232.738Z" stroke="white"/>
<path d="M121 236.5C117.431 236.5 113.876 233.461 110.536 227.559C107.219 221.697 104.216 213.181 101.687 202.615C96.6318 181.49 93.5 152.281 93.5 120C93.5 87.7186 96.6318 58.5095 101.687 37.3849C104.216 26.8186 107.219 18.3028 110.536 12.4407C113.876 6.53856 117.431 3.5 121 3.5C124.569 3.5 128.124 6.53856 131.464 12.4407C134.781 18.3028 137.784 26.8186 140.313 37.3849C145.368 58.5095 148.5 87.7186 148.5 120C148.5 152.281 145.368 181.49 140.313 202.615C137.784 213.181 134.781 221.697 131.464 227.559C128.124 233.461 124.569 236.5 121 236.5Z" stroke="white"/>
<path d="M235.431 103.212C235.962 106.764 233.485 110.75 228.148 114.943C222.846 119.108 214.874 123.354 204.805 127.431C184.673 135.582 156.263 143.015 124.351 147.788C92.4376 152.562 63.0961 153.766 41.4608 151.862C30.6391 150.909 21.7739 149.182 15.4854 146.75C9.15509 144.302 5.62029 141.216 5.08893 137.663C4.55757 134.11 7.03467 130.125 12.3718 125.932C17.6735 121.767 25.6453 117.521 35.7148 113.444C55.8462 105.293 84.256 97.8595 116.169 93.0864C148.082 88.3133 177.423 87.109 199.059 89.013C209.88 89.9654 218.746 91.6932 225.034 94.1249C231.364 96.5728 234.899 99.659 235.431 103.212Z" stroke="white"/>
<path d="M236.036 133.536C235.63 137.105 232.198 140.313 225.942 142.98C219.728 145.63 210.907 147.666 200.098 148.995C178.489 151.652 149.049 151.471 116.906 147.812C84.7627 144.154 56.0349 137.714 35.5756 130.269C25.3422 126.545 17.2043 122.579 11.7445 118.6C6.24796 114.595 3.625 110.698 4.03121 107.129C4.43742 103.56 7.86909 100.352 14.1251 97.6847C20.3394 95.035 29.1604 92.9992 39.969 91.6701C61.5781 89.0131 91.0183 89.1943 123.161 92.8529C155.305 96.5115 184.033 102.951 204.492 110.396C214.725 114.12 222.863 118.087 228.323 122.065C233.819 126.07 236.442 129.967 236.036 133.536Z" stroke="white"/>
<path d="M230.716 82.1483C231.896 85.541 230.196 89.9172 225.72 95.0279C221.275 100.105 214.217 105.756 205.064 111.63C186.766 123.374 160.191 135.948 129.677 146.557C99.1635 157.165 70.5199 163.79 48.8827 165.931C38.0601 167.002 29.0189 166.948 22.3826 165.724C15.7019 164.492 11.6538 162.115 10.4742 158.722C9.29464 155.329 10.9945 150.953 15.4701 145.842C19.9159 140.766 26.9735 135.114 36.1261 129.24C54.4244 117.496 80.9998 104.922 111.513 94.3136C142.027 83.7046 170.671 77.0799 192.308 74.9391C203.13 73.8683 212.172 73.9223 218.808 75.146C225.489 76.3779 229.537 78.7556 230.716 82.1483Z" stroke="white"/>
<path d="M196.413 32.4935C199.131 34.842 199.849 39.4793 198.533 46.1376C197.226 52.7519 193.946 61.1673 188.964 70.8214C179.005 90.1226 162.299 114.274 141.203 138.69C120.106 163.106 98.6344 183.14 80.9825 195.794C72.1533 202.123 64.3028 206.589 57.9483 208.843C51.5514 211.111 46.859 211.073 44.1409 208.725C41.4228 206.376 40.7047 201.739 42.0208 195.081C43.3281 188.466 46.6081 180.051 51.5894 170.397C61.5483 151.096 78.2543 126.944 99.3509 102.528C120.448 78.112 141.919 58.0785 159.571 45.4245C168.4 39.0951 176.251 34.6288 182.605 32.3755C189.002 30.1072 193.695 30.1449 196.413 32.4935Z" stroke="white"/>
<path d="M216.518 55.1376C218.535 58.1095 218.026 62.7765 215.025 68.8714C212.045 74.9258 206.691 82.2111 199.37 90.2539C184.735 106.334 162.319 125.357 135.591 143.502C108.863 161.647 82.9102 175.46 62.5644 183.128C52.3877 186.963 43.6406 189.251 36.9137 189.786C30.1418 190.326 25.6163 189.077 23.5988 186.105C21.5813 183.133 22.0906 178.466 25.0909 172.371C28.0713 166.317 33.4258 159.031 40.7461 150.988C55.3815 134.909 77.7969 115.885 104.525 97.7403C131.253 79.5954 157.206 65.7829 177.552 58.1149C187.729 54.2795 196.476 51.9916 203.203 51.456C209.975 50.9169 214.5 52.1658 216.518 55.1376Z" stroke="white"/>
<path d="M167.073 227.502C163.779 228.935 159.287 227.571 153.853 223.494C148.454 219.445 142.286 212.835 135.737 204.152C122.643 186.794 108.097 161.245 95.2117 131.621C82.3267 101.996 73.5558 73.9352 69.7857 52.5218C67.8999 41.8111 67.2703 32.7917 67.9889 26.0819C68.7123 19.3272 70.7772 15.1109 74.0711 13.6783C77.3649 12.2456 81.857 13.6099 87.2914 17.6863C92.6896 21.7357 98.8582 28.3459 105.407 37.0283C118.501 54.3866 133.047 79.9355 145.932 109.56C158.817 139.184 167.588 167.245 171.358 188.659C173.244 199.369 173.874 208.389 173.155 215.099C172.432 221.853 170.367 226.07 167.073 227.502Z" stroke="white"/>
<path d="M213.993 189.543C211.856 192.431 207.287 193.498 200.548 192.689C193.854 191.885 185.214 189.251 175.211 185.013C155.213 176.542 129.868 161.709 103.927 142.518C77.9858 123.328 56.3867 103.432 42.4345 86.7868C35.4559 78.4612 30.4089 70.9709 27.6818 64.8048C24.9365 58.5976 24.6194 53.9158 26.7558 51.028C28.8922 48.1401 33.4619 47.0736 40.2006 47.8826C46.8948 48.6863 55.534 51.3208 65.5371 55.5581C85.5358 64.0296 110.881 78.8622 136.822 98.053C162.763 117.244 184.362 137.14 198.314 153.785C205.293 162.11 210.339 169.601 213.067 175.767C215.812 181.974 216.129 186.656 213.993 189.543Z" stroke="white"/>
<path d="M192.934 211.302C190.123 213.539 185.431 213.383 179.127 210.852C172.864 208.338 165.195 203.55 156.622 196.858C139.482 183.48 118.819 162.567 98.7053 137.287C78.5919 112.007 62.8572 87.1719 53.6733 67.4639C49.0796 57.6062 46.1371 49.057 45.0946 42.3899C44.0451 35.6781 44.9484 31.0711 47.7592 28.8347C50.57 26.5984 55.2622 26.7535 61.5664 29.2845C67.8288 31.7987 75.498 36.5872 84.0712 43.2787C101.211 56.6567 121.875 77.5701 141.988 102.85C162.101 128.13 177.836 152.965 187.02 172.673C191.614 182.531 194.556 191.08 195.599 197.747C196.648 204.459 195.745 209.066 192.934 211.302Z" stroke="white"/>
<path d="M77.7694 229.094C74.4273 227.778 72.2155 223.637 71.2553 216.912C70.3015 210.232 70.6138 201.196 72.1223 190.425C75.138 168.893 82.9178 140.541 94.7544 110.482C106.591 80.4234 120.231 54.3794 132.707 36.5719C138.947 27.6648 144.879 20.8419 150.132 16.6055C155.42 12.3407 159.861 10.8195 163.203 12.1356C166.546 13.4516 168.757 17.5927 169.718 24.3179C170.671 30.9983 170.359 40.0343 168.851 50.8046C165.835 72.3373 158.055 100.689 146.219 130.748C134.382 160.806 120.742 186.85 108.266 204.658C102.026 213.565 96.0935 220.388 90.8408 224.624C85.553 228.889 81.1115 230.41 77.7694 229.094Z" stroke="white"/>
<path d="M137.788 235.43C134.235 235.962 130.25 233.485 126.057 228.148C121.892 222.846 117.646 214.874 113.569 204.805C105.418 184.673 97.9846 156.263 93.2115 124.35C88.4384 92.4374 87.2341 63.0959 89.1381 41.4605C90.0905 30.6388 91.8183 21.7736 94.25 15.4852C96.6979 9.15484 99.7842 5.62005 103.337 5.08869C106.89 4.55733 110.875 7.03443 115.068 12.3715C119.233 17.6733 123.479 25.645 127.556 35.7145C135.707 55.846 143.14 84.2558 147.914 116.169C152.687 148.082 153.891 177.423 151.987 199.059C151.034 209.88 149.307 218.745 146.875 225.034C144.427 231.364 141.341 234.899 137.788 235.43Z" stroke="white"/>
<path d="M107.76 235.595C104.191 235.189 100.982 231.767 98.3119 225.533C95.66 219.34 93.6207 210.55 92.2874 199.779C89.6218 178.246 89.7911 148.91 93.4366 116.882C97.0821 84.8545 103.51 56.2312 110.946 35.8476C114.666 25.652 118.629 17.5449 122.605 12.1062C126.607 6.6314 130.503 4.01882 134.072 4.42513C137.642 4.83144 140.851 8.25271 143.521 14.4869C146.173 20.68 148.212 29.4703 149.545 40.241C152.211 61.7744 152.042 91.1101 148.396 123.138C144.751 155.166 138.323 183.789 130.886 204.173C127.167 214.368 123.204 222.475 119.228 227.914C115.226 233.389 111.33 236.001 107.76 235.595Z" stroke="white"/>
<path d="M120.5 195.5C78.5233 195.5 44.5 161.694 44.5 120C44.5 78.3056 78.5233 44.5 120.5 44.5C162.477 44.5 196.5 78.3056 196.5 120C196.5 161.694 162.477 195.5 120.5 195.5Z" stroke="white"/>
<g filter="url(#filter0_f_312_12)">
<ellipse cx="120" cy="114.5" rx="40.5" ry="41" transform="rotate(90 120 114.5)" fill="white"/>
</g>
<g filter="url(#filter1_f_312_12)">
<ellipse cx="121.5" cy="120" rx="15" ry="15.5" transform="rotate(90 121.5 120)" fill="white"/>
</g>
<defs>
<filter id="filter0_f_312_12" x="22" y="17" width="196" height="195" filterUnits="userSpaceOnUse" color-interpolation-filters="sRGB">
<feFlood flood-opacity="0" result="BackgroundImageFix"/>
<feBlend mode="normal" in="SourceGraphic" in2="BackgroundImageFix" result="shape"/>
<feGaussianBlur stdDeviation="28.5" result="effect1_foregroundBlur_312_12"/>
</filter>
<filter id="filter1_f_312_12" x="49" y="48" width="145" height="144" filterUnits="userSpaceOnUse" color-interpolation-filters="sRGB">
<feFlood flood-opacity="0" result="BackgroundImageFix"/>
<feBlend mode="normal" in="SourceGraphic" in2="BackgroundImageFix" result="shape"/>
<feGaussianBlur stdDeviation="28.5" result="effect1_foregroundBlur_312_12"/>
</filter>
</defs>
</svg>
