<svg width="299" height="20" viewBox="0 0 299 20" fill="none" xmlns="http://www.w3.org/2000/svg">
<path d="M4.34 15.24C3.58 15.24 2.87333 15.0467 2.22 14.66C1.56667 14.26 1.04 13.6867 0.64 12.94C0.24 12.18 0.04 11.2733 0.04 10.22C0.04 9.14 0.24 8.22667 0.64 7.48C1.04 6.72 1.56667 6.14667 2.22 5.76C2.87333 5.36 3.58 5.16 4.34 5.16C5.11333 5.16 5.82667 5.36 6.48 5.76C7.13333 6.14667 7.66 6.72 8.06 7.48C8.46 8.22667 8.66 9.14 8.66 10.22C8.66 11.2733 8.46 12.18 8.06 12.94C7.66 13.6867 7.13333 14.26 6.48 14.66C5.82667 15.0467 5.11333 15.24 4.34 15.24ZM4.34 14.46C4.99333 14.46 5.57333 14.28 6.08 13.92C6.58667 13.56 6.98667 13.0667 7.28 12.44C7.58667 11.8 7.74 11.06 7.74 10.22C7.74 9.36667 7.58667 8.62 7.28 7.98C6.98667 7.34 6.58667 6.84 6.08 6.48C5.57333 6.12 4.99333 5.94 4.34 5.94C3.7 5.94 3.12 6.12 2.6 6.48C2.09333 6.84 1.69333 7.34 1.4 7.98C1.10667 8.62 0.96 9.36667 0.96 10.22C0.96 11.06 1.10667 11.8 1.4 12.44C1.69333 13.0667 2.09333 13.56 2.6 13.92C3.12 14.28 3.7 14.46 4.34 14.46ZM21.3031 15.24C20.8498 15.24 20.3698 15.1333 19.8631 14.92C19.3565 14.6933 18.8765 14.3933 18.4231 14.02H18.3831L18.2831 15H17.5431V0.619999H18.4231V4.78L18.3831 6.66C18.8765 6.24667 19.4031 5.89333 19.9631 5.6C20.5365 5.30667 21.1165 5.16 21.7031 5.16C22.9831 5.16 23.9431 5.60667 24.5831 6.5C25.2231 7.38 25.5431 8.56667 25.5431 10.06C25.5431 11.14 25.3431 12.0667 24.9431 12.84C24.5565 13.6133 24.0431 14.2067 23.4031 14.62C22.7631 15.0333 22.0631 15.24 21.3031 15.24ZM21.2631 14.46C21.9165 14.46 22.4898 14.2733 22.9831 13.9C23.4898 13.5267 23.8831 13.0133 24.1631 12.36C24.4565 11.6933 24.6031 10.9267 24.6031 10.06C24.6031 9.27333 24.5031 8.57333 24.3031 7.96C24.1031 7.33333 23.7765 6.84 23.3231 6.48C22.8831 6.12 22.2965 5.94 21.5631 5.94C21.0831 5.94 20.5831 6.08 20.0631 6.36C19.5431 6.62667 18.9965 7.01333 18.4231 7.52V13.22C18.9565 13.6733 19.4698 13.9933 19.9631 14.18C20.4565 14.3667 20.8898 14.46 21.2631 14.46ZM33.123 19.58C32.8963 19.58 32.6696 19.5533 32.443 19.5C32.2163 19.4467 32.0296 19.3933 31.883 19.34L32.103 18.62C32.223 18.66 32.3696 18.7 32.543 18.74C32.7296 18.7933 32.9163 18.82 33.103 18.82C33.6496 18.82 33.9963 18.62 34.143 18.22C34.303 17.8333 34.383 17.3333 34.383 16.72V5.4H35.283V16.78C35.283 18.6467 34.563 19.58 33.123 19.58ZM34.823 3.08C34.6096 3.08 34.4296 3.00667 34.283 2.86C34.1363 2.71333 34.063 2.51333 34.063 2.26C34.063 2.03333 34.1363 1.84667 34.283 1.7C34.4296 1.55333 34.6096 1.48 34.823 1.48C35.0496 1.48 35.2296 1.55333 35.363 1.7C35.5096 1.84667 35.583 2.03333 35.583 2.26C35.583 2.51333 35.5096 2.71333 35.363 2.86C35.2296 3.00667 35.0496 3.08 34.823 3.08ZM48.5933 15.24C47.7799 15.24 47.0333 15.04 46.3533 14.64C45.6866 14.24 45.1533 13.6667 44.7533 12.92C44.3533 12.16 44.1533 11.26 44.1533 10.22C44.1533 9.16667 44.3533 8.26667 44.7533 7.52C45.1533 6.76 45.6733 6.18 46.3133 5.78C46.9533 5.36667 47.6266 5.16 48.3333 5.16C49.4799 5.16 50.3799 5.54667 51.0333 6.32C51.6866 7.09333 52.0133 8.18667 52.0133 9.6C52.0133 9.72 52.0066 9.84 51.9933 9.96C51.9933 10.08 51.9799 10.2 51.9533 10.32H45.0533C45.0666 11.12 45.2199 11.8333 45.5133 12.46C45.8199 13.0867 46.2399 13.58 46.7733 13.94C47.3199 14.3 47.9533 14.48 48.6733 14.48C49.1933 14.48 49.6599 14.4 50.0733 14.24C50.4999 14.08 50.8933 13.8733 51.2533 13.62L51.6133 14.3C51.2399 14.5267 50.8199 14.74 50.3533 14.94C49.8866 15.14 49.2999 15.24 48.5933 15.24ZM45.0533 9.6H51.1733C51.1733 8.37333 50.9199 7.45333 50.4133 6.84C49.9066 6.22667 49.2199 5.92 48.3533 5.92C47.8066 5.92 47.2933 6.06667 46.8133 6.36C46.3466 6.65333 45.9533 7.07333 45.6333 7.62C45.3133 8.16667 45.1199 8.82667 45.0533 9.6ZM64.1813 15.24C63.3546 15.24 62.6079 15.0467 61.9413 14.66C61.2879 14.26 60.7679 13.6867 60.3813 12.94C60.0079 12.18 59.8213 11.2733 59.8213 10.22C59.8213 9.14 60.0213 8.22667 60.4213 7.48C60.8346 6.72 61.3746 6.14667 62.0413 5.76C62.7079 5.36 63.4279 5.16 64.2013 5.16C64.8679 5.16 65.4213 5.28 65.8613 5.52C66.3013 5.76 66.6879 6.03333 67.0213 6.34L66.5013 6.96C66.1946 6.66667 65.8546 6.42667 65.4813 6.24C65.1079 6.04 64.6879 5.94 64.2213 5.94C63.5679 5.94 62.9746 6.12 62.4413 6.48C61.9213 6.84 61.5079 7.34 61.2013 7.98C60.8946 8.62 60.7413 9.36667 60.7413 10.22C60.7413 11.06 60.8813 11.8 61.1613 12.44C61.4546 13.0667 61.8613 13.56 62.3813 13.92C62.9146 14.28 63.5279 14.46 64.2213 14.46C64.7279 14.46 65.1946 14.3533 65.6213 14.14C66.0613 13.9133 66.4479 13.6533 66.7813 13.36L67.2413 13.98C66.8279 14.34 66.3679 14.64 65.8613 14.88C65.3546 15.12 64.7946 15.24 64.1813 15.24ZM78.0303 15.24C77.097 15.24 76.4636 14.9733 76.1303 14.44C75.797 13.8933 75.6303 13.1933 75.6303 12.34V6.16H74.1303V5.48L75.6503 5.4L75.7703 2.62H76.5303V5.4H79.3103V6.16H76.5303V12.42C76.5303 13.0333 76.637 13.5267 76.8503 13.9C77.0636 14.2733 77.497 14.46 78.1503 14.46C78.337 14.46 78.537 14.4333 78.7503 14.38C78.977 14.3133 79.177 14.24 79.3503 14.16L79.5903 14.88C79.3103 14.9733 79.0236 15.0533 78.7303 15.12C78.4503 15.2 78.217 15.24 78.0303 15.24ZM87.5408 15.24C87.4341 15.24 87.3341 15.2267 87.2408 15.2L87.1408 14.46C87.3274 14.46 87.4741 14.4 87.5808 14.28C87.7008 14.16 87.7608 13.9533 87.7608 13.66V2.22H88.7808C89.4341 3.59333 90.0741 4.96667 90.7008 6.34C91.3408 7.71333 91.9674 9.09333 92.5808 10.48L94.0408 13.76H94.1208C94.0808 12.8933 94.0474 12.1267 94.0208 11.46C94.0074 10.7933 94.0008 10.1467 94.0008 9.52C94.0008 8.89333 94.0008 8.20667 94.0008 7.46V3.56C94.0008 2.50667 94.3541 1.98 95.0608 1.98C95.1808 1.98 95.2874 1.99333 95.3808 2.02L95.4808 2.76C95.2808 2.76 95.1274 2.82 95.0208 2.94C94.9141 3.04667 94.8608 3.25333 94.8608 3.56V15H93.8208C93.1808 13.6133 92.5474 12.2333 91.9208 10.86C91.2941 9.48667 90.6674 8.1 90.0408 6.7L88.5608 3.44H88.4808C88.5341 4.30667 88.5674 5.08 88.5808 5.76C88.5941 6.42667 88.6008 7.07333 88.6008 7.7C88.6008 8.32667 88.6008 9.01333 88.6008 9.76V13.66C88.6008 14.7133 88.2474 15.24 87.5408 15.24ZM99.6208 9.4C99.0874 9.4 98.5941 9.27333 98.1408 9.02C97.7008 8.76667 97.3474 8.40667 97.0808 7.94C96.8141 7.46 96.6808 6.89333 96.6808 6.24C96.6808 5.22667 96.9674 4.45333 97.5408 3.92C98.1141 3.37333 98.8074 3.1 99.6208 3.1C100.434 3.1 101.127 3.37333 101.701 3.92C102.274 4.45333 102.561 5.22667 102.561 6.24C102.561 6.89333 102.427 7.46 102.161 7.94C101.894 8.40667 101.541 8.76667 101.101 9.02C100.661 9.27333 100.167 9.4 99.6208 9.4ZM99.6208 8.72C100.261 8.72 100.774 8.49333 101.161 8.04C101.547 7.57333 101.741 6.97333 101.741 6.24C101.741 5.49333 101.547 4.9 101.161 4.46C100.774 4.00667 100.261 3.78 99.6208 3.78C98.9808 3.78 98.4674 4.00667 98.0808 4.46C97.6941 4.9 97.5008 5.49333 97.5008 6.24C97.5008 6.97333 97.6941 7.57333 98.0808 8.04C98.4674 8.49333 98.9808 8.72 99.6208 8.72ZM97.1608 11.76V11.08H102.081V11.76H97.1608ZM110.453 15V14.22H113.453V3.62H111.173V3.02C111.693 2.92667 112.16 2.81333 112.573 2.68C112.987 2.54667 113.34 2.39333 113.633 2.22H114.353V14.22H117.133V15H110.453ZM129.124 15.24C127.91 15.24 126.97 14.66 126.304 13.5C125.637 12.34 125.304 10.6933 125.304 8.56C125.304 6.44 125.637 4.81333 126.304 3.68C126.97 2.54667 127.91 1.98 129.124 1.98C130.35 1.98 131.29 2.54667 131.944 3.68C132.61 4.81333 132.944 6.44 132.944 8.56C132.944 10.6933 132.61 12.34 131.944 13.5C131.29 14.66 130.35 15.24 129.124 15.24ZM129.124 14.48C130.017 14.48 130.724 13.98 131.244 12.98C131.777 11.98 132.044 10.5067 132.044 8.56C132.044 6.61333 131.777 5.16 131.244 4.2C130.724 3.22667 130.017 2.74 129.124 2.74C128.244 2.74 127.537 3.22667 127.004 4.2C126.47 5.16 126.204 6.61333 126.204 8.56C126.204 10.5067 126.47 11.98 127.004 12.98C127.537 13.98 128.244 14.48 129.124 14.48ZM141.594 15V14.22H144.594V3.62H142.314V3.02C142.834 2.92667 143.301 2.81333 143.714 2.68C144.127 2.54667 144.481 2.39333 144.774 2.22H145.494V14.22H148.274V15H141.594ZM157.164 15V14.22H160.164V3.62H157.884V3.02C158.404 2.92667 158.871 2.81333 159.284 2.68C159.698 2.54667 160.051 2.39333 160.344 2.22H161.064V14.22H163.844V15H157.164ZM172.735 15V14.22H175.735V3.62H173.455V3.02C173.975 2.92667 174.441 2.81333 174.855 2.68C175.268 2.54667 175.621 2.39333 175.915 2.22H176.635V14.22H179.415V15H172.735ZM191.405 15.24C190.192 15.24 189.252 14.66 188.585 13.5C187.918 12.34 187.585 10.6933 187.585 8.56C187.585 6.44 187.918 4.81333 188.585 3.68C189.252 2.54667 190.192 1.98 191.405 1.98C192.632 1.98 193.572 2.54667 194.225 3.68C194.892 4.81333 195.225 6.44 195.225 8.56C195.225 10.6933 194.892 12.34 194.225 13.5C193.572 14.66 192.632 15.24 191.405 15.24ZM191.405 14.48C192.298 14.48 193.005 13.98 193.525 12.98C194.058 11.98 194.325 10.5067 194.325 8.56C194.325 6.61333 194.058 5.16 193.525 4.2C193.005 3.22667 192.298 2.74 191.405 2.74C190.525 2.74 189.818 3.22667 189.285 4.2C188.752 5.16 188.485 6.61333 188.485 8.56C188.485 10.5067 188.752 11.98 189.285 12.98C189.818 13.98 190.525 14.48 191.405 14.48ZM206.975 15.24C205.762 15.24 204.822 14.66 204.155 13.5C203.489 12.34 203.155 10.6933 203.155 8.56C203.155 6.44 203.489 4.81333 204.155 3.68C204.822 2.54667 205.762 1.98 206.975 1.98C208.202 1.98 209.142 2.54667 209.795 3.68C210.462 4.81333 210.795 6.44 210.795 8.56C210.795 10.6933 210.462 12.34 209.795 13.5C209.142 14.66 208.202 15.24 206.975 15.24ZM206.975 14.48C207.869 14.48 208.575 13.98 209.095 12.98C209.629 11.98 209.895 10.5067 209.895 8.56C209.895 6.61333 209.629 5.16 209.095 4.2C208.575 3.22667 207.869 2.74 206.975 2.74C206.095 2.74 205.389 3.22667 204.855 4.2C204.322 5.16 204.055 6.61333 204.055 8.56C204.055 10.5067 204.322 11.98 204.855 12.98C205.389 13.98 206.095 14.48 206.975 14.48ZM219.446 15V14.22H222.446V3.62H220.166V3.02C220.686 2.92667 221.152 2.81333 221.566 2.68C221.979 2.54667 222.332 2.39333 222.626 2.22H223.346V14.22H226.126V15H219.446ZM235.016 15V14.22H238.016V3.62H235.736V3.02C236.256 2.92667 236.723 2.81333 237.136 2.68C237.549 2.54667 237.903 2.39333 238.196 2.22H238.916V14.22H241.696V15H235.016ZM251.106 15.24C250.893 15.24 250.693 15.16 250.506 15C250.333 14.84 250.246 14.62 250.246 14.34C250.246 14.0467 250.333 13.82 250.506 13.66C250.693 13.5 250.893 13.42 251.106 13.42C251.333 13.42 251.526 13.5 251.686 13.66C251.86 13.82 251.946 14.0467 251.946 14.34C251.946 14.62 251.86 14.84 251.686 15C251.526 15.16 251.333 15.24 251.106 15.24ZM260.961 15V14.22H263.961V3.62H261.681V3.02C262.201 2.92667 262.668 2.81333 263.081 2.68C263.495 2.54667 263.848 2.39333 264.141 2.22H264.861V14.22H267.641V15H260.961ZM276.532 15V14.22H279.532V3.62H277.252V3.02C277.772 2.92667 278.238 2.81333 278.652 2.68C279.065 2.54667 279.418 2.39333 279.712 2.22H280.432V14.22H283.212V15H276.532ZM292.102 15V14.22H295.102V3.62H292.822V3.02C293.342 2.92667 293.809 2.81333 294.222 2.68C294.635 2.54667 294.989 2.39333 295.282 2.22H296.002V14.22H298.782V15H292.102Z" fill="white"/>
</svg>
