<svg width="776" height="339" viewBox="0 0 776 339" fill="none" xmlns="http://www.w3.org/2000/svg">
<path d="M734 101.292L672.384 102.367L671.5 177.292L670.616 102.367L609 101.292L670.616 100.217L671.5 25.292L672.384 100.217L734 101.292Z" fill="white"/>
<path d="M733.02 137.272L672.35 103.094L634.329 167.677L670.625 102.087L611.021 66.0414L671.691 100.219L709.712 35.6362L673.416 101.227L733.02 137.272Z" fill="white"/>
<path d="M712.589 161.059L674.142 102.572L611.089 142.365L673.065 100.877L636.411 41.2238L674.858 99.7112L737.911 59.9177L675.935 101.406L712.589 161.059Z" fill="white"/>
<path d="M296 182L182.626 183.655L181 299L179.374 183.655L66 182L179.374 180.345L181 65L182.626 180.345L296 182Z" fill="white"/>
<path d="M294.026 237.351L182.549 184.729L112.687 284.165L179.379 183.178L69.8606 127.681L181.338 180.303L251.2 80.8674L184.508 181.854L294.026 237.351Z" fill="white"/>
<path d="M256.486 273.976L185.842 183.925L69.9857 245.193L183.863 181.316L116.514 89.4703L187.158 179.521L303.014 118.253L189.138 182.13L256.486 273.976Z" fill="white"/>
</svg>
