<svg width="261" height="38" viewBox="0 0 261 38" fill="none" xmlns="http://www.w3.org/2000/svg">
<line x1="0.5" x2="0.5" y2="29" stroke="white"/>
<path d="M6.52 29.228C6.064 29.228 5.65 29.054 5.278 28.706C4.906 28.346 4.72 27.86 4.72 27.248C4.72 26.648 4.906 26.168 5.278 25.808C5.65 25.448 6.064 25.268 6.52 25.268C6.988 25.268 7.408 25.448 7.78 25.808C8.152 26.168 8.338 26.648 8.338 27.248C8.338 27.86 8.152 28.346 7.78 28.706C7.408 29.054 6.988 29.228 6.52 29.228ZM16.9825 29.228C16.5265 29.228 16.1125 29.054 15.7405 28.706C15.3685 28.346 15.1825 27.86 15.1825 27.248C15.1825 26.648 15.3685 26.168 15.7405 25.808C16.1125 25.448 16.5265 25.268 16.9825 25.268C17.4505 25.268 17.8705 25.448 18.2425 25.808C18.6145 26.168 18.8005 26.648 18.8005 27.248C18.8005 27.86 18.6145 28.346 18.2425 28.706C17.8705 29.054 17.4505 29.228 16.9825 29.228ZM27.445 29.228C26.989 29.228 26.575 29.054 26.203 28.706C25.831 28.346 25.645 27.86 25.645 27.248C25.645 26.648 25.831 26.168 26.203 25.808C26.575 25.448 26.989 25.268 27.445 25.268C27.913 25.268 28.333 25.448 28.705 25.808C29.077 26.168 29.263 26.648 29.263 27.248C29.263 27.86 29.077 28.346 28.705 28.706C28.333 29.054 27.913 29.228 27.445 29.228ZM46.911 29.228C46.455 29.228 46.041 29.054 45.669 28.706C45.297 28.346 45.111 27.86 45.111 27.248C45.111 26.648 45.297 26.168 45.669 25.808C46.041 25.448 46.455 25.268 46.911 25.268C47.379 25.268 47.799 25.448 48.171 25.808C48.543 26.168 48.729 26.648 48.729 27.248C48.729 27.86 48.543 28.346 48.171 28.706C47.799 29.054 47.379 29.228 46.911 29.228ZM57.3735 29.228C56.9175 29.228 56.5035 29.054 56.1315 28.706C55.7595 28.346 55.5735 27.86 55.5735 27.248C55.5735 26.648 55.7595 26.168 56.1315 25.808C56.5035 25.448 56.9175 25.268 57.3735 25.268C57.8415 25.268 58.2615 25.448 58.6335 25.808C59.0055 26.168 59.1915 26.648 59.1915 27.248C59.1915 27.86 59.0055 28.346 58.6335 28.706C58.2615 29.054 57.8415 29.228 57.3735 29.228ZM74.9315 26.402V25.718H82.3295V26.402H74.9315ZM88.9448 26.402V25.718H96.3428V26.402H88.9448ZM104.866 29.228C104.41 29.228 103.996 29.054 103.624 28.706C103.252 28.346 103.066 27.86 103.066 27.248C103.066 26.648 103.252 26.168 103.624 25.808C103.996 25.448 104.41 25.268 104.866 25.268C105.334 25.268 105.754 25.448 106.126 25.808C106.498 26.168 106.684 26.648 106.684 27.248C106.684 27.86 106.498 28.346 106.126 28.706C105.754 29.054 105.334 29.228 104.866 29.228ZM122.424 26.402V25.718H129.822V26.402H122.424ZM138.345 29.228C137.889 29.228 137.475 29.054 137.103 28.706C136.731 28.346 136.545 27.86 136.545 27.248C136.545 26.648 136.731 26.168 137.103 25.808C137.475 25.448 137.889 25.268 138.345 25.268C138.813 25.268 139.233 25.448 139.605 25.808C139.977 26.168 140.163 26.648 140.163 27.248C140.163 27.86 139.977 28.346 139.605 28.706C139.233 29.054 138.813 29.228 138.345 29.228ZM157.811 29.228C157.355 29.228 156.941 29.054 156.569 28.706C156.197 28.346 156.011 27.86 156.011 27.248C156.011 26.648 156.197 26.168 156.569 25.808C156.941 25.448 157.355 25.268 157.811 25.268C158.279 25.268 158.699 25.448 159.071 25.808C159.443 26.168 159.629 26.648 159.629 27.248C159.629 27.86 159.443 28.346 159.071 28.706C158.699 29.054 158.279 29.228 157.811 29.228ZM166.366 26.402V25.718H173.764V26.402H166.366ZM191.291 29.228C190.835 29.228 190.421 29.054 190.049 28.706C189.677 28.346 189.491 27.86 189.491 27.248C189.491 26.648 189.677 26.168 190.049 25.808C190.421 25.448 190.835 25.268 191.291 25.268C191.759 25.268 192.179 25.448 192.551 25.808C192.923 26.168 193.109 26.648 193.109 27.248C193.109 27.86 192.923 28.346 192.551 28.706C192.179 29.054 191.759 29.228 191.291 29.228ZM199.845 26.402V25.718H207.243V26.402H199.845ZM215.766 29.228C215.31 29.228 214.896 29.054 214.524 28.706C214.152 28.346 213.966 27.86 213.966 27.248C213.966 26.648 214.152 26.168 214.524 25.808C214.896 25.448 215.31 25.268 215.766 25.268C216.234 25.268 216.654 25.448 217.026 25.808C217.398 26.168 217.584 26.648 217.584 27.248C217.584 27.86 217.398 28.346 217.026 28.706C216.654 29.054 216.234 29.228 215.766 29.228ZM226.229 29.228C225.773 29.228 225.359 29.054 224.987 28.706C224.615 28.346 224.429 27.86 224.429 27.248C224.429 26.648 224.615 26.168 224.987 25.808C225.359 25.448 225.773 25.268 226.229 25.268C226.697 25.268 227.117 25.448 227.489 25.808C227.861 26.168 228.047 26.648 228.047 27.248C228.047 27.86 227.861 28.346 227.489 28.706C227.117 29.054 226.697 29.228 226.229 29.228Z" fill="white"/>
</svg>
