<svg width="391" height="206" viewBox="0 0 391 206" fill="none" xmlns="http://www.w3.org/2000/svg">
<path d="M169.698 163.293C116.364 140.529 70.9927 113.145 40.7508 87.2865C25.6275 74.3553 14.3102 61.8245 7.66608 50.4636C1.01598 39.0924 -0.901702 28.987 2.58031 20.829C6.06233 12.671 14.686 7.06488 27.4976 4.00034C40.2976 0.938549 57.1752 0.441936 76.975 2.4166C116.569 6.36531 167.73 20.1836 221.064 42.9477C274.398 65.7118 319.77 93.0959 350.012 118.954C365.135 131.886 376.452 144.416 383.097 155.777C389.747 167.149 391.664 177.254 388.182 185.412C384.7 193.57 376.077 199.176 363.265 202.241C350.465 205.302 333.587 205.799 313.788 203.824C274.194 199.876 223.032 186.057 169.698 163.293Z" stroke="white"/>
</svg>
