<svg width="568" height="298" viewBox="0 0 568 298" fill="none" xmlns="http://www.w3.org/2000/svg">
<path d="M246.762 236.4C169.303 203.339 103.399 163.565 59.4646 125.999C37.495 107.213 21.041 88.999 11.3757 72.4719C1.70427 55.9346 -1.11923 41.1806 3.97806 29.2381C9.07535 17.2956 21.6824 9.1277 40.3145 4.67089C58.9351 0.216815 83.4703 -0.502452 112.234 2.36614C169.754 8.10272 244.066 28.1754 321.525 61.2365C398.984 94.2976 464.887 134.072 508.822 171.638C530.792 190.424 547.246 208.638 556.911 225.165C566.582 241.702 569.406 256.456 564.309 268.399C559.211 280.341 546.604 288.509 527.972 292.966C509.352 297.42 484.817 298.139 456.053 295.271C398.533 289.534 324.221 269.462 246.762 236.4Z" stroke="white"/>
</svg>
