<svg width="922" height="456" viewBox="0 0 922 456" fill="none" xmlns="http://www.w3.org/2000/svg">
<path d="M396.777 325.818C264.09 269.184 148.686 206.885 69.3671 151.951C29.7043 124.481 -0.913364 98.868 -20.1586 76.7402C-29.782 65.6754 -36.5426 55.5037 -40.1764 46.4263C-43.8097 37.3506 -44.3 29.4166 -41.4649 22.7742C-38.6297 16.1317 -32.5614 10.9971 -23.4945 7.34208C-14.4259 3.68634 -2.40406 1.53139 12.2432 0.8258C41.5354 -0.585269 81.2116 3.80456 128.486 13.4414C223.026 32.7135 347.847 72.9478 480.534 129.581C613.222 186.215 728.625 248.514 807.944 303.448C847.607 330.918 878.225 356.531 897.47 378.659C907.093 389.724 913.854 399.895 917.488 408.973C921.121 418.048 921.611 425.982 918.776 432.625C915.941 439.267 909.873 444.402 900.806 448.057C891.737 451.713 879.715 453.868 865.068 454.573C835.776 455.984 796.1 451.595 748.826 441.958C654.285 422.686 529.464 382.451 396.777 325.818Z" stroke="white"/>
</svg>
