<svg width="486" height="592" viewBox="0 0 486 592" fill="none" xmlns="http://www.w3.org/2000/svg">
<path d="M410.38 123.24C409.42 123.24 408.567 123.053 407.82 122.68C407.073 122.307 406.44 121.833 405.92 121.26L406.52 120.62C407 121.153 407.573 121.587 408.24 121.92C408.907 122.24 409.62 122.4 410.38 122.4C411.393 122.4 412.193 122.153 412.78 121.66C413.367 121.167 413.66 120.533 413.66 119.76C413.66 119.213 413.553 118.773 413.34 118.44C413.127 118.107 412.84 117.833 412.48 117.62C412.133 117.393 411.74 117.187 411.3 117L409.3 116.1C408.927 115.927 408.527 115.713 408.1 115.46C407.687 115.193 407.333 114.853 407.04 114.44C406.76 114.013 406.62 113.473 406.62 112.82C406.62 112.18 406.787 111.62 407.12 111.14C407.453 110.647 407.907 110.267 408.48 110C409.067 109.72 409.727 109.58 410.46 109.58C411.247 109.58 411.953 109.74 412.58 110.06C413.207 110.367 413.72 110.733 414.12 111.16L413.6 111.76C413.213 111.36 412.76 111.04 412.24 110.8C411.72 110.547 411.127 110.42 410.46 110.42C409.593 110.42 408.887 110.633 408.34 111.06C407.807 111.487 407.54 112.06 407.54 112.78C407.54 113.287 407.66 113.7 407.9 114.02C408.153 114.34 408.453 114.6 408.8 114.8C409.16 115 409.5 115.173 409.82 115.32L411.82 116.2C412.313 116.413 412.767 116.667 413.18 116.96C413.607 117.24 413.947 117.6 414.2 118.04C414.467 118.467 414.6 119.02 414.6 119.7C414.6 120.367 414.427 120.973 414.08 121.52C413.733 122.053 413.24 122.473 412.6 122.78C411.973 123.087 411.233 123.24 410.38 123.24ZM427.95 123.24C426.896 123.24 425.963 122.96 425.15 122.4C424.336 121.827 423.696 121.027 423.23 120C422.763 118.973 422.53 117.76 422.53 116.36C422.53 114.973 422.763 113.773 423.23 112.76C423.696 111.747 424.336 110.967 425.15 110.42C425.963 109.86 426.896 109.58 427.95 109.58C429.016 109.58 429.956 109.86 430.77 110.42C431.583 110.967 432.223 111.747 432.69 112.76C433.156 113.773 433.39 114.973 433.39 116.36C433.39 117.76 433.156 118.973 432.69 120C432.223 121.027 431.583 121.827 430.77 122.4C429.956 122.96 429.016 123.24 427.95 123.24ZM427.95 122.4C428.843 122.4 429.623 122.153 430.29 121.66C430.956 121.153 431.476 120.447 431.85 119.54C432.223 118.633 432.41 117.573 432.41 116.36C432.41 115.147 432.223 114.1 431.85 113.22C431.476 112.327 430.956 111.64 430.29 111.16C429.623 110.667 428.843 110.42 427.95 110.42C427.056 110.42 426.276 110.667 425.61 111.16C424.943 111.64 424.423 112.327 424.05 113.22C423.676 114.1 423.49 115.147 423.49 116.36C423.49 117.573 423.676 118.633 424.05 119.54C424.423 120.447 424.943 121.153 425.61 121.66C426.276 122.153 427.056 122.4 427.95 122.4ZM442.417 123V109.82H443.337V122.2H449.417V123H442.417Z" fill="white"/>
<path d="M8.84 47V37.4H9.6L9.68 38.88H9.74C10.1667 38.3867 10.64 37.98 11.16 37.66C11.6933 37.3267 12.2267 37.16 12.76 37.16C13.5333 37.16 14.1267 37.34 14.54 37.7C14.9533 38.06 15.2467 38.5333 15.42 39.12C15.9667 38.52 16.5067 38.0467 17.04 37.7C17.5867 37.34 18.1333 37.16 18.68 37.16C20.6 37.16 21.56 38.3867 21.56 40.84V47H20.66V40.96C20.66 38.96 19.9467 37.96 18.52 37.96C17.6667 37.96 16.7067 38.56 15.64 39.76V47H14.76V40.96C14.76 39.9333 14.5867 39.18 14.24 38.7C13.8933 38.2067 13.3467 37.96 12.6 37.96C11.7467 37.96 10.7867 38.56 9.72 39.76V47H8.84ZM31.0705 47V37.4H31.8305L31.9105 38.88H31.9705C32.4638 38.3867 32.9705 37.98 33.4905 37.66C34.0238 37.3267 34.6171 37.16 35.2705 37.16C36.2571 37.16 36.9838 37.4667 37.4505 38.08C37.9305 38.68 38.1705 39.6 38.1705 40.84V47H37.2905V40.96C37.2905 39.9333 37.1171 39.18 36.7705 38.7C36.4371 38.2067 35.8771 37.96 35.0905 37.96C34.5171 37.96 33.9971 38.1133 33.5305 38.42C33.0638 38.7133 32.5371 39.16 31.9505 39.76V47H31.0705ZM11.46 127.24C10.5267 127.24 9.89333 126.973 9.56 126.44C9.22667 125.893 9.06 125.193 9.06 124.34V118.16H7.56V117.48L9.08 117.4L9.2 114.62H9.96V117.4H12.74V118.16H9.96V124.42C9.96 125.033 10.0667 125.527 10.28 125.9C10.4933 126.273 10.9267 126.46 11.58 126.46C11.7667 126.46 11.9667 126.433 12.18 126.38C12.4067 126.313 12.6067 126.24 12.78 126.16L13.02 126.88C12.74 126.973 12.4533 127.053 12.16 127.12C11.88 127.2 11.6467 127.24 11.46 127.24ZM23.8305 127.24C22.8438 127.24 22.1105 126.94 21.6305 126.34C21.1638 125.727 20.9305 124.8 20.9305 123.56V117.4H21.8105V123.44C21.8105 124.453 21.9771 125.207 22.3105 125.7C22.6571 126.193 23.2171 126.44 23.9905 126.44C24.5638 126.44 25.0838 126.287 25.5505 125.98C26.0171 125.66 26.5305 125.16 27.0905 124.48V117.4H27.9705V127H27.2305L27.1305 125.4H27.0905C26.6238 125.947 26.1305 126.393 25.6105 126.74C25.0905 127.073 24.4971 127.24 23.8305 127.24ZM41.2964 127.24C40.4831 127.24 39.7364 127.04 39.0564 126.64C38.3897 126.24 37.8564 125.667 37.4564 124.92C37.0564 124.16 36.8564 123.26 36.8564 122.22C36.8564 121.167 37.0564 120.267 37.4564 119.52C37.8564 118.76 38.3764 118.18 39.0164 117.78C39.6564 117.367 40.3297 117.16 41.0364 117.16C42.1831 117.16 43.0831 117.547 43.7364 118.32C44.3897 119.093 44.7164 120.187 44.7164 121.6C44.7164 121.72 44.7097 121.84 44.6964 121.96C44.6964 122.08 44.6831 122.2 44.6564 122.32H37.7564C37.7697 123.12 37.9231 123.833 38.2164 124.46C38.5231 125.087 38.9431 125.58 39.4764 125.94C40.0231 126.3 40.6564 126.48 41.3764 126.48C41.8964 126.48 42.3631 126.4 42.7764 126.24C43.2031 126.08 43.5964 125.873 43.9564 125.62L44.3164 126.3C43.9431 126.527 43.5231 126.74 43.0564 126.94C42.5897 127.14 42.0031 127.24 41.2964 127.24ZM37.7564 121.6H43.8764C43.8764 120.373 43.6231 119.453 43.1164 118.84C42.6097 118.227 41.9231 117.92 41.0564 117.92C40.5097 117.92 39.9964 118.067 39.5164 118.36C39.0497 118.653 38.6564 119.073 38.3364 119.62C38.0164 120.167 37.8231 120.827 37.7564 121.6ZM10.32 207L7.48 197.4H8.44L10.16 203.62C10.28 204.06 10.3933 204.493 10.5 204.92C10.62 205.333 10.7267 205.753 10.82 206.18H10.9C11.0067 205.753 11.12 205.333 11.24 204.92C11.36 204.493 11.48 204.06 11.6 203.62L13.34 197.4H14.4L16.14 203.62C16.26 204.06 16.38 204.493 16.5 204.92C16.62 205.333 16.74 205.753 16.86 206.18H16.94C17.0467 205.753 17.16 205.333 17.28 204.92C17.4 204.493 17.5133 204.06 17.62 203.62L19.32 197.4H20.22L17.46 207H16.3L14.62 201.04C14.4867 200.573 14.3667 200.12 14.26 199.68C14.1533 199.227 14.0267 198.767 13.88 198.3H13.8C13.6933 198.767 13.5733 199.233 13.44 199.7C13.32 200.153 13.1867 200.613 13.04 201.08L11.38 207H10.32ZM28.5314 207V197.4H29.2914L29.3714 198.88H29.4314C29.9247 198.387 30.4314 197.98 30.9514 197.66C31.4847 197.327 32.0781 197.16 32.7314 197.16C33.7181 197.16 34.4447 197.467 34.9114 198.08C35.3914 198.68 35.6314 199.6 35.6314 200.84V207H34.7514V200.96C34.7514 199.933 34.5781 199.18 34.2314 198.7C33.8981 198.207 33.3381 197.96 32.5514 197.96C31.9781 197.96 31.4581 198.113 30.9914 198.42C30.5247 198.713 29.9981 199.16 29.4114 199.76V207H28.5314ZM48.3559 207.24C47.1426 207.24 46.1759 206.807 45.4559 205.94C44.7359 205.073 44.3759 203.833 44.3759 202.22C44.3759 201.18 44.5693 200.287 44.9559 199.54C45.3559 198.78 45.8759 198.193 46.5159 197.78C47.1693 197.367 47.8759 197.16 48.6359 197.16C49.2226 197.16 49.7293 197.267 50.1559 197.48C50.5959 197.68 51.0559 197.967 51.5359 198.34L51.4959 196.58V192.62H52.3759V207H51.6159L51.5359 205.76H51.4759C51.0893 206.147 50.6293 206.493 50.0959 206.8C49.5759 207.093 48.9959 207.24 48.3559 207.24ZM48.4759 206.46C49.0093 206.46 49.5159 206.327 49.9959 206.06C50.4893 205.78 50.9893 205.387 51.4959 204.88V199.18C50.9893 198.727 50.5093 198.407 50.0559 198.22C49.6159 198.033 49.1626 197.94 48.6959 197.94C48.0559 197.94 47.4826 198.133 46.9759 198.52C46.4693 198.893 46.0626 199.4 45.7559 200.04C45.4626 200.68 45.3159 201.407 45.3159 202.22C45.3159 203.487 45.5893 204.513 46.1359 205.3C46.6826 206.073 47.4626 206.46 48.4759 206.46ZM11.46 287.24C10.5267 287.24 9.89333 286.973 9.56 286.44C9.22667 285.893 9.06 285.193 9.06 284.34V278.16H7.56V277.48L9.08 277.4L9.2 274.62H9.96V277.4H12.74V278.16H9.96V284.42C9.96 285.033 10.0667 285.527 10.28 285.9C10.4933 286.273 10.9267 286.46 11.58 286.46C11.7667 286.46 11.9667 286.433 12.18 286.38C12.4067 286.313 12.6067 286.24 12.78 286.16L13.02 286.88C12.74 286.973 12.4533 287.053 12.16 287.12C11.88 287.2 11.6467 287.24 11.46 287.24ZM21.0705 287V272.62H21.9505V278.9C22.4571 278.393 22.9705 277.98 23.4905 277.66C24.0238 277.327 24.6171 277.16 25.2705 277.16C26.2571 277.16 26.9838 277.467 27.4505 278.08C27.9305 278.68 28.1705 279.6 28.1705 280.84V287H27.2905V280.96C27.2905 279.933 27.1171 279.18 26.7705 278.7C26.4371 278.207 25.8771 277.96 25.0905 277.96C24.5171 277.96 23.9971 278.113 23.5305 278.42C23.0638 278.713 22.5371 279.16 21.9505 279.76V287H21.0705ZM37.6369 287V277.4H38.3969L38.4769 279.18H38.5369C38.8569 278.593 39.2435 278.113 39.6969 277.74C40.1635 277.353 40.6835 277.16 41.2569 277.16C41.4435 277.16 41.6102 277.173 41.7569 277.2C41.9035 277.227 42.0569 277.28 42.2169 277.36L42.0169 278.16C41.8569 278.093 41.7169 278.053 41.5969 278.04C41.4769 278.013 41.3235 278 41.1369 278C40.7102 278 40.2569 278.187 39.7769 278.56C39.3102 278.92 38.8902 279.553 38.5169 280.46V287H37.6369ZM52.3045 287.24C51.5979 287.24 50.9379 287.113 50.3245 286.86C49.7245 286.593 49.2112 286.28 48.7845 285.92L49.3045 285.26C49.7179 285.593 50.1579 285.88 50.6245 286.12C51.0912 286.36 51.6712 286.48 52.3645 286.48C53.1112 286.48 53.6779 286.293 54.0645 285.92C54.4512 285.533 54.6445 285.087 54.6445 284.58C54.6445 284.18 54.5245 283.847 54.2845 283.58C54.0445 283.313 53.7445 283.093 53.3845 282.92C53.0379 282.747 52.6779 282.593 52.3045 282.46C51.8245 282.287 51.3512 282.093 50.8845 281.88C50.4312 281.667 50.0579 281.393 49.7645 281.06C49.4712 280.713 49.3245 280.267 49.3245 279.72C49.3245 279.013 49.5845 278.413 50.1045 277.92C50.6379 277.413 51.4045 277.16 52.4045 277.16C52.9245 277.16 53.4245 277.253 53.9045 277.44C54.3979 277.627 54.8179 277.867 55.1645 278.16L54.6845 278.78C54.3512 278.54 54.0045 278.34 53.6445 278.18C53.2845 278.007 52.8645 277.92 52.3845 277.92C51.6379 277.92 51.0845 278.1 50.7245 278.46C50.3779 278.82 50.2045 279.22 50.2045 279.66C50.2045 280.02 50.3045 280.32 50.5045 280.56C50.7179 280.8 50.9912 281 51.3245 281.16C51.6712 281.307 52.0312 281.453 52.4045 281.6C52.9112 281.787 53.4045 281.987 53.8845 282.2C54.3645 282.413 54.7579 282.7 55.0645 283.06C55.3845 283.42 55.5445 283.913 55.5445 284.54C55.5445 285.02 55.4179 285.467 55.1645 285.88C54.9112 286.28 54.5445 286.607 54.0645 286.86C53.5845 287.113 52.9979 287.24 52.3045 287.24ZM8.98 367V358.16H7.66V357.48L8.98 357.4V355.26C8.98 354.313 9.18667 353.6 9.6 353.12C10.0133 352.627 10.6 352.38 11.36 352.38C11.8267 352.38 12.2933 352.487 12.76 352.7L12.52 353.42C12.32 353.313 12.12 353.24 11.92 353.2C11.7333 353.16 11.5467 353.14 11.36 353.14C10.8533 353.14 10.4733 353.327 10.22 353.7C9.98 354.073 9.86 354.613 9.86 355.32V357.4H12.08V358.16H9.86V367H8.98ZM20.0939 367V357.4H20.8539L20.9339 359.18H20.9939C21.3139 358.593 21.7006 358.113 22.1539 357.74C22.6206 357.353 23.1406 357.16 23.7139 357.16C23.9006 357.16 24.0672 357.173 24.2139 357.2C24.3606 357.227 24.5139 357.28 24.6739 357.36L24.4739 358.16C24.3139 358.093 24.1739 358.053 24.0539 358.04C23.9339 358.013 23.7806 358 23.5939 358C23.1672 358 22.7139 358.187 22.2339 358.56C21.7672 358.92 21.3472 359.553 20.9739 360.46V367H20.0939ZM11.16 447.24C10.4533 447.24 9.79333 447.113 9.18 446.86C8.58 446.593 8.06667 446.28 7.64 445.92L8.16 445.26C8.57333 445.593 9.01333 445.88 9.48 446.12C9.94667 446.36 10.5267 446.48 11.22 446.48C11.9667 446.48 12.5333 446.293 12.92 445.92C13.3067 445.533 13.5 445.087 13.5 444.58C13.5 444.18 13.38 443.847 13.14 443.58C12.9 443.313 12.6 443.093 12.24 442.92C11.8933 442.747 11.5333 442.593 11.16 442.46C10.68 442.287 10.2067 442.093 9.74 441.88C9.28667 441.667 8.91333 441.393 8.62 441.06C8.32667 440.713 8.18 440.267 8.18 439.72C8.18 439.013 8.44 438.413 8.96 437.92C9.49333 437.413 10.26 437.16 11.26 437.16C11.78 437.16 12.28 437.253 12.76 437.44C13.2533 437.627 13.6733 437.867 14.02 438.16L13.54 438.78C13.2067 438.54 12.86 438.34 12.5 438.18C12.14 438.007 11.72 437.92 11.24 437.92C10.4933 437.92 9.94 438.1 9.58 438.46C9.23333 438.82 9.06 439.22 9.06 439.66C9.06 440.02 9.16 440.32 9.36 440.56C9.57333 440.8 9.84667 441 10.18 441.16C10.5267 441.307 10.8867 441.453 11.26 441.6C11.7667 441.787 12.26 441.987 12.74 442.2C13.22 442.413 13.6133 442.7 13.92 443.06C14.24 443.42 14.4 443.913 14.4 444.54C14.4 445.02 14.2733 445.467 14.02 445.88C13.7667 446.28 13.4 446.607 12.92 446.86C12.44 447.113 11.8533 447.24 11.16 447.24ZM25.7055 447.24C24.7188 447.24 23.9855 446.94 23.5055 446.34C23.0388 445.727 22.8055 444.8 22.8055 443.56V437.4H23.6855V443.44C23.6855 444.453 23.8521 445.207 24.1855 445.7C24.5321 446.193 25.0921 446.44 25.8655 446.44C26.4388 446.44 26.9588 446.287 27.4255 445.98C27.8921 445.66 28.4055 445.16 28.9655 444.48V437.4H29.8455V447H29.1055L29.0055 445.4H28.9655C28.4988 445.947 28.0055 446.393 27.4855 446.74C26.9655 447.073 26.3721 447.24 25.7055 447.24ZM39.5314 447V437.4H40.2914L40.3714 438.88H40.4314C40.9247 438.387 41.4314 437.98 41.9514 437.66C42.4847 437.327 43.0781 437.16 43.7314 437.16C44.7181 437.16 45.4447 437.467 45.9114 438.08C46.3914 438.68 46.6314 439.6 46.6314 440.84V447H45.7514V440.96C45.7514 439.933 45.5781 439.18 45.2314 438.7C44.8981 438.207 44.3381 437.96 43.5514 437.96C42.9781 437.96 42.4581 438.113 41.9914 438.42C41.5247 438.713 40.9981 439.16 40.4114 439.76V447H39.5314ZM11.16 527.24C10.4533 527.24 9.79333 527.113 9.18 526.86C8.58 526.593 8.06667 526.28 7.64 525.92L8.16 525.26C8.57333 525.593 9.01333 525.88 9.48 526.12C9.94667 526.36 10.5267 526.48 11.22 526.48C11.9667 526.48 12.5333 526.293 12.92 525.92C13.3067 525.533 13.5 525.087 13.5 524.58C13.5 524.18 13.38 523.847 13.14 523.58C12.9 523.313 12.6 523.093 12.24 522.92C11.8933 522.747 11.5333 522.593 11.16 522.46C10.68 522.287 10.2067 522.093 9.74 521.88C9.28667 521.667 8.91333 521.393 8.62 521.06C8.32667 520.713 8.18 520.267 8.18 519.72C8.18 519.013 8.44 518.413 8.96 517.92C9.49333 517.413 10.26 517.16 11.26 517.16C11.78 517.16 12.28 517.253 12.76 517.44C13.2533 517.627 13.6733 517.867 14.02 518.16L13.54 518.78C13.2067 518.54 12.86 518.34 12.5 518.18C12.14 518.007 11.72 517.92 11.24 517.92C10.4933 517.92 9.94 518.1 9.58 518.46C9.23333 518.82 9.06 519.22 9.06 519.66C9.06 520.02 9.16 520.32 9.36 520.56C9.57333 520.8 9.84667 521 10.18 521.16C10.5267 521.307 10.8867 521.453 11.26 521.6C11.7667 521.787 12.26 521.987 12.74 522.2C13.22 522.413 13.6133 522.7 13.92 523.06C14.24 523.42 14.4 523.913 14.4 524.54C14.4 525.02 14.2733 525.467 14.02 525.88C13.7667 526.28 13.4 526.607 12.92 526.86C12.44 527.113 11.8533 527.24 11.16 527.24ZM25.1748 527.24C24.2415 527.24 23.6082 526.973 23.2748 526.44C22.9415 525.893 22.7748 525.193 22.7748 524.34V518.16H21.2748V517.48L22.7948 517.4L22.9148 514.62H23.6748V517.4H26.4548V518.16H23.6748V524.42C23.6748 525.033 23.7815 525.527 23.9948 525.9C24.2082 526.273 24.6415 526.46 25.2948 526.46C25.4815 526.46 25.6815 526.433 25.8948 526.38C26.1215 526.313 26.3215 526.24 26.4948 526.16L26.7348 526.88C26.4548 526.973 26.1682 527.053 25.8748 527.12C25.5948 527.2 25.3615 527.24 25.1748 527.24ZM34.7853 527V517.4H35.5453L35.6253 519.18H35.6853C36.0053 518.593 36.392 518.113 36.8453 517.74C37.312 517.353 37.832 517.16 38.4053 517.16C38.592 517.16 38.7586 517.173 38.9053 517.2C39.052 517.227 39.2053 517.28 39.3653 517.36L39.1653 518.16C39.0053 518.093 38.8653 518.053 38.7453 518.04C38.6253 518.013 38.472 518 38.2853 518C37.8586 518 37.4053 518.187 36.9253 518.56C36.4586 518.92 36.0386 519.553 35.6653 520.46V527H34.7853ZM50.1177 527.24C48.9043 527.24 47.9377 526.807 47.2177 525.94C46.4977 525.073 46.1377 523.833 46.1377 522.22C46.1377 521.18 46.331 520.287 46.7177 519.54C47.1177 518.78 47.6377 518.193 48.2777 517.78C48.931 517.367 49.6377 517.16 50.3977 517.16C50.9843 517.16 51.491 517.267 51.9177 517.48C52.3577 517.68 52.8177 517.967 53.2977 518.34L53.2577 516.58V512.62H54.1377V527H53.3777L53.2977 525.76H53.2377C52.851 526.147 52.391 526.493 51.8577 526.8C51.3377 527.093 50.7577 527.24 50.1177 527.24ZM50.2377 526.46C50.771 526.46 51.2777 526.327 51.7577 526.06C52.251 525.78 52.751 525.387 53.2577 524.88V519.18C52.751 518.727 52.271 518.407 51.8177 518.22C51.3777 518.033 50.9243 517.94 50.4577 517.94C49.8177 517.94 49.2443 518.133 48.7377 518.52C48.231 518.893 47.8243 519.4 47.5177 520.04C47.2243 520.68 47.0777 521.407 47.0777 522.22C47.0777 523.487 47.351 524.513 47.8977 525.3C48.4443 526.073 49.2243 526.46 50.2377 526.46Z" fill="white"/>
<path d="M449.64 352.24C448.96 352.24 448.367 352.153 447.86 351.98C447.353 351.793 446.913 351.56 446.54 351.28C446.18 351 445.86 350.72 445.58 350.44L446.1 349.82C446.487 350.233 446.953 350.613 447.5 350.96C448.047 351.293 448.76 351.46 449.64 351.46C450.507 351.46 451.22 351.207 451.78 350.7C452.34 350.18 452.62 349.493 452.62 348.64C452.62 347.76 452.273 347.047 451.58 346.5C450.9 345.953 449.76 345.68 448.16 345.68V344.9C449.147 344.9 449.933 344.78 450.52 344.54C451.107 344.287 451.527 343.947 451.78 343.52C452.033 343.093 452.16 342.627 452.16 342.12C452.16 341.4 451.927 340.827 451.46 340.4C450.993 339.96 450.367 339.74 449.58 339.74C448.993 339.74 448.447 339.88 447.94 340.16C447.447 340.427 447.013 340.753 446.64 341.14L446.12 340.54C446.56 340.113 447.06 339.747 447.62 339.44C448.193 339.133 448.847 338.98 449.58 338.98C450.247 338.98 450.84 339.1 451.36 339.34C451.893 339.58 452.313 339.933 452.62 340.4C452.927 340.853 453.08 341.407 453.08 342.06C453.08 342.9 452.847 343.58 452.38 344.1C451.927 344.607 451.347 344.98 450.64 345.22V345.3C451.173 345.407 451.653 345.613 452.08 345.92C452.52 346.213 452.873 346.587 453.14 347.04C453.407 347.493 453.54 348.02 453.54 348.62C453.54 349.353 453.367 349.993 453.02 350.54C452.673 351.087 452.207 351.507 451.62 351.8C451.033 352.093 450.373 352.24 449.64 352.24ZM465.63 345.04C465.177 345.04 464.677 345.187 464.13 345.48C463.584 345.76 463.05 346.253 462.53 346.96C462.61 348.307 462.917 349.4 463.45 350.24C463.984 351.067 464.77 351.48 465.81 351.48C466.304 351.48 466.744 351.34 467.13 351.06C467.517 350.767 467.824 350.38 468.05 349.9C468.277 349.407 468.39 348.853 468.39 348.24C468.39 347.32 468.17 346.56 467.73 345.96C467.304 345.347 466.604 345.04 465.63 345.04ZM465.79 352.24C464.51 352.24 463.49 351.72 462.73 350.68C461.984 349.627 461.61 348.133 461.61 346.2C461.61 344.853 461.737 343.72 461.99 342.8C462.244 341.88 462.59 341.14 463.03 340.58C463.47 340.02 463.97 339.613 464.53 339.36C465.104 339.107 465.697 338.98 466.31 338.98C466.91 338.98 467.424 339.093 467.85 339.32C468.29 339.547 468.677 339.847 469.01 340.22L468.47 340.82C468.19 340.473 467.864 340.213 467.49 340.04C467.117 339.853 466.724 339.76 466.31 339.76C465.63 339.76 464.997 339.96 464.41 340.36C463.837 340.76 463.377 341.42 463.03 342.34C462.684 343.26 462.51 344.5 462.51 346.06C462.95 345.513 463.45 345.08 464.01 344.76C464.57 344.44 465.144 344.28 465.73 344.28C466.85 344.28 467.724 344.62 468.35 345.3C468.977 345.967 469.29 346.947 469.29 348.24C469.29 349.013 469.13 349.7 468.81 350.3C468.49 350.9 468.064 351.373 467.53 351.72C467.01 352.067 466.43 352.24 465.79 352.24ZM480.921 352.24C479.707 352.24 478.767 351.66 478.101 350.5C477.434 349.34 477.101 347.693 477.101 345.56C477.101 343.44 477.434 341.813 478.101 340.68C478.767 339.547 479.707 338.98 480.921 338.98C482.147 338.98 483.087 339.547 483.741 340.68C484.407 341.813 484.741 343.44 484.741 345.56C484.741 347.693 484.407 349.34 483.741 350.5C483.087 351.66 482.147 352.24 480.921 352.24ZM480.921 351.48C481.814 351.48 482.521 350.98 483.041 349.98C483.574 348.98 483.841 347.507 483.841 345.56C483.841 343.613 483.574 342.16 483.041 341.2C482.521 340.227 481.814 339.74 480.921 339.74C480.041 339.74 479.334 340.227 478.801 341.2C478.267 342.16 478.001 343.613 478.001 345.56C478.001 347.507 478.267 348.98 478.801 349.98C479.334 350.98 480.041 351.48 480.921 351.48Z" fill="white"/>
<g filter="url(#filter0_f_343_27)">
<circle cx="23.5" cy="81.5" r="16" transform="rotate(90 23.5 81.5)" stroke="white"/>
</g>
<g filter="url(#filter1_f_343_27)">
<circle cx="23.5" cy="483.5" r="16" transform="rotate(90 23.5 483.5)" stroke="white"/>
</g>
<g filter="url(#filter2_f_343_27)">
<circle cx="23.5" cy="568.5" r="16" transform="rotate(90 23.5 568.5)" stroke="white"/>
</g>
<g filter="url(#filter3_f_343_27)">
<circle cx="23.5" cy="160.5" r="16" transform="rotate(90 23.5 160.5)" stroke="white"/>
</g>
<g filter="url(#filter4_f_343_27)">
<circle cx="22.5" cy="239.5" r="16" transform="rotate(90 22.5 239.5)" stroke="white"/>
</g>
<g filter="url(#filter5_f_343_27)">
<circle cx="23.5" cy="318.5" r="16" transform="rotate(90 23.5 318.5)" stroke="white"/>
</g>
<g filter="url(#filter6_f_343_27)">
<circle cx="22.5" cy="403.5" r="16" transform="rotate(90 22.5 403.5)" stroke="white"/>
</g>
<defs>
<filter id="filter0_f_343_27" x="6" y="64" width="35" height="35" filterUnits="userSpaceOnUse" color-interpolation-filters="sRGB">
<feFlood flood-opacity="0" result="BackgroundImageFix"/>
<feBlend mode="normal" in="SourceGraphic" in2="BackgroundImageFix" result="shape"/>
<feGaussianBlur stdDeviation="0.5" result="effect1_foregroundBlur_343_27"/>
</filter>
<filter id="filter1_f_343_27" x="1" y="461" width="45" height="45" filterUnits="userSpaceOnUse" color-interpolation-filters="sRGB">
<feFlood flood-opacity="0" result="BackgroundImageFix"/>
<feBlend mode="normal" in="SourceGraphic" in2="BackgroundImageFix" result="shape"/>
<feGaussianBlur stdDeviation="3" result="effect1_foregroundBlur_343_27"/>
</filter>
<filter id="filter2_f_343_27" x="0" y="545" width="47" height="47" filterUnits="userSpaceOnUse" color-interpolation-filters="sRGB">
<feFlood flood-opacity="0" result="BackgroundImageFix"/>
<feBlend mode="normal" in="SourceGraphic" in2="BackgroundImageFix" result="shape"/>
<feGaussianBlur stdDeviation="3.5" result="effect1_foregroundBlur_343_27"/>
</filter>
<filter id="filter3_f_343_27" x="5" y="142" width="37" height="37" filterUnits="userSpaceOnUse" color-interpolation-filters="sRGB">
<feFlood flood-opacity="0" result="BackgroundImageFix"/>
<feBlend mode="normal" in="SourceGraphic" in2="BackgroundImageFix" result="shape"/>
<feGaussianBlur stdDeviation="1" result="effect1_foregroundBlur_343_27"/>
</filter>
<filter id="filter4_f_343_27" x="3" y="220" width="39" height="39" filterUnits="userSpaceOnUse" color-interpolation-filters="sRGB">
<feFlood flood-opacity="0" result="BackgroundImageFix"/>
<feBlend mode="normal" in="SourceGraphic" in2="BackgroundImageFix" result="shape"/>
<feGaussianBlur stdDeviation="1.5" result="effect1_foregroundBlur_343_27"/>
</filter>
<filter id="filter5_f_343_27" x="3" y="298" width="41" height="41" filterUnits="userSpaceOnUse" color-interpolation-filters="sRGB">
<feFlood flood-opacity="0" result="BackgroundImageFix"/>
<feBlend mode="normal" in="SourceGraphic" in2="BackgroundImageFix" result="shape"/>
<feGaussianBlur stdDeviation="2" result="effect1_foregroundBlur_343_27"/>
</filter>
<filter id="filter6_f_343_27" x="1" y="382" width="43" height="43" filterUnits="userSpaceOnUse" color-interpolation-filters="sRGB">
<feFlood flood-opacity="0" result="BackgroundImageFix"/>
<feBlend mode="normal" in="SourceGraphic" in2="BackgroundImageFix" result="shape"/>
<feGaussianBlur stdDeviation="2.5" result="effect1_foregroundBlur_343_27"/>
</filter>
</defs>
</svg>
