<svg width="513" height="401" viewBox="0 0 513 401" fill="none" xmlns="http://www.w3.org/2000/svg">
<line y1="-0.5" x2="49.93" y2="-0.5" transform="matrix(-1 8.74228e-08 8.74228e-08 1 287.192 360.325)" stroke="white" stroke-opacity="0.94"/>
<line x1="48" y1="359.498" x2="97.9299" y2="359.498" stroke="white" stroke-opacity="0.94"/>
<line x1="105.973" y1="359.825" x2="155.903" y2="359.825" stroke="white" stroke-opacity="0.94"/>
<line y1="-0.5" x2="49.93" y2="-0.5" transform="matrix(-1 8.74228e-08 8.74228e-08 1 232.458 360.325)" stroke="white" stroke-opacity="0.94"/>
<line y1="-0.5" x2="24.7948" y2="-0.5" transform="matrix(-0.325241 0.945631 0.337663 0.941267 237.777 359.836)" stroke="white" stroke-opacity="0.94"/>
<line y1="-0.5" x2="24.7948" y2="-0.5" transform="matrix(0.325241 0.945631 -0.337663 0.941267 155.388 359.836)" stroke="white" stroke-opacity="0.94"/>
<line y1="-0.5" x2="24.7948" y2="-0.5" transform="matrix(-0.325241 0.945631 0.337663 0.941267 183.042 359.836)" stroke="white" stroke-opacity="0.94"/>
<line y1="-0.5" x2="11.5266" y2="-0.5" transform="matrix(-1 8.74228e-08 8.74228e-08 1 229.712 383.283)" stroke="white" stroke-opacity="0.94"/>
<path d="M207.407 383.305L195.881 383.305M146.879 383.305L135.353 383.305" stroke="white" stroke-opacity="0.94"/>
<line y1="-0.5" x2="41.85" y2="-0.5" transform="matrix(1 -1.73508e-07 -1.76204e-07 -1 0 358.998)" stroke="white" stroke-opacity="0.94"/>
<line x1="163.452" y1="382.783" x2="174.979" y2="382.783" stroke="white" stroke-opacity="0.94"/>
<line y1="-0.5" x2="199" y2="-0.5" transform="matrix(-1 2.19372e-08 3.48392e-07 1 513 318.998)" stroke="white" stroke-opacity="0.94"/>
<line y1="-0.5" x2="39.7814" y2="-0.5" transform="matrix(-0.807848 0.58939 0.819425 0.573186 316.072 318.551)" stroke="white" stroke-opacity="0.94"/>
<line x1="238" y1="341.498" x2="284" y2="341.498" stroke="white" stroke-opacity="0.94"/>
<line y1="-0.5" x2="39.7813" y2="-0.5" transform="matrix(-0.999802 0.0199118 0.0199118 0.999802 513 358.998)" stroke="white" stroke-opacity="0.94"/>
<line x1="287.162" y1="359.824" x2="337.092" y2="359.824" stroke="white" stroke-opacity="0.94"/>
<line x1="341.896" y1="359.336" x2="391.826" y2="359.336" stroke="white" stroke-opacity="0.94"/>
<line y1="-0.5" x2="49.93" y2="-0.5" transform="matrix(-1 8.74228e-08 8.74228e-08 1 468.381 359.836)" stroke="white" stroke-opacity="0.94"/>
<line y1="-0.5" x2="24.7948" y2="-0.5" transform="matrix(0.325241 0.945631 -0.337663 0.941267 336.577 359.836)" stroke="white" stroke-opacity="0.94"/>
<line y1="-0.5" x2="24.7948" y2="-0.5" transform="matrix(0.325241 0.945631 -0.337663 0.941267 391.311 359.348)" stroke="white" stroke-opacity="0.94"/>
<line y1="-0.5" x2="24.7948" y2="-0.5" transform="matrix(-0.325241 0.945631 0.337663 0.941267 418.966 359.348)" stroke="white" stroke-opacity="0.94"/>
<line y1="-0.5" x2="11.5266" y2="-0.5" transform="matrix(-1 8.74228e-08 8.74228e-08 1 378.301 383.283)" stroke="white" stroke-opacity="0.94"/>
<line x1="344.641" y1="382.783" x2="356.168" y2="382.783" stroke="white" stroke-opacity="0.94"/>
<line x1="399.375" y1="382.294" x2="410.902" y2="382.294" stroke="white" stroke-opacity="0.94"/>
<line y1="-0.5" x2="511.185" y2="-0.5" transform="matrix(-1 1.73508e-07 1.76204e-07 1 513.185 401)" stroke="white"/>
<line y1="-0.5" x2="190" y2="-0.5" transform="matrix(-1 2.39394e-08 3.19254e-07 1 513 286.998)" stroke="white" stroke-opacity="0.94"/>
<line y1="-0.5" x2="38.6573" y2="-0.5" transform="matrix(-0.795062 0.606528 0.807143 0.590356 324.666 286.551)" stroke="white" stroke-opacity="0.94"/>
<line x1="250" y1="309.498" x2="293" y2="309.498" stroke="white" stroke-opacity="0.94"/>
<line y1="-0.5" x2="49.93" y2="-0.5" transform="matrix(-1 8.74228e-08 8.74228e-08 1 287.192 2.32245)" stroke="white" stroke-opacity="0.94"/>
<line x1="50.9995" y1="1.49817" x2="100.929" y2="1.49816" stroke="white" stroke-opacity="0.94"/>
<line x1="105.973" y1="1.82245" x2="155.903" y2="1.82244" stroke="white" stroke-opacity="0.94"/>
<line y1="-0.5" x2="49.93" y2="-0.5" transform="matrix(-1 8.74228e-08 8.74228e-08 1 232.458 2.32245)" stroke="white" stroke-opacity="0.94"/>
<line y1="-0.5" x2="24.7948" y2="-0.5" transform="matrix(-0.325241 0.945631 0.337663 0.941267 237.777 1.83392)" stroke="white" stroke-opacity="0.94"/>
<line y1="-0.5" x2="24.7948" y2="-0.5" transform="matrix(0.325241 0.945631 -0.337663 0.941267 155.388 1.83392)" stroke="white" stroke-opacity="0.94"/>
<line y1="-0.5" x2="24.7948" y2="-0.5" transform="matrix(-0.325241 0.945631 0.337663 0.941267 183.042 1.83392)" stroke="white" stroke-opacity="0.94"/>
<line y1="-0.5" x2="11.5266" y2="-0.5" transform="matrix(-1 8.74228e-08 8.74228e-08 1 229.712 25.2807)" stroke="white" stroke-opacity="0.94"/>
<path d="M207.407 25.3035L195.88 25.3035M146.879 25.3035L135.352 25.3035" stroke="white" stroke-opacity="0.94"/>
<line y1="-0.5" x2="41.85" y2="-0.5" transform="matrix(1 -1.73508e-07 -1.76204e-07 -1 1.99951 0.99823)" stroke="white" stroke-opacity="0.94"/>
<line x1="163.452" y1="24.7807" x2="174.978" y2="24.7807" stroke="white" stroke-opacity="0.94"/>
<line x1="513" y1="1.3941" x2="473.226" y2="1.3941" stroke="white" stroke-opacity="0.94"/>
<line x1="287.162" y1="1.82233" x2="337.092" y2="1.82232" stroke="white" stroke-opacity="0.94"/>
<line x1="341.896" y1="1.33392" x2="391.825" y2="1.33392" stroke="white" stroke-opacity="0.94"/>
<line y1="-0.5" x2="49.93" y2="-0.5" transform="matrix(-1 8.74228e-08 8.74228e-08 1 468.381 1.83392)" stroke="white" stroke-opacity="0.94"/>
<line y1="-0.5" x2="24.7948" y2="-0.5" transform="matrix(0.325241 0.945631 -0.337663 0.941267 336.577 1.83392)" stroke="white" stroke-opacity="0.94"/>
<line y1="-0.5" x2="24.7948" y2="-0.5" transform="matrix(0.325241 0.945631 -0.337663 0.941267 391.311 1.34552)" stroke="white" stroke-opacity="0.94"/>
<line y1="-0.5" x2="24.7948" y2="-0.5" transform="matrix(-0.325241 0.945631 0.337663 0.941267 418.966 1.34552)" stroke="white" stroke-opacity="0.94"/>
<line y1="-0.5" x2="11.5266" y2="-0.5" transform="matrix(-1 8.74228e-08 8.74228e-08 1 378.301 25.2807)" stroke="white" stroke-opacity="0.94"/>
<line x1="344.641" y1="24.7807" x2="356.167" y2="24.7807" stroke="white" stroke-opacity="0.94"/>
<line x1="399.375" y1="24.2922" x2="410.902" y2="24.2922" stroke="white" stroke-opacity="0.94"/>
<line x1="513" y1="43.5" x2="1.99853" y2="43.4981" stroke="white"/>
<rect x="0.5" y="371.5" width="113" height="18" stroke="white"/>
<rect x="247.5" y="371.5" width="82" height="18" stroke="white"/>
<rect x="246.5" y="12.5" width="82" height="18" stroke="white"/>
<rect x="2.5" y="13.5" width="125" height="18" stroke="white"/>
<rect x="421.5" y="371.5" width="82" height="18" stroke="white"/>
</svg>
