<svg width="245" height="223" viewBox="0 0 245 223" fill="none" xmlns="http://www.w3.org/2000/svg">
<path d="M15.34 29.24C14.58 29.24 13.8733 29.0467 13.22 28.66C12.5667 28.26 12.04 27.6867 11.64 26.94C11.24 26.18 11.04 25.2733 11.04 24.22C11.04 23.14 11.24 22.2267 11.64 21.48C12.04 20.72 12.5667 20.1467 13.22 19.76C13.8733 19.36 14.58 19.16 15.34 19.16C16.1133 19.16 16.8267 19.36 17.48 19.76C18.1333 20.1467 18.66 20.72 19.06 21.48C19.46 22.2267 19.66 23.14 19.66 24.22C19.66 25.2733 19.46 26.18 19.06 26.94C18.66 27.6867 18.1333 28.26 17.48 28.66C16.8267 29.0467 16.1133 29.24 15.34 29.24ZM15.34 28.46C15.9933 28.46 16.5733 28.28 17.08 27.92C17.5867 27.56 17.9867 27.0667 18.28 26.44C18.5867 25.8 18.74 25.06 18.74 24.22C18.74 23.3667 18.5867 22.62 18.28 21.98C17.9867 21.34 17.5867 20.84 17.08 20.48C16.5733 20.12 15.9933 19.94 15.34 19.94C14.7 19.94 14.12 20.12 13.6 20.48C13.0933 20.84 12.6933 21.34 12.4 21.98C12.1067 22.62 11.96 23.3667 11.96 24.22C11.96 25.06 12.1067 25.8 12.4 26.44C12.6933 27.0667 13.0933 27.56 13.6 27.92C14.12 28.28 14.7 28.46 15.34 28.46ZM32.3031 29.24C31.8498 29.24 31.3698 29.1333 30.8631 28.92C30.3565 28.6933 29.8765 28.3933 29.4231 28.02H29.3831L29.2831 29H28.5431V14.62H29.4231V18.78L29.3831 20.66C29.8765 20.2467 30.4031 19.8933 30.9631 19.6C31.5365 19.3067 32.1165 19.16 32.7031 19.16C33.9831 19.16 34.9431 19.6067 35.5831 20.5C36.2231 21.38 36.5431 22.5667 36.5431 24.06C36.5431 25.14 36.3431 26.0667 35.9431 26.84C35.5565 27.6133 35.0431 28.2067 34.4031 28.62C33.7631 29.0333 33.0631 29.24 32.3031 29.24ZM32.2631 28.46C32.9165 28.46 33.4898 28.2733 33.9831 27.9C34.4898 27.5267 34.8831 27.0133 35.1631 26.36C35.4565 25.6933 35.6031 24.9267 35.6031 24.06C35.6031 23.2733 35.5031 22.5733 35.3031 21.96C35.1031 21.3333 34.7765 20.84 34.3231 20.48C33.8831 20.12 33.2965 19.94 32.5631 19.94C32.0831 19.94 31.5831 20.08 31.0631 20.36C30.5431 20.6267 29.9965 21.0133 29.4231 21.52V27.22C29.9565 27.6733 30.4698 27.9933 30.9631 28.18C31.4565 28.3667 31.8898 28.46 32.2631 28.46ZM44.123 33.58C43.8963 33.58 43.6696 33.5533 43.443 33.5C43.2163 33.4467 43.0296 33.3933 42.883 33.34L43.103 32.62C43.223 32.66 43.3696 32.7 43.543 32.74C43.7296 32.7933 43.9163 32.82 44.103 32.82C44.6496 32.82 44.9963 32.62 45.143 32.22C45.303 31.8333 45.383 31.3333 45.383 30.72V19.4H46.283V30.78C46.283 32.6467 45.563 33.58 44.123 33.58ZM45.823 17.08C45.6096 17.08 45.4296 17.0067 45.283 16.86C45.1363 16.7133 45.063 16.5133 45.063 16.26C45.063 16.0333 45.1363 15.8467 45.283 15.7C45.4296 15.5533 45.6096 15.48 45.823 15.48C46.0496 15.48 46.2296 15.5533 46.363 15.7C46.5096 15.8467 46.583 16.0333 46.583 16.26C46.583 16.5133 46.5096 16.7133 46.363 16.86C46.2296 17.0067 46.0496 17.08 45.823 17.08ZM55.8533 29.24C55.7466 29.24 55.6466 29.2267 55.5533 29.2L55.4533 28.46C55.6399 28.46 55.7866 28.4 55.8933 28.28C56.0133 28.16 56.0733 27.9533 56.0733 27.66V16.22H57.0933C57.7466 17.5933 58.3866 18.9667 59.0133 20.34C59.6533 21.7133 60.2799 23.0933 60.8933 24.48L62.3533 27.76H62.4333C62.3933 26.8933 62.3599 26.1267 62.3333 25.46C62.3199 24.7933 62.3133 24.1467 62.3133 23.52C62.3133 22.8933 62.3133 22.2067 62.3133 21.46V17.56C62.3133 16.5067 62.6666 15.98 63.3733 15.98C63.4933 15.98 63.5999 15.9933 63.6933 16.02L63.7933 16.76C63.5933 16.76 63.4399 16.82 63.3333 16.94C63.2266 17.0467 63.1733 17.2533 63.1733 17.56V29H62.1333C61.4933 27.6133 60.8599 26.2333 60.2333 24.86C59.6066 23.4867 58.9799 22.1 58.3533 20.7L56.8733 17.44H56.7933C56.8466 18.3067 56.8799 19.08 56.8933 19.76C56.9066 20.4267 56.9133 21.0733 56.9133 21.7C56.9133 22.3267 56.9133 23.0133 56.9133 23.76V27.66C56.9133 28.7133 56.5599 29.24 55.8533 29.24ZM67.9333 23.4C67.3999 23.4 66.9066 23.2733 66.4533 23.02C66.0133 22.7667 65.6599 22.4067 65.3933 21.94C65.1266 21.46 64.9933 20.8933 64.9933 20.24C64.9933 19.2267 65.2799 18.4533 65.8533 17.92C66.4266 17.3733 67.1199 17.1 67.9333 17.1C68.7466 17.1 69.4399 17.3733 70.0133 17.92C70.5866 18.4533 70.8733 19.2267 70.8733 20.24C70.8733 20.8933 70.7399 21.46 70.4733 21.94C70.2066 22.4067 69.8533 22.7667 69.4133 23.02C68.9733 23.2733 68.4799 23.4 67.9333 23.4ZM67.9333 22.72C68.5733 22.72 69.0866 22.4933 69.4733 22.04C69.8599 21.5733 70.0533 20.9733 70.0533 20.24C70.0533 19.4933 69.8599 18.9 69.4733 18.46C69.0866 18.0067 68.5733 17.78 67.9333 17.78C67.2933 17.78 66.7799 18.0067 66.3933 18.46C66.0066 18.9 65.8133 19.4933 65.8133 20.24C65.8133 20.9733 66.0066 21.5733 66.3933 22.04C66.7799 22.4933 67.2933 22.72 67.9333 22.72ZM65.4733 25.76V25.08H70.3933V25.76H65.4733ZM91.8698 29.24C90.6565 29.24 89.7165 28.66 89.0498 27.5C88.3832 26.34 88.0498 24.6933 88.0498 22.56C88.0498 20.44 88.3832 18.8133 89.0498 17.68C89.7165 16.5467 90.6565 15.98 91.8698 15.98C93.0965 15.98 94.0365 16.5467 94.6898 17.68C95.3565 18.8133 95.6898 20.44 95.6898 22.56C95.6898 24.6933 95.3565 26.34 94.6898 27.5C94.0365 28.66 93.0965 29.24 91.8698 29.24ZM91.8698 28.48C92.7632 28.48 93.4698 27.98 93.9898 26.98C94.5232 25.98 94.7898 24.5067 94.7898 22.56C94.7898 20.6133 94.5232 19.16 93.9898 18.2C93.4698 17.2267 92.7632 16.74 91.8698 16.74C90.9898 16.74 90.2832 17.2267 89.7498 18.2C89.2165 19.16 88.9498 20.6133 88.9498 22.56C88.9498 24.5067 89.2165 25.98 89.7498 26.98C90.2832 27.98 90.9898 28.48 91.8698 28.48ZM107.44 29.24C106.227 29.24 105.287 28.66 104.62 27.5C103.953 26.34 103.62 24.6933 103.62 22.56C103.62 20.44 103.953 18.8133 104.62 17.68C105.287 16.5467 106.227 15.98 107.44 15.98C108.667 15.98 109.607 16.5467 110.26 17.68C110.927 18.8133 111.26 20.44 111.26 22.56C111.26 24.6933 110.927 26.34 110.26 27.5C109.607 28.66 108.667 29.24 107.44 29.24ZM107.44 28.48C108.333 28.48 109.04 27.98 109.56 26.98C110.093 25.98 110.36 24.5067 110.36 22.56C110.36 20.6133 110.093 19.16 109.56 18.2C109.04 17.2267 108.333 16.74 107.44 16.74C106.56 16.74 105.853 17.2267 105.32 18.2C104.787 19.16 104.52 20.6133 104.52 22.56C104.52 24.5067 104.787 25.98 105.32 26.98C105.853 27.98 106.56 28.48 107.44 28.48ZM123.01 29.24C121.797 29.24 120.857 28.66 120.19 27.5C119.524 26.34 119.19 24.6933 119.19 22.56C119.19 20.44 119.524 18.8133 120.19 17.68C120.857 16.5467 121.797 15.98 123.01 15.98C124.237 15.98 125.177 16.5467 125.83 17.68C126.497 18.8133 126.83 20.44 126.83 22.56C126.83 24.6933 126.497 26.34 125.83 27.5C125.177 28.66 124.237 29.24 123.01 29.24ZM123.01 28.48C123.904 28.48 124.61 27.98 125.13 26.98C125.664 25.98 125.93 24.5067 125.93 22.56C125.93 20.6133 125.664 19.16 125.13 18.2C124.61 17.2267 123.904 16.74 123.01 16.74C122.13 16.74 121.424 17.2267 120.89 18.2C120.357 19.16 120.09 20.6133 120.09 22.56C120.09 24.5067 120.357 25.98 120.89 26.98C121.424 27.98 122.13 28.48 123.01 28.48ZM138.581 29.24C137.367 29.24 136.427 28.66 135.761 27.5C135.094 26.34 134.761 24.6933 134.761 22.56C134.761 20.44 135.094 18.8133 135.761 17.68C136.427 16.5467 137.367 15.98 138.581 15.98C139.807 15.98 140.747 16.5467 141.401 17.68C142.067 18.8133 142.401 20.44 142.401 22.56C142.401 24.6933 142.067 26.34 141.401 27.5C140.747 28.66 139.807 29.24 138.581 29.24ZM138.581 28.48C139.474 28.48 140.181 27.98 140.701 26.98C141.234 25.98 141.501 24.5067 141.501 22.56C141.501 20.6133 141.234 19.16 140.701 18.2C140.181 17.2267 139.474 16.74 138.581 16.74C137.701 16.74 136.994 17.2267 136.461 18.2C135.927 19.16 135.661 20.6133 135.661 22.56C135.661 24.5067 135.927 25.98 136.461 26.98C136.994 27.98 137.701 28.48 138.581 28.48ZM154.151 29.24C152.938 29.24 151.998 28.66 151.331 27.5C150.664 26.34 150.331 24.6933 150.331 22.56C150.331 20.44 150.664 18.8133 151.331 17.68C151.998 16.5467 152.938 15.98 154.151 15.98C155.378 15.98 156.318 16.5467 156.971 17.68C157.638 18.8133 157.971 20.44 157.971 22.56C157.971 24.6933 157.638 26.34 156.971 27.5C156.318 28.66 155.378 29.24 154.151 29.24ZM154.151 28.48C155.044 28.48 155.751 27.98 156.271 26.98C156.804 25.98 157.071 24.5067 157.071 22.56C157.071 20.6133 156.804 19.16 156.271 18.2C155.751 17.2267 155.044 16.74 154.151 16.74C153.271 16.74 152.564 17.2267 152.031 18.2C151.498 19.16 151.231 20.6133 151.231 22.56C151.231 24.5067 151.498 25.98 152.031 26.98C152.564 27.98 153.271 28.48 154.151 28.48ZM169.721 29.24C168.508 29.24 167.568 28.66 166.901 27.5C166.235 26.34 165.901 24.6933 165.901 22.56C165.901 20.44 166.235 18.8133 166.901 17.68C167.568 16.5467 168.508 15.98 169.721 15.98C170.948 15.98 171.888 16.5467 172.541 17.68C173.208 18.8133 173.541 20.44 173.541 22.56C173.541 24.6933 173.208 26.34 172.541 27.5C171.888 28.66 170.948 29.24 169.721 29.24ZM169.721 28.48C170.615 28.48 171.321 27.98 171.841 26.98C172.375 25.98 172.641 24.5067 172.641 22.56C172.641 20.6133 172.375 19.16 171.841 18.2C171.321 17.2267 170.615 16.74 169.721 16.74C168.841 16.74 168.135 17.2267 167.601 18.2C167.068 19.16 166.801 20.6133 166.801 22.56C166.801 24.5067 167.068 25.98 167.601 26.98C168.135 27.98 168.841 28.48 169.721 28.48ZM180.692 32.2L186.792 14.8H187.552L181.452 32.2H180.692ZM193.84 32.2L199.94 14.8H200.7L194.6 32.2H193.84ZM206.989 32.2L213.089 14.8H213.849L207.749 32.2H206.989Z" fill="white"/>
<rect x="0.5" y="0.5" width="222" height="222" stroke="white"/>
</svg>
