<svg width="1429" height="371" viewBox="0 0 1429 371" fill="none" xmlns="http://www.w3.org/2000/svg">
<g clip-path="url(#clip0_343_24)">
<path d="M902.876 6.94934L1505.32 102.143C1505.32 102.143 1190.68 168.867 950.508 219.578C946.483 220.467 941.787 221.357 937.762 222.247C912.939 226.695 890.13 235.591 868.662 255.164C837.131 286.302 816.334 345.019 779.436 338.792C739.855 331.675 711.008 281.854 668.743 272.957C663.376 271.178 658.68 270.288 653.313 269.398C648.617 268.509 643.921 266.73 638.554 265.84C491.634 229.364 21.3545 111.039 21.3545 111.039C21.3545 111.039 456.078 59.4392 715.033 29.1908C719.058 30.0805 723.083 30.0805 727.109 30.0805C757.298 30.0805 788.829 24.7425 818.347 18.5149C825.056 16.7356 831.093 15.8459 837.131 14.9563C878.054 9.61831 902.876 6.94934 902.876 6.94934Z" stroke="#F2F2F2" stroke-miterlimit="10"/>
<path d="M211.21 87.9082C211.21 87.9082 442.66 140.398 631.174 182.212C635.871 183.102 641.237 184.881 645.934 185.771C655.997 187.55 665.389 191.109 674.11 195.557C678.806 198.226 682.831 200.005 687.527 203.564C691.553 207.122 695.578 210.681 700.274 214.24C736.501 243.598 753.943 323.668 800.904 306.764C825.056 297.867 843.169 274.736 864.637 258.723" stroke="#F2F2F2" stroke-miterlimit="10"/>
<path d="M379.599 68.3357C379.599 68.3357 478.887 88.7978 599.644 113.708C604.34 114.598 609.707 115.488 614.403 116.377C635.871 119.046 656.667 125.274 676.794 132.391C682.16 134.17 686.857 135.95 692.224 138.619C717.717 148.405 739.184 165.308 763.336 182.212C781.449 194.667 798.892 209.791 819.689 206.233C859.941 199.115 897.509 175.095 939.103 183.102C943.799 183.991 947.825 184.881 952.521 185.771C999.481 195.557 1029.67 201.784 1029.67 201.784" stroke="#F2F2F2" stroke-miterlimit="10"/>
<path d="M531.215 50.5426C531.215 50.5426 587.568 61.2185 666.73 76.3427C670.756 77.2323 675.452 78.122 679.477 79.0117C684.173 79.9013 688.198 80.791 692.894 81.6806C731.134 88.7979 761.323 118.157 794.195 144.846C807.613 155.522 822.372 158.191 838.473 151.964C873.358 138.619 905.56 118.157 940.445 128.833C945.141 129.722 949.166 130.612 953.862 130.612C1072.61 152.853 1169.88 171.536 1169.88 171.536" stroke="#F2F2F2" stroke-miterlimit="10"/>
<path d="M667.401 34.5288C667.401 34.5288 673.439 35.4185 684.844 38.0874C688.869 38.9771 692.894 39.8668 697.59 40.7564C733.817 46.0944 764.677 74.5634 798.892 87.0186C804.259 87.9083 810.967 89.6876 816.334 89.6876C861.282 83.46 904.889 76.3427 949.166 86.129C954.533 87.0186 959.9 87.9083 964.596 88.798C1126.95 117.267 1294.66 147.515 1294.66 147.515" stroke="#F2F2F2" stroke-miterlimit="10"/>
<path d="M788.829 24.7424C810.967 28.3011 831.764 30.97 854.574 31.8597C867.991 32.7494 882.75 35.4183 898.851 38.0873C1075.29 67.446 1406.7 122.605 1406.7 122.605" stroke="#F2F2F2" stroke-miterlimit="10"/>
<path d="M1390.6 83.46C1390.6 83.46 1167.2 126.164 950.508 167.088C945.812 167.977 940.445 168.867 935.749 169.757C878.054 184.881 829.752 226.695 793.525 286.302C786.145 298.757 771.386 296.978 761.994 288.081C734.488 263.171 711.679 222.247 676.123 221.357C670.085 221.357 664.047 221.357 658.68 222.247C651.301 223.136 643.921 224.916 637.212 225.805C583.543 235.591 550 242.709 550 242.709" stroke="#F2F2F2" stroke-miterlimit="10"/>
<path d="M1282.59 66.5564C1282.59 66.5564 1114.87 95.0255 927.698 127.053C922.331 128.832 917.635 130.612 912.939 132.391C908.914 135.06 903.547 135.06 898.851 138.619C861.282 167.088 826.397 203.564 780.107 200.005C769.373 199.115 762.665 213.35 752.601 215.129C746.564 216.019 740.526 212.46 735.83 208.902C720.4 196.446 706.312 182.212 688.869 177.764C684.844 175.984 680.148 175.095 676.122 174.205C667.401 172.426 658.68 172.426 649.288 174.205C644.592 175.095 640.566 175.984 635.87 175.984C515.785 196.446 427.901 211.571 427.901 211.571" stroke="#F2F2F2" stroke-miterlimit="10"/>
<path d="M1179.95 50.5426C1179.95 50.5426 1073.28 66.5564 935.749 87.9082C930.382 89.6876 925.686 91.4669 920.99 92.3565C894.155 98.5841 870.675 114.598 847.194 137.729C833.106 153.743 816.334 161.75 798.221 156.412C765.348 146.626 733.818 124.384 699.603 131.501C695.578 131.501 691.553 131.501 686.857 131.501C666.06 132.391 645.263 132.391 624.466 135.95C619.77 136.839 614.403 137.729 609.707 138.619C448.027 163.529 314.524 183.991 314.524 183.991" stroke="#F2F2F2" stroke-miterlimit="10"/>
<path d="M1082.67 35.4183C1082.67 35.4183 1016.92 44.3149 922.332 57.6598C917.635 58.5494 913.61 59.4391 909.585 60.3288C872.016 63.8874 842.498 92.3565 807.613 111.929C800.904 116.377 792.854 114.598 784.132 111.929C758.639 102.143 733.146 88.7978 705.641 88.7978C699.603 88.7978 693.565 89.6875 687.527 90.5771C663.376 94.1358 639.225 97.6944 615.074 99.4737C609.707 100.363 605.01 101.253 599.644 101.253C397.712 129.722 209.869 156.412 209.869 156.412" stroke="#F2F2F2" stroke-miterlimit="10"/>
<path d="M990.089 20.2942C990.089 20.2942 945.141 25.6321 875.371 35.4184C871.345 37.1977 867.32 38.0873 863.295 38.977C811.638 55.8805 763.336 71.0047 708.324 59.4391C697.59 57.6598 686.186 59.4391 674.781 61.2185C669.414 62.1081 664.718 62.1081 659.351 62.9978C410.459 95.0255 111.251 133.281 111.251 133.281" stroke="#F2F2F2" stroke-miterlimit="10"/>
</g>
<g clip-path="url(#clip1_343_24)" filter="url(#filter0_f_343_24)">
<path d="M899.876 15.9493L1502.32 111.143C1502.32 111.143 1187.68 177.867 947.508 228.578C943.483 229.467 938.787 230.357 934.762 231.247C909.939 235.695 887.13 244.591 865.662 264.164C834.131 295.302 813.334 354.019 776.436 347.792C736.855 340.675 708.008 290.854 665.743 281.957C660.376 280.178 655.68 279.288 650.313 278.398C645.617 277.509 640.921 275.73 635.554 274.84C488.634 238.364 18.3545 120.039 18.3545 120.039C18.3545 120.039 453.078 68.4392 712.033 38.1908C716.058 39.0805 720.083 39.0805 724.109 39.0805C754.298 39.0805 785.829 33.7425 815.347 27.5149C822.056 25.7356 828.093 24.8459 834.131 23.9563C875.054 18.6183 899.876 15.9493 899.876 15.9493Z" stroke="#0040E6" stroke-miterlimit="10"/>
<path d="M208.21 96.9082C208.21 96.9082 439.66 149.398 628.174 191.212C632.871 192.102 638.237 193.881 642.934 194.771C652.997 196.55 662.389 200.109 671.11 204.557C675.806 207.226 679.831 209.005 684.527 212.564C688.553 216.122 692.578 219.681 697.274 223.24C733.501 252.598 750.943 332.668 797.904 315.764C822.056 306.867 840.169 283.736 861.637 267.723" stroke="#0040E6" stroke-miterlimit="10"/>
<path d="M376.599 77.3357C376.599 77.3357 475.887 97.7978 596.644 122.708C601.34 123.598 606.707 124.488 611.403 125.377C632.871 128.046 653.667 134.274 673.794 141.391C679.16 143.17 683.857 144.95 689.224 147.619C714.717 157.405 736.184 174.308 760.336 191.212C778.449 203.667 795.892 218.791 816.689 215.233C856.941 208.115 894.509 184.095 936.103 192.102C940.799 192.991 944.825 193.881 949.521 194.771C996.481 204.557 1026.67 210.784 1026.67 210.784" stroke="#0040E6" stroke-miterlimit="10"/>
<path d="M528.215 59.5426C528.215 59.5426 584.568 70.2185 663.73 85.3427C667.756 86.2323 672.452 87.122 676.477 88.0117C681.173 88.9013 685.198 89.791 689.894 90.6806C728.134 97.7979 758.323 127.157 791.195 153.846C804.613 164.522 819.372 167.191 835.473 160.964C870.358 147.619 902.56 127.157 937.445 137.833C942.141 138.722 946.166 139.612 950.862 139.612C1069.61 161.853 1166.88 180.536 1166.88 180.536" stroke="#0040E6" stroke-miterlimit="10"/>
<path d="M664.401 43.5288C664.401 43.5288 670.439 44.4185 681.844 47.0874C685.869 47.9771 689.894 48.8668 694.59 49.7564C730.817 55.0944 761.677 83.5634 795.892 96.0186C801.259 96.9083 807.967 98.6876 813.334 98.6876C858.282 92.46 901.889 85.3427 946.166 95.129C951.533 96.0186 956.9 96.9083 961.596 97.798C1123.95 126.267 1291.66 156.515 1291.66 156.515" stroke="#0040E6" stroke-miterlimit="10"/>
<path d="M785.829 33.7424C807.967 37.3011 828.764 39.97 851.574 40.8597C864.991 41.7494 879.75 44.4183 895.851 47.0873C1072.29 76.446 1403.7 131.605 1403.7 131.605" stroke="#0040E6" stroke-miterlimit="10"/>
<path d="M1387.6 92.46C1387.6 92.46 1164.2 135.164 947.508 176.088C942.812 176.977 937.445 177.867 932.749 178.757C875.054 193.881 826.752 235.695 790.525 295.302C783.145 307.757 768.386 305.978 758.994 297.081C731.488 272.171 708.679 231.247 673.123 230.357C667.085 230.357 661.047 230.357 655.68 231.247C648.301 232.136 640.921 233.916 634.212 234.805C580.543 244.591 547 251.709 547 251.709" stroke="#0040E6" stroke-miterlimit="10"/>
<path d="M1279.59 75.5564C1279.59 75.5564 1111.87 104.025 924.698 136.053C919.331 137.832 914.635 139.612 909.939 141.391C905.914 144.06 900.547 144.06 895.851 147.619C858.282 176.088 823.397 212.564 777.107 209.005C766.373 208.115 759.665 222.35 749.601 224.129C743.564 225.019 737.526 221.46 732.83 217.902C717.4 205.446 703.312 191.212 685.869 186.764C681.844 184.984 677.148 184.095 673.122 183.205C664.401 181.426 655.68 181.426 646.288 183.205C641.592 184.095 637.566 184.984 632.87 184.984C512.785 205.446 424.901 220.571 424.901 220.571" stroke="#0040E6" stroke-miterlimit="10"/>
<path d="M1176.95 59.5426C1176.95 59.5426 1070.28 75.5564 932.749 96.9082C927.382 98.6876 922.686 100.467 917.99 101.357C891.155 107.584 867.675 123.598 844.194 146.729C830.106 162.743 813.334 170.75 795.221 165.412C762.348 155.626 730.818 133.384 696.603 140.501C692.578 140.501 688.553 140.501 683.857 140.501C663.06 141.391 642.263 141.391 621.466 144.95C616.77 145.839 611.403 146.729 606.707 147.619C445.027 172.529 311.524 192.991 311.524 192.991" stroke="#0040E6" stroke-miterlimit="10"/>
<path d="M1079.67 44.4183C1079.67 44.4183 1013.92 53.3149 919.332 66.6598C914.635 67.5494 910.61 68.4391 906.585 69.3288C869.016 72.8874 839.498 101.356 804.613 120.929C797.904 125.377 789.854 123.598 781.132 120.929C755.639 111.143 730.146 97.7978 702.641 97.7978C696.603 97.7978 690.565 98.6875 684.527 99.5771C660.376 103.136 636.225 106.694 612.074 108.474C606.707 109.363 602.01 110.253 596.644 110.253C394.712 138.722 206.869 165.412 206.869 165.412" stroke="#0040E6" stroke-miterlimit="10"/>
<path d="M987.089 29.2942C987.089 29.2942 942.141 34.6321 872.371 44.4184C868.345 46.1977 864.32 47.0873 860.295 47.977C808.638 64.8805 760.336 80.0047 705.324 68.4391C694.59 66.6598 683.186 68.4391 671.781 70.2185C666.414 71.1081 661.718 71.1081 656.351 71.9978C407.459 104.025 108.251 142.281 108.251 142.281" stroke="#0040E6" stroke-miterlimit="10"/>
</g>
<defs>
<filter id="filter0_f_343_24" x="0" y="0" width="1520" height="386" filterUnits="userSpaceOnUse" color-interpolation-filters="sRGB">
<feFlood flood-opacity="0" result="BackgroundImageFix"/>
<feBlend mode="normal" in="SourceGraphic" in2="BackgroundImageFix" result="shape"/>
<feGaussianBlur stdDeviation="7.5" result="effect1_foregroundBlur_343_24"/>
</filter>
<clipPath id="clip0_343_24">
<rect width="1490" height="356" fill="white" transform="translate(18 6)"/>
</clipPath>
<clipPath id="clip1_343_24">
<rect width="1490" height="356" fill="white" transform="translate(15 15)"/>
</clipPath>
</defs>
</svg>
