<svg width="167" height="237" viewBox="0 0 167 237" fill="none" xmlns="http://www.w3.org/2000/svg">
<path d="M163.357 2.29331C164.811 3.28642 165.773 5.02788 166.209 7.5425C166.645 10.0581 166.543 13.292 165.917 17.1734C164.665 24.9335 161.338 35.1657 156.22 47.1701C145.986 71.1712 128.634 102.159 106.586 134.438C84.5381 166.717 61.9841 194.152 43.3494 212.415C34.029 221.549 25.7079 228.37 18.9347 232.359C15.5468 234.354 12.5715 235.625 10.0696 236.134C7.56867 236.642 5.59659 236.38 4.14266 235.387C2.68872 234.393 1.72672 232.652 1.29081 230.137C0.854736 227.622 0.95658 224.388 1.58266 220.506C2.83435 212.746 6.16141 202.514 11.2798 190.51C21.5133 166.509 38.8652 135.52 60.9132 103.242C82.9613 70.9627 105.515 43.5277 124.15 25.265C133.47 16.1308 141.791 9.30978 148.565 5.32117C151.953 3.32614 154.928 2.05498 157.43 1.54616C159.931 1.03754 161.903 1.30021 163.357 2.29331Z" stroke="white"/>
</svg>
