<svg width="684" height="535" viewBox="0 0 684 535" fill="none" xmlns="http://www.w3.org/2000/svg">
<line x1="0.885765" y1="19.1141" x2="75.8858" y2="1.51322" stroke="white"/>
<line x1="128.752" y1="32.7874" x2="75.7515" y2="2.43388" stroke="white"/>
<line y1="-0.5" x2="60.1665" y2="-0.5" transform="matrix(-0.809756 -0.586768 0.65374 -0.75672 52.4141 128)" stroke="white"/>
<line x1="128.739" y1="102.431" x2="74.7393" y2="69.4266" stroke="white"/>
<line x1="51.5002" y1="126.014" x2="49.5002" y2="54.0139" stroke="white"/>
<line x1="75.5" y1="69" x2="75.5" y2="2" stroke="white"/>
<line x1="76.133" y1="69.1257" x2="1.15444" y2="93.4755" stroke="white"/>
<path d="M127.5 102.5L53.8221 128.05" stroke="white"/>
<line x1="49.2893" y1="54.2018" x2="75.553" y2="1.77605" stroke="white"/>
<line y1="-0.5" x2="59.9002" y2="-0.5" transform="matrix(0.813628 0.581385 -0.648494 0.76122 1 19.6008)" stroke="white"/>
<line y1="-0.5" x2="81.897" y2="-0.5" transform="matrix(0.967846 -0.251545 0.295977 0.955195 49.7363 54.4258)" stroke="white"/>
<line x1="682.5" y1="534.996" x2="682.994" y2="468.981" stroke="white"/>
<rect x="2" y="1" width="126" height="127" stroke="white" stroke-width="2"/>
</svg>
