<svg width="800" height="1080" viewBox="0 0 800 1080" fill="none" xmlns="http://www.w3.org/2000/svg">
<g clip-path="url(#clip0_344_30)">
<path d="M236.514 816.243L201.988 816.927L201.492 864.553L200.997 816.927L166.47 816.244L200.997 815.56L201.493 767.934L201.988 815.56L236.514 816.243Z" fill="white"/>
<path d="M235.864 839.106L201.793 817.419L180.441 858.399L200.824 816.78L167.353 793.908L201.423 815.595L222.775 774.615L202.392 816.234L235.864 839.106Z" fill="white"/>
<path d="M224.391 854.2L202.801 817.088L167.392 842.338L202.196 816.013L181.612 778.16L203.203 815.273L238.612 790.022L203.808 816.348L224.391 854.2Z" fill="white"/>
<g filter="url(#filter0_f_344_30)">
<ellipse cx="362.5" cy="958.5" rx="12.5" ry="12.5" transform="rotate(90 362.5 958.5)" fill="white"/>
</g>
<g filter="url(#filter1_f_344_30)">
<circle cx="89.5" cy="484.5" r="8.5" transform="rotate(90 89.5 484.5)" fill="white"/>
</g>
<g filter="url(#filter2_f_344_30)">
<ellipse cx="375.5" cy="78.5" rx="12.5" ry="12.5" transform="rotate(90 375.5 78.5)" fill="white"/>
</g>
<g filter="url(#filter3_f_344_30)">
<circle cx="468" cy="779" r="9" transform="rotate(90 468 779)" fill="white"/>
</g>
<g filter="url(#filter4_f_344_30)">
<ellipse cx="270" cy="435" rx="6" ry="6" transform="rotate(90 270 435)" fill="white"/>
</g>
<g filter="url(#filter5_f_344_30)">
<ellipse cx="63.5" cy="236.866" rx="12.5" ry="12.5" transform="rotate(180 63.5 236.866)" fill="white"/>
</g>
<g filter="url(#filter6_f_344_30)">
<circle cx="244.468" cy="339.827" r="9" transform="rotate(180 244.468 339.827)" fill="white"/>
</g>
<g filter="url(#filter7_f_344_30)">
<ellipse cx="585.645" cy="137" rx="6" ry="6" transform="rotate(180 585.645 137)" fill="white"/>
</g>
<g filter="url(#filter8_f_344_30)">
<circle cx="421.613" cy="496.076" r="9" transform="rotate(-7.33745 421.613 496.076)" fill="white"/>
</g>
<g filter="url(#filter9_f_344_30)">
<ellipse cx="105.717" cy="736.388" rx="6" ry="6" transform="rotate(-7.33745 105.717 736.388)" fill="white"/>
</g>
<g filter="url(#filter10_f_344_30)">
<circle cx="478" cy="140" r="9" transform="rotate(90 478 140)" fill="white"/>
</g>
<g filter="url(#filter11_f_344_30)">
<circle cx="288.97" cy="924.784" r="6.93275" transform="rotate(15 288.97 924.784)" fill="white"/>
</g>
<g filter="url(#filter12_f_344_30)">
<ellipse cx="29.4865" cy="613.76" rx="10.1952" ry="10.1952" transform="rotate(15 29.4865 613.76)" fill="white"/>
</g>
<g filter="url(#filter13_f_344_30)">
<circle cx="600.886" cy="688.76" r="7.34056" transform="rotate(15 600.886 688.76)" fill="white"/>
</g>
<g filter="url(#filter14_f_344_30)">
<ellipse cx="288.076" cy="772.132" rx="4.89371" ry="4.89371" transform="rotate(15 288.076 772.132)" fill="white"/>
</g>
<g filter="url(#filter15_f_344_30)">
<ellipse cx="88.3894" cy="892.993" rx="10.1952" ry="10.1952" transform="rotate(105 88.3894 892.993)" fill="white"/>
</g>
<g filter="url(#filter16_f_344_30)">
<circle cx="207.706" cy="772.156" r="7.34056" transform="rotate(105 207.706 772.156)" fill="white"/>
</g>
<g filter="url(#filter17_f_344_30)">
<circle cx="368.198" cy="668.58" r="7.34056" transform="rotate(-82.3374 368.198 668.58)" fill="white"/>
</g>
<g filter="url(#filter18_f_344_30)">
<ellipse cx="490.837" cy="965.18" rx="4.89371" ry="4.89371" transform="rotate(-82.3374 490.837 965.18)" fill="white"/>
</g>
<g filter="url(#filter19_f_344_30)">
<circle cx="99.5753" cy="545.99" r="7.34056" transform="rotate(15 99.5753 545.99)" fill="white"/>
</g>
<g filter="url(#filter20_f_344_30)">
<ellipse cx="420" cy="795" rx="11" ry="11" transform="rotate(90 420 795)" fill="white"/>
</g>
<g filter="url(#filter21_f_344_30)">
<ellipse cx="303.5" cy="1082.83" rx="12.5" ry="12.5" transform="rotate(90 303.5 1082.83)" fill="white"/>
</g>
<g filter="url(#filter22_f_344_30)">
<ellipse cx="46.7171" cy="860.717" rx="6" ry="6" transform="rotate(-7.33745 46.7171 860.717)" fill="white"/>
</g>
<g filter="url(#filter23_f_344_30)">
<ellipse cx="229.076" cy="896.461" rx="4.89371" ry="4.89371" transform="rotate(15 229.076 896.461)" fill="white"/>
</g>
<g filter="url(#filter24_f_344_30)">
<circle cx="148.706" cy="896.485" r="7.34056" transform="rotate(105 148.706 896.485)" fill="white"/>
</g>
<g filter="url(#filter25_f_344_30)">
<ellipse cx="361" cy="919.329" rx="11" ry="11" transform="rotate(90 361 919.329)" fill="white"/>
</g>
<g filter="url(#filter26_f_344_30)">
<ellipse cx="181.5" cy="380.5" rx="7.5" ry="7.5" transform="rotate(90 181.5 380.5)" fill="white"/>
</g>
<g filter="url(#filter27_f_344_30)">
<ellipse cx="432" cy="26" rx="11" ry="11" transform="rotate(90 432 26)" fill="white"/>
</g>
<g filter="url(#filter28_f_344_30)">
<ellipse cx="512.5" cy="638" rx="8" ry="7.5" transform="rotate(90 512.5 638)" fill="white"/>
</g>
<g filter="url(#filter29_f_344_30)">
<ellipse cx="339.5" cy="337.5" rx="5.5" ry="5.5" transform="rotate(90 339.5 337.5)" fill="white"/>
</g>
<g filter="url(#filter30_f_344_30)">
<circle cx="159" cy="164" r="11" transform="rotate(180 159 164)" fill="white"/>
</g>
<g filter="url(#filter31_f_344_30)">
<circle cx="317" cy="254" r="8" transform="rotate(180 317 254)" fill="white"/>
</g>
<g filter="url(#filter32_f_344_30)">
<circle cx="471.928" cy="390.901" r="7.8663" transform="rotate(-7.33745 471.928 390.901)" fill="white"/>
</g>
<g filter="url(#filter33_f_344_30)">
<ellipse cx="195.824" cy="600.941" rx="5.2442" ry="5.2442" transform="rotate(-7.33745 195.824 600.941)" fill="white"/>
</g>
<g filter="url(#filter34_f_344_30)">
<ellipse cx="521" cy="80" rx="8" ry="8" transform="rotate(90 521 80)" fill="white"/>
</g>
<path d="M136.84 335.408L108.673 335.966L108.269 374.818L107.865 335.966L79.6991 335.409L107.865 334.851L108.27 295.999L108.673 334.851L136.84 335.408Z" fill="white"/>
<path d="M136.31 354.059L108.516 336.367L91.0974 369.799L107.725 335.846L80.4199 317.188L108.214 334.879L125.632 301.448L109.004 335.401L136.31 354.059Z" fill="white"/>
<path d="M126.95 366.373L109.337 336.097L80.4512 356.696L108.843 335.22L92.0521 304.341L109.665 334.616L138.551 314.018L110.159 335.494L126.95 366.373Z" fill="white"/>
</g>
<path d="M780.84 351.408L752.673 351.966L752.269 390.818L751.865 351.966L723.699 351.409L751.865 350.851L752.27 311.999L752.673 350.851L780.84 351.408Z" fill="white"/>
<path d="M780.31 370.059L752.516 352.367L735.097 385.799L751.725 351.846L724.42 333.188L752.214 350.879L769.632 317.448L753.004 351.401L780.31 370.059Z" fill="white"/>
<path d="M770.95 382.373L753.337 352.097L724.451 372.696L752.843 351.22L736.052 320.341L753.665 350.616L782.551 330.018L754.159 351.494L770.95 382.373Z" fill="white"/>
<path d="M651.012 148.824L611.337 149.609L610.767 204.338L610.198 149.609L570.523 148.824L610.198 148.039L610.768 93.3105L611.337 148.039L651.012 148.824Z" fill="white"/>
<path d="M650.266 175.096L611.114 150.175L586.578 197.267L610.001 149.44L571.538 123.158L610.689 148.079L635.225 100.987L611.802 148.813L650.266 175.096Z" fill="white"/>
<path d="M637.081 192.441L612.271 149.795L571.581 178.811L611.576 148.559L587.923 105.062L612.733 147.709L653.422 118.693L613.428 148.944L637.081 192.441Z" fill="white"/>
<path d="M675.013 578.824L635.337 579.609L634.768 634.338L634.199 579.609L594.523 578.824L634.199 578.039L634.768 523.31L635.337 578.039L675.013 578.824Z" fill="white"/>
<path d="M674.266 605.096L635.115 580.175L610.579 627.267L634.001 579.44L595.538 553.158L634.689 578.079L659.225 530.987L635.803 578.813L674.266 605.096Z" fill="white"/>
<path d="M661.081 622.441L636.271 579.795L595.582 608.811L635.576 578.559L611.923 535.062L636.733 577.709L677.423 548.693L637.429 578.944L661.081 622.441Z" fill="white"/>
<defs>
<filter id="filter0_f_344_30" x="346" y="942" width="33" height="33" filterUnits="userSpaceOnUse" color-interpolation-filters="sRGB">
<feFlood flood-opacity="0" result="BackgroundImageFix"/>
<feBlend mode="normal" in="SourceGraphic" in2="BackgroundImageFix" result="shape"/>
<feGaussianBlur stdDeviation="2" result="effect1_foregroundBlur_344_30"/>
</filter>
<filter id="filter1_f_344_30" x="77" y="472" width="25" height="25" filterUnits="userSpaceOnUse" color-interpolation-filters="sRGB">
<feFlood flood-opacity="0" result="BackgroundImageFix"/>
<feBlend mode="normal" in="SourceGraphic" in2="BackgroundImageFix" result="shape"/>
<feGaussianBlur stdDeviation="2" result="effect1_foregroundBlur_344_30"/>
</filter>
<filter id="filter2_f_344_30" x="359" y="62" width="33" height="33" filterUnits="userSpaceOnUse" color-interpolation-filters="sRGB">
<feFlood flood-opacity="0" result="BackgroundImageFix"/>
<feBlend mode="normal" in="SourceGraphic" in2="BackgroundImageFix" result="shape"/>
<feGaussianBlur stdDeviation="2" result="effect1_foregroundBlur_344_30"/>
</filter>
<filter id="filter3_f_344_30" x="455" y="766" width="26" height="26" filterUnits="userSpaceOnUse" color-interpolation-filters="sRGB">
<feFlood flood-opacity="0" result="BackgroundImageFix"/>
<feBlend mode="normal" in="SourceGraphic" in2="BackgroundImageFix" result="shape"/>
<feGaussianBlur stdDeviation="2" result="effect1_foregroundBlur_344_30"/>
</filter>
<filter id="filter4_f_344_30" x="260" y="425" width="20" height="20" filterUnits="userSpaceOnUse" color-interpolation-filters="sRGB">
<feFlood flood-opacity="0" result="BackgroundImageFix"/>
<feBlend mode="normal" in="SourceGraphic" in2="BackgroundImageFix" result="shape"/>
<feGaussianBlur stdDeviation="2" result="effect1_foregroundBlur_344_30"/>
</filter>
<filter id="filter5_f_344_30" x="47" y="220.366" width="33" height="33" filterUnits="userSpaceOnUse" color-interpolation-filters="sRGB">
<feFlood flood-opacity="0" result="BackgroundImageFix"/>
<feBlend mode="normal" in="SourceGraphic" in2="BackgroundImageFix" result="shape"/>
<feGaussianBlur stdDeviation="2" result="effect1_foregroundBlur_344_30"/>
</filter>
<filter id="filter6_f_344_30" x="231.468" y="326.827" width="26" height="26" filterUnits="userSpaceOnUse" color-interpolation-filters="sRGB">
<feFlood flood-opacity="0" result="BackgroundImageFix"/>
<feBlend mode="normal" in="SourceGraphic" in2="BackgroundImageFix" result="shape"/>
<feGaussianBlur stdDeviation="2" result="effect1_foregroundBlur_344_30"/>
</filter>
<filter id="filter7_f_344_30" x="575.645" y="127" width="20" height="20" filterUnits="userSpaceOnUse" color-interpolation-filters="sRGB">
<feFlood flood-opacity="0" result="BackgroundImageFix"/>
<feBlend mode="normal" in="SourceGraphic" in2="BackgroundImageFix" result="shape"/>
<feGaussianBlur stdDeviation="2" result="effect1_foregroundBlur_344_30"/>
</filter>
<filter id="filter8_f_344_30" x="408.612" y="483.075" width="26.002" height="26.002" filterUnits="userSpaceOnUse" color-interpolation-filters="sRGB">
<feFlood flood-opacity="0" result="BackgroundImageFix"/>
<feBlend mode="normal" in="SourceGraphic" in2="BackgroundImageFix" result="shape"/>
<feGaussianBlur stdDeviation="2" result="effect1_foregroundBlur_344_30"/>
</filter>
<filter id="filter9_f_344_30" x="95.7168" y="726.387" width="20.001" height="20.0015" filterUnits="userSpaceOnUse" color-interpolation-filters="sRGB">
<feFlood flood-opacity="0" result="BackgroundImageFix"/>
<feBlend mode="normal" in="SourceGraphic" in2="BackgroundImageFix" result="shape"/>
<feGaussianBlur stdDeviation="2" result="effect1_foregroundBlur_344_30"/>
</filter>
<filter id="filter10_f_344_30" x="465" y="127" width="26" height="26" filterUnits="userSpaceOnUse" color-interpolation-filters="sRGB">
<feFlood flood-opacity="0" result="BackgroundImageFix"/>
<feBlend mode="normal" in="SourceGraphic" in2="BackgroundImageFix" result="shape"/>
<feGaussianBlur stdDeviation="2" result="effect1_foregroundBlur_344_30"/>
</filter>
<filter id="filter11_f_344_30" x="278.035" y="913.85" width="21.8691" height="21.8689" filterUnits="userSpaceOnUse" color-interpolation-filters="sRGB">
<feFlood flood-opacity="0" result="BackgroundImageFix"/>
<feBlend mode="normal" in="SourceGraphic" in2="BackgroundImageFix" result="shape"/>
<feGaussianBlur stdDeviation="2" result="effect1_foregroundBlur_344_30"/>
</filter>
<filter id="filter12_f_344_30" x="15.2891" y="599.562" width="28.3955" height="28.3955" filterUnits="userSpaceOnUse" color-interpolation-filters="sRGB">
<feFlood flood-opacity="0" result="BackgroundImageFix"/>
<feBlend mode="normal" in="SourceGraphic" in2="BackgroundImageFix" result="shape"/>
<feGaussianBlur stdDeviation="2" result="effect1_foregroundBlur_344_30"/>
</filter>
<filter id="filter13_f_344_30" x="589.544" y="677.417" width="22.6846" height="22.6848" filterUnits="userSpaceOnUse" color-interpolation-filters="sRGB">
<feFlood flood-opacity="0" result="BackgroundImageFix"/>
<feBlend mode="normal" in="SourceGraphic" in2="BackgroundImageFix" result="shape"/>
<feGaussianBlur stdDeviation="2" result="effect1_foregroundBlur_344_30"/>
</filter>
<filter id="filter14_f_344_30" x="279.181" y="763.237" width="17.79" height="17.7898" filterUnits="userSpaceOnUse" color-interpolation-filters="sRGB">
<feFlood flood-opacity="0" result="BackgroundImageFix"/>
<feBlend mode="normal" in="SourceGraphic" in2="BackgroundImageFix" result="shape"/>
<feGaussianBlur stdDeviation="2" result="effect1_foregroundBlur_344_30"/>
</filter>
<filter id="filter15_f_344_30" x="74.1914" y="878.795" width="28.3955" height="28.3955" filterUnits="userSpaceOnUse" color-interpolation-filters="sRGB">
<feFlood flood-opacity="0" result="BackgroundImageFix"/>
<feBlend mode="normal" in="SourceGraphic" in2="BackgroundImageFix" result="shape"/>
<feGaussianBlur stdDeviation="2" result="effect1_foregroundBlur_344_30"/>
</filter>
<filter id="filter16_f_344_30" x="196.363" y="760.813" width="22.6855" height="22.6848" filterUnits="userSpaceOnUse" color-interpolation-filters="sRGB">
<feFlood flood-opacity="0" result="BackgroundImageFix"/>
<feBlend mode="normal" in="SourceGraphic" in2="BackgroundImageFix" result="shape"/>
<feGaussianBlur stdDeviation="2" result="effect1_foregroundBlur_344_30"/>
</filter>
<filter id="filter17_f_344_30" x="356.856" y="657.239" width="22.6826" height="22.6829" filterUnits="userSpaceOnUse" color-interpolation-filters="sRGB">
<feFlood flood-opacity="0" result="BackgroundImageFix"/>
<feBlend mode="normal" in="SourceGraphic" in2="BackgroundImageFix" result="shape"/>
<feGaussianBlur stdDeviation="2" result="effect1_foregroundBlur_344_30"/>
</filter>
<filter id="filter18_f_344_30" x="481.943" y="956.286" width="17.7881" height="17.7886" filterUnits="userSpaceOnUse" color-interpolation-filters="sRGB">
<feFlood flood-opacity="0" result="BackgroundImageFix"/>
<feBlend mode="normal" in="SourceGraphic" in2="BackgroundImageFix" result="shape"/>
<feGaussianBlur stdDeviation="2" result="effect1_foregroundBlur_344_30"/>
</filter>
<filter id="filter19_f_344_30" x="88.2334" y="534.648" width="22.6846" height="22.6848" filterUnits="userSpaceOnUse" color-interpolation-filters="sRGB">
<feFlood flood-opacity="0" result="BackgroundImageFix"/>
<feBlend mode="normal" in="SourceGraphic" in2="BackgroundImageFix" result="shape"/>
<feGaussianBlur stdDeviation="2" result="effect1_foregroundBlur_344_30"/>
</filter>
<filter id="filter20_f_344_30" x="405" y="780" width="30" height="30" filterUnits="userSpaceOnUse" color-interpolation-filters="sRGB">
<feFlood flood-opacity="0" result="BackgroundImageFix"/>
<feBlend mode="normal" in="SourceGraphic" in2="BackgroundImageFix" result="shape"/>
<feGaussianBlur stdDeviation="2" result="effect1_foregroundBlur_344_30"/>
</filter>
<filter id="filter21_f_344_30" x="287" y="1066.33" width="33" height="33" filterUnits="userSpaceOnUse" color-interpolation-filters="sRGB">
<feFlood flood-opacity="0" result="BackgroundImageFix"/>
<feBlend mode="normal" in="SourceGraphic" in2="BackgroundImageFix" result="shape"/>
<feGaussianBlur stdDeviation="2" result="effect1_foregroundBlur_344_30"/>
</filter>
<filter id="filter22_f_344_30" x="36.7168" y="850.716" width="20.001" height="20.0015" filterUnits="userSpaceOnUse" color-interpolation-filters="sRGB">
<feFlood flood-opacity="0" result="BackgroundImageFix"/>
<feBlend mode="normal" in="SourceGraphic" in2="BackgroundImageFix" result="shape"/>
<feGaussianBlur stdDeviation="2" result="effect1_foregroundBlur_344_30"/>
</filter>
<filter id="filter23_f_344_30" x="220.181" y="887.566" width="17.79" height="17.7898" filterUnits="userSpaceOnUse" color-interpolation-filters="sRGB">
<feFlood flood-opacity="0" result="BackgroundImageFix"/>
<feBlend mode="normal" in="SourceGraphic" in2="BackgroundImageFix" result="shape"/>
<feGaussianBlur stdDeviation="2" result="effect1_foregroundBlur_344_30"/>
</filter>
<filter id="filter24_f_344_30" x="137.363" y="885.143" width="22.6855" height="22.6848" filterUnits="userSpaceOnUse" color-interpolation-filters="sRGB">
<feFlood flood-opacity="0" result="BackgroundImageFix"/>
<feBlend mode="normal" in="SourceGraphic" in2="BackgroundImageFix" result="shape"/>
<feGaussianBlur stdDeviation="2" result="effect1_foregroundBlur_344_30"/>
</filter>
<filter id="filter25_f_344_30" x="346" y="904.329" width="30" height="30" filterUnits="userSpaceOnUse" color-interpolation-filters="sRGB">
<feFlood flood-opacity="0" result="BackgroundImageFix"/>
<feBlend mode="normal" in="SourceGraphic" in2="BackgroundImageFix" result="shape"/>
<feGaussianBlur stdDeviation="2" result="effect1_foregroundBlur_344_30"/>
</filter>
<filter id="filter26_f_344_30" x="170" y="369" width="23" height="23" filterUnits="userSpaceOnUse" color-interpolation-filters="sRGB">
<feFlood flood-opacity="0" result="BackgroundImageFix"/>
<feBlend mode="normal" in="SourceGraphic" in2="BackgroundImageFix" result="shape"/>
<feGaussianBlur stdDeviation="2" result="effect1_foregroundBlur_344_30"/>
</filter>
<filter id="filter27_f_344_30" x="417" y="11" width="30" height="30" filterUnits="userSpaceOnUse" color-interpolation-filters="sRGB">
<feFlood flood-opacity="0" result="BackgroundImageFix"/>
<feBlend mode="normal" in="SourceGraphic" in2="BackgroundImageFix" result="shape"/>
<feGaussianBlur stdDeviation="2" result="effect1_foregroundBlur_344_30"/>
</filter>
<filter id="filter28_f_344_30" x="501" y="626" width="23" height="24" filterUnits="userSpaceOnUse" color-interpolation-filters="sRGB">
<feFlood flood-opacity="0" result="BackgroundImageFix"/>
<feBlend mode="normal" in="SourceGraphic" in2="BackgroundImageFix" result="shape"/>
<feGaussianBlur stdDeviation="2" result="effect1_foregroundBlur_344_30"/>
</filter>
<filter id="filter29_f_344_30" x="330" y="328" width="19" height="19" filterUnits="userSpaceOnUse" color-interpolation-filters="sRGB">
<feFlood flood-opacity="0" result="BackgroundImageFix"/>
<feBlend mode="normal" in="SourceGraphic" in2="BackgroundImageFix" result="shape"/>
<feGaussianBlur stdDeviation="2" result="effect1_foregroundBlur_344_30"/>
</filter>
<filter id="filter30_f_344_30" x="144" y="149" width="30" height="30" filterUnits="userSpaceOnUse" color-interpolation-filters="sRGB">
<feFlood flood-opacity="0" result="BackgroundImageFix"/>
<feBlend mode="normal" in="SourceGraphic" in2="BackgroundImageFix" result="shape"/>
<feGaussianBlur stdDeviation="2" result="effect1_foregroundBlur_344_30"/>
</filter>
<filter id="filter31_f_344_30" x="305" y="242" width="24" height="24" filterUnits="userSpaceOnUse" color-interpolation-filters="sRGB">
<feFlood flood-opacity="0" result="BackgroundImageFix"/>
<feBlend mode="normal" in="SourceGraphic" in2="BackgroundImageFix" result="shape"/>
<feGaussianBlur stdDeviation="2" result="effect1_foregroundBlur_344_30"/>
</filter>
<filter id="filter32_f_344_30" x="460.061" y="379.033" width="23.7344" height="23.7341" filterUnits="userSpaceOnUse" color-interpolation-filters="sRGB">
<feFlood flood-opacity="0" result="BackgroundImageFix"/>
<feBlend mode="normal" in="SourceGraphic" in2="BackgroundImageFix" result="shape"/>
<feGaussianBlur stdDeviation="2" result="effect1_foregroundBlur_344_30"/>
</filter>
<filter id="filter33_f_344_30" x="186.579" y="591.696" width="18.4902" height="18.4897" filterUnits="userSpaceOnUse" color-interpolation-filters="sRGB">
<feFlood flood-opacity="0" result="BackgroundImageFix"/>
<feBlend mode="normal" in="SourceGraphic" in2="BackgroundImageFix" result="shape"/>
<feGaussianBlur stdDeviation="2" result="effect1_foregroundBlur_344_30"/>
</filter>
<filter id="filter34_f_344_30" x="509" y="68" width="24" height="24" filterUnits="userSpaceOnUse" color-interpolation-filters="sRGB">
<feFlood flood-opacity="0" result="BackgroundImageFix"/>
<feBlend mode="normal" in="SourceGraphic" in2="BackgroundImageFix" result="shape"/>
<feGaussianBlur stdDeviation="2" result="effect1_foregroundBlur_344_30"/>
</filter>
<clipPath id="clip0_344_30">
<rect width="1490" height="591.951" fill="white" transform="translate(592.023 -101.971) rotate(90.0018)"/>
</clipPath>
</defs>
</svg>
