<svg width="1252" height="1080" viewBox="0 0 1252 1080" fill="none" xmlns="http://www.w3.org/2000/svg">
<path d="M19.94 123V109.82H20.86V122.2H26.94V123H19.94ZM37.7406 123.24C36.754 123.24 36.0206 122.94 35.5406 122.34C35.074 121.727 34.8406 120.8 34.8406 119.56V113.4H35.7206V119.44C35.7206 120.453 35.8873 121.207 36.2206 121.7C36.5673 122.193 37.1273 122.44 37.9006 122.44C38.474 122.44 38.994 122.287 39.4606 121.98C39.9273 121.66 40.4406 121.16 41.0006 120.48V113.4H41.8806V123H41.1406L41.0406 121.4H41.0006C40.534 121.947 40.0406 122.393 39.5206 122.74C39.0006 123.073 38.4073 123.24 37.7406 123.24ZM35.9406 110.88V110.16H40.8606V110.88H35.9406ZM51.6666 123V109.82H52.6266L58.1866 119.12L59.6666 121.74H59.7466C59.7332 121.1 59.7066 120.46 59.6666 119.82C59.6399 119.18 59.6266 118.54 59.6266 117.9V109.82H60.5066V123H59.5466L53.9866 113.7L52.5066 111.08H52.4266C52.4532 111.707 52.4799 112.327 52.5066 112.94C52.5332 113.553 52.5466 114.18 52.5466 114.82V123H51.6666ZM72.2014 115.24L71.3614 117.7H76.0414L75.2014 115.24C74.9347 114.453 74.6814 113.7 74.4414 112.98C74.2014 112.26 73.9681 111.493 73.7414 110.68H73.6614C73.4347 111.493 73.2014 112.26 72.9614 112.98C72.7214 113.7 72.4681 114.453 72.2014 115.24ZM68.6014 123L73.2414 109.82H74.1614L78.8014 123H77.8414L76.3014 118.48H71.0814L69.5214 123H68.6014Z" fill="white"/>
<line y1="616.5" x2="932" y2="616.5" stroke="white"/>
<line x1="202.5" y1="1.03142e-08" x2="202.5" y2="780" stroke="white"/>
<line x1="268.5" y1="1008" x2="268.5" stroke="white"/>
<line y1="91.5" x2="932" y2="91.5" stroke="white"/>
<line y1="58.5" x2="932" y2="58.5" stroke="white"/>
<line x1="201.5" y1="-616" x2="203.493" y2="2202" stroke="white"/>
<line x1="268.5" y1="1008" x2="268.5" stroke="white"/>
<line x1="814.5" y1="15" x2="814.5" y2="2135" stroke="white"/>
<line x1="1250.99" y1="617.016" x2="1250.99" y2="215.984" stroke="white"/>
</svg>
